AtkinsonHyperlegibleNext-Regular.sfdir
StartChar: exclam
Encoding: 33 33 263
Width: 286
GlyphClass: 1
Flags: W
LayerCount: 2
Fore
SplineSet
98 496 m 1,0,-1
 98 668 l 1,1,-1
 188 668 l 1,2,-1
 188 496 l 1,3,-1
 169 195 l 1,4,-1
 117 195 l 1,5,-1
 98 496 l 1,0,-1
97 7 m 128,-1,7
 78 26 78 26 78 53 c 256,8,9
 78 80 78 80 97 99 c 128,-1,10
 116 118 116 118 143 118 c 256,11,12
 170 118 170 118 189 99 c 128,-1,13
 208 80 208 80 208 53 c 256,14,15
 208 26 208 26 189 7 c 128,-1,16
 170 -12 170 -12 143 -12 c 256,17,6
 116 -12 116 -12 97 7 c 128,-1,7
EndSplineSet
EndChar
StartChar: quotedbl
Encoding: 34 34 293
Width: 301
GlyphClass: 1
Flags: W
LayerCount: 2
Fore
SplineSet
181 668 m 1,0,-1
 261 668 l 1,1,-1
 247 447 l 1,2,-1
 195 447 l 1,3,-1
 181 668 l 1,0,-1
40 668 m 1,4,-1
 120 668 l 1,5,-1
 106 447 l 1,6,-1
 54 447 l 1,7,-1
 40 668 l 1,4,-1
EndSplineSet
EndChar
StartChar: numbersign
Encoding: 35 35 270
Width: 651
GlyphClass: 1
Flags: W
LayerCount: 2
Fore
SplineSet
160 172 m 1,0,-1
 36 172 l 1,1,-1
 47 253 l 1,2,-1
 171 253 l 1,3,-1
 194 415 l 1,4,-1
 70 415 l 1,5,-1
 81 496 l 1,6,-1
 205 496 l 1,7,-1
 229 668 l 1,8,-1
 311 668 l 1,9,-1
 287 496 l 1,10,-1
 410 496 l 1,11,-1
 434 668 l 1,12,-1
 516 668 l 1,13,-1
 492 496 l 1,14,-1
 615 496 l 1,15,-1
 604 415 l 1,16,-1
 480 415 l 1,17,-1
 458 253 l 1,18,-1
 581 253 l 1,19,-1
 570 172 l 1,20,-1
 446 172 l 1,21,-1
 422 0 l 1,22,-1
 340 0 l 1,23,-1
 364 172 l 1,24,-1
 241 172 l 1,25,-1
 217 0 l 1,26,-1
 135 0 l 1,27,-1
 160 172 l 1,0,-1
376 253 m 1,28,-1
 398 415 l 1,29,-1
 275 415 l 1,30,-1
 253 253 l 1,31,-1
 376 253 l 1,28,-1
EndSplineSet
EndChar
StartChar: dollar
Encoding: 36 36 313
Width: 592
GlyphClass: 1
Flags: W
LayerCount: 2
Fore
SplineSet
123.5 35 m 128,-1,1
 61 75 61 75 38 146 c 1,2,-1
 121 177 l 1,3,4
 134 130 134 130 174.5 101.5 c 128,-1,5
 215 73 215 73 266 66 c 1,6,-1
 266 311 l 1,7,-1
 233 319 l 2,8,9
 147 339 147 339 100.5 380.5 c 128,-1,10
 54 422 54 422 54 494 c 0,11,12
 54 545 54 545 82.5 585 c 128,-1,13
 111 625 111 625 159.5 649 c 128,-1,14
 208 673 208 673 266 678 c 1,15,-1
 266 758 l 1,16,-1
 316 758 l 1,17,-1
 316 680 l 1,18,19
 387 676 387 676 444.5 644.5 c 128,-1,20
 502 613 502 613 530 555 c 1,21,-1
 447 524 l 1,22,23
 430 558 430 558 395 578.5 c 128,-1,24
 360 599 360 599 316 603 c 1,25,-1
 316 385 l 1,26,-1
 346 378 l 2,27,28
 451 354 451 354 502.5 311.5 c 128,-1,29
 554 269 554 269 554 189 c 0,30,31
 554 131 554 131 522 87 c 128,-1,32
 490 43 490 43 436 18 c 128,-1,33
 382 -7 382 -7 316 -11 c 1,34,-1
 316 -90 l 1,35,-1
 266 -90 l 1,36,-1
 266 -11 l 1,37,0
 186 -5 186 -5 123.5 35 c 128,-1,1
422.5 100 m 128,-1,39
 464 131 464 131 464 186 c 0,40,41
 464 215 464 215 452 235 c 128,-1,42
 440 255 440 255 409.5 270 c 128,-1,43
 379 285 379 285 323 298 c 2,44,-1
 316 300 l 1,45,-1
 316 65 l 1,46,38
 381 69 381 69 422.5 100 c 128,-1,39
178.5 569 m 128,-1,48
 144 542 144 542 144 497 c 0,49,50
 144 426 144 426 252 400 c 2,51,-1
 266 397 l 1,52,-1
 266 602 l 1,53,47
 213 596 213 596 178.5 569 c 128,-1,48
EndSplineSet
EndChar
StartChar: percent
Encoding: 37 37 341
Width: 919
GlyphClass: 1
Flags: W
LayerCount: 2
Fore
SplineSet
648 668 m 1,0,-1
 736 668 l 1,1,-1
 268 0 l 1,2,-1
 180 0 l 1,3,-1
 648 668 l 1,0,-1
126.5 340.5 m 128,-1,5
 85 365 85 365 60.5 406.5 c 128,-1,6
 36 448 36 448 36 498 c 256,7,8
 36 548 36 548 60.5 589.5 c 128,-1,9
 85 631 85 631 126.5 655.5 c 128,-1,10
 168 680 168 680 218 680 c 256,11,12
 268 680 268 680 309.5 655.5 c 128,-1,13
 351 631 351 631 375.5 589.5 c 128,-1,14
 400 548 400 548 400 498 c 256,15,16
 400 448 400 448 375.5 406.5 c 128,-1,17
 351 365 351 365 309.5 340.5 c 128,-1,18
 268 316 268 316 218 316 c 256,19,4
 168 316 168 316 126.5 340.5 c 128,-1,5
294.5 421.5 m 128,-1,21
 326 453 326 453 326 498 c 256,22,23
 326 543 326 543 294.5 574.5 c 128,-1,24
 263 606 263 606 218 606 c 256,25,26
 173 606 173 606 141.5 574.5 c 128,-1,27
 110 543 110 543 110 498 c 256,28,29
 110 453 110 453 141.5 421.5 c 128,-1,30
 173 390 173 390 218 390 c 256,31,20
 263 390 263 390 294.5 421.5 c 128,-1,21
609.5 12.5 m 128,-1,33
 568 37 568 37 543.5 78.5 c 128,-1,34
 519 120 519 120 519 170 c 256,35,36
 519 220 519 220 543.5 261.5 c 128,-1,37
 568 303 568 303 609.5 327.5 c 128,-1,38
 651 352 651 352 701 352 c 256,39,40
 751 352 751 352 792.5 327.5 c 128,-1,41
 834 303 834 303 858.5 261.5 c 128,-1,42
 883 220 883 220 883 170 c 256,43,44
 883 120 883 120 858.5 78.5 c 128,-1,45
 834 37 834 37 792.5 12.5 c 128,-1,46
 751 -12 751 -12 701 -12 c 256,47,32
 651 -12 651 -12 609.5 12.5 c 128,-1,33
777.5 93.5 m 128,-1,49
 809 125 809 125 809 170 c 256,50,51
 809 215 809 215 777.5 246.5 c 128,-1,52
 746 278 746 278 701 278 c 256,53,54
 656 278 656 278 624.5 246.5 c 128,-1,55
 593 215 593 215 593 170 c 256,56,57
 593 125 593 125 624.5 93.5 c 128,-1,58
 656 62 656 62 701 62 c 256,59,48
 746 62 746 62 777.5 93.5 c 128,-1,49
EndSplineSet
EndChar
StartChar: ampersand
Encoding: 38 38 298
Width: 731
GlyphClass: 1
Flags: W
LayerCount: 2
Fore
SplineSet
168.5 13 m 128,-1,1
 116 38 116 38 87.5 81.5 c 128,-1,2
 59 125 59 125 59 181 c 0,3,4
 59 256 59 256 105 308 c 128,-1,5
 151 360 151 360 232 387 c 1,6,7
 195 425 195 425 176.5 459.5 c 128,-1,8
 158 494 158 494 158 532 c 0,9,10
 158 572 158 572 180.5 606.5 c 128,-1,11
 203 641 203 641 244 661.5 c 128,-1,12
 285 682 285 682 339 682 c 0,13,14
 382 682 382 682 422.5 665.5 c 128,-1,15
 463 649 463 649 488.5 615.5 c 128,-1,16
 514 582 514 582 514 536 c 0,17,18
 514 420 514 420 374 363 c 1,19,-1
 510 219 l 1,20,21
 537 276 537 276 543 350 c 1,22,-1
 630 350 l 1,23,24
 615 233 615 233 569 157 c 1,25,-1
 718 0 l 1,26,-1
 599 0 l 1,27,-1
 517 87 l 1,28,29
 430 -12 430 -12 289 -12 c 0,30,0
 221 -12 221 -12 168.5 13 c 128,-1,1
463 143 m 1,32,-1
 282 334 l 1,33,34
 149 287 149 287 149 185 c 0,35,36
 149 129 149 129 190.5 95.5 c 128,-1,37
 232 62 232 62 289 62 c 0,38,31
 394 62 394 62 463 143 c 1,32,-1
403.5 463 m 128,-1,40
 432 492 432 492 432 531 c 0,41,42
 432 564 432 564 404.5 586.5 c 128,-1,43
 377 609 377 609 338 609 c 0,44,45
 300 609 300 609 274 590 c 128,-1,46
 248 571 248 571 248 537 c 0,47,48
 248 508 248 508 264.5 484 c 128,-1,49
 281 460 281 460 323 415 c 1,50,39
 375 434 375 434 403.5 463 c 128,-1,40
EndSplineSet
EndChar
StartChar: parenleft
Encoding: 40 40 277
Width: 299
GlyphClass: 1
Flags: W
LayerCount: 2
Fore
SplineSet
88.5 46.5 m 128,-1,1
 55 159 55 159 55 273 c 256,2,3
 55 387 55 387 88.5 499.5 c 128,-1,4
 122 612 122 612 183 708 c 1,5,-1
 264 708 l 1,6,7
 202 612 202 612 168 499.5 c 128,-1,8
 134 387 134 387 134 273 c 256,9,10
 134 159 134 159 168 46.5 c 128,-1,11
 202 -66 202 -66 264 -162 c 1,12,-1
 183 -162 l 1,13,0
 122 -66 122 -66 88.5 46.5 c 128,-1,1
EndSplineSet
EndChar
StartChar: parenright
Encoding: 41 41 278
Width: 299
GlyphClass: 1
Flags: W
LayerCount: 2
Fore
SplineSet
131 47.5 m 128,-1,1
 165 160 165 160 165 274 c 256,2,3
 165 388 165 388 131 500.5 c 128,-1,4
 97 613 97 613 35 709 c 1,5,-1
 116 709 l 1,6,7
 177 613 177 613 210.5 500.5 c 128,-1,8
 244 388 244 388 244 274 c 256,9,10
 244 160 244 160 210.5 47.5 c 128,-1,11
 177 -65 177 -65 116 -161 c 1,12,-1
 35 -161 l 1,13,0
 97 -65 97 -65 131 47.5 c 128,-1,1
EndSplineSet
EndChar
StartChar: asterisk
Encoding: 42 42 269
Width: 485
GlyphClass: 1
Flags: W
LayerCount: 2
Fore
SplineSet
117 378 m 1,0,-1
 193 483 l 1,1,-1
 70 521 l 1,2,-1
 89 579 l 1,3,-1
 212 539 l 1,4,-1
 212 668 l 1,5,-1
 271 668 l 1,6,-1
 271 539 l 1,7,-1
 394 579 l 1,8,-1
 413 521 l 1,9,-1
 288 483 l 1,10,-1
 365 378 l 1,11,-1
 318 343 l 1,12,-1
 240 447 l 1,13,-1
 165 343 l 1,14,-1
 117 378 l 1,0,-1
EndSplineSet
EndChar
StartChar: plus
Encoding: 43 43 320
Width: 606
GlyphClass: 1
Flags: W
LayerCount: 2
Fore
SplineSet
263 208 m 1,0,-1
 55 208 l 1,1,-1
 55 288 l 1,2,-1
 263 288 l 1,3,-1
 263 496 l 1,4,-1
 343 496 l 1,5,-1
 343 288 l 1,6,-1
 551 288 l 1,7,-1
 551 208 l 1,8,-1
 343 208 l 1,9,-1
 343 0 l 1,10,-1
 263 0 l 1,11,-1
 263 208 l 1,0,-1
EndSplineSet
EndChar
StartChar: comma
Encoding: 44 44 259
Width: 210
GlyphClass: 1
Flags: W
LayerCount: 2
Fore
SplineSet
55.5 11 m 128,-1,1
 40 29 40 29 40 53 c 0,2,3
 40 79 40 79 59 98.5 c 128,-1,4
 78 118 78 118 104 118 c 0,5,6
 131 118 131 118 150.5 98.5 c 128,-1,7
 170 79 170 79 170 53 c 0,8,9
 170 41 170 41 164 25 c 2,10,-1
 102 -133 l 1,11,-1
 47 -133 l 1,12,-1
 94 -11 l 1,13,0
 71 -7 71 -7 55.5 11 c 128,-1,1
EndSplineSet
EndChar
StartChar: hyphen
Encoding: 45 45 273
Width: 362
GlyphClass: 1
Flags: W
LayerCount: 2
Fore
SplineSet
35 289 m 1,0,-1
 327 289 l 1,1,-1
 327 208 l 1,2,-1
 35 208 l 1,3,-1
 35 289 l 1,0,-1
EndSplineSet
EndChar
StartChar: period
Encoding: 46 46 258
Width: 210
GlyphClass: 1
Flags: W
LayerCount: 2
Fore
SplineSet
59 7 m 128,-1,1
 40 26 40 26 40 53 c 256,2,3
 40 80 40 80 59 99 c 128,-1,4
 78 118 78 118 105 118 c 256,5,6
 132 118 132 118 151 99 c 128,-1,7
 170 80 170 80 170 53 c 256,8,9
 170 26 170 26 151 7 c 128,-1,10
 132 -12 132 -12 105 -12 c 256,11,0
 78 -12 78 -12 59 7 c 128,-1,1
EndSplineSet
EndChar
StartChar: slash
Encoding: 47 47 271
Width: 387
GlyphClass: 5
Flags: W
LayerCount: 2
Fore
SplineSet
284 708 m 1,0,-1
 367 708 l 1,1,-1
 103 -90 l 1,2,-1
 20 -90 l 1,3,-1
 284 708 l 1,0,-1
EndSplineSet
EndChar
StartChar: zero
Encoding: 48 48 229
Width: 648
GlyphClass: 1
Flags: W
LayerCount: 2
Fore
SplineSet
127.5 77.5 m 128,-1,1
 60 167 60 167 60 335 c 256,2,3
 60 503 60 503 127.5 592.5 c 128,-1,4
 195 682 195 682 324 682 c 256,5,6
 453 682 453 682 520.5 592.5 c 128,-1,7
 588 503 588 503 588 335 c 256,8,9
 588 167 588 167 520.5 77.5 c 128,-1,10
 453 -12 453 -12 324 -12 c 256,11,0
 195 -12 195 -12 127.5 77.5 c 128,-1,1
443 116 m 1,13,-1
 176 501 l 1,14,15
 151 438 151 438 151 335 c 0,16,17
 151 202 151 202 194 132 c 128,-1,18
 237 62 237 62 324 62 c 0,19,12
 400 62 400 62 443 116 c 1,13,-1
497 335 m 0,21,22
 497 468 497 468 454 538 c 128,-1,23
 411 608 411 608 324 608 c 0,24,25
 253 608 253 608 211 561 c 1,26,-1
 476 180 l 1,27,20
 497 243 497 243 497 335 c 0,21,22
EndSplineSet
Substitution2: "'tnum' Tabular Numbers in Latin lookup 10 subtable" zero.tf
AlternateSubs2: "'aalt' Access All Alternates in Latin lookup 0 subtable" zero.tf
EndChar
StartChar: one
Encoding: 49 49 230
Width: 407
GlyphClass: 5
Flags: W
LayerCount: 2
Fore
SplineSet
213 504 m 1,0,-1
 35 504 l 1,1,-1
 35 571 l 1,2,3
 118 571 118 571 169.5 591 c 128,-1,4
 221 611 221 611 241 668 c 1,5,-1
 297 668 l 1,6,-1
 297 0 l 1,7,-1
 213 0 l 1,8,-1
 213 504 l 1,0,-1
EndSplineSet
Substitution2: "'tnum' Tabular Numbers in Latin lookup 10 subtable" one.tf
Substitution2: "'sups' Superscript in Latin lookup 6 subtable" uni00B9
AlternateSubs2: "'aalt' Access All Alternates in Latin lookup 0 subtable" uni00B9 one.tf
EndChar
StartChar: two
Encoding: 50 50 231
Width: 548
GlyphClass: 5
Flags: W
LayerCount: 2
Fore
SplineSet
311.5 315 m 128,-1,1
 402 411 402 411 402 494 c 0,2,3
 402 546 402 546 369 578 c 128,-1,4
 336 610 336 610 278 610 c 0,5,6
 226 610 226 610 187.5 582.5 c 128,-1,7
 149 555 149 555 138 498 c 1,8,-1
 54 522 l 1,9,10
 72 595 72 595 132 637.5 c 128,-1,11
 192 680 192 680 280 680 c 0,12,13
 375 680 375 680 434 631.5 c 128,-1,14
 493 583 493 583 493 496 c 0,15,16
 493 422 493 422 447 352.5 c 128,-1,17
 401 283 401 283 328.5 222 c 128,-1,18
 256 161 256 161 142 80 c 1,19,-1
 510 80 l 1,20,-1
 510 0 l 1,21,-1
 29 0 l 1,22,-1
 29 78 l 1,23,0
 221 219 221 219 311.5 315 c 128,-1,1
EndSplineSet
Substitution2: "'tnum' Tabular Numbers in Latin lookup 10 subtable" two.tf
Substitution2: "'sups' Superscript in Latin lookup 6 subtable" uni00B2
AlternateSubs2: "'aalt' Access All Alternates in Latin lookup 0 subtable" uni00B2 two.tf
EndChar
StartChar: three
Encoding: 51 51 232
Width: 576
GlyphClass: 5
Flags: W
LayerCount: 2
Fore
SplineSet
120.5 33 m 128,-1,1
 63 78 63 78 44 151 c 1,2,-1
 127 175 l 1,3,4
 139 120 139 120 176.5 89 c 128,-1,5
 214 58 214 58 276 58 c 0,6,7
 343 58 343 58 385.5 92 c 128,-1,8
 428 126 428 126 428 186 c 0,9,10
 428 259 428 259 374 286.5 c 128,-1,11
 320 314 320 314 245 314 c 2,12,-1
 220 314 l 1,13,-1
 220 390 l 1,14,-1
 245 390 l 2,15,16
 313 390 313 390 361 417.5 c 128,-1,17
 409 445 409 445 409 505 c 0,18,19
 409 555 409 555 372 582.5 c 128,-1,20
 335 610 335 610 279 610 c 0,21,22
 219 610 219 610 182.5 579.5 c 128,-1,23
 146 549 146 549 136 498 c 1,24,-1
 54 522 l 1,25,26
 72 595 72 595 131.5 637.5 c 128,-1,27
 191 680 191 680 281 680 c 0,28,29
 374 680 374 680 435.5 636 c 128,-1,30
 497 592 497 592 497 506 c 0,31,32
 497 454 497 454 466.5 414.5 c 128,-1,33
 436 375 436 375 379 357 c 1,34,35
 450 336 450 336 484 290.5 c 128,-1,36
 518 245 518 245 518 188 c 0,37,38
 518 123 518 123 484.5 78 c 128,-1,39
 451 33 451 33 395.5 10.5 c 128,-1,40
 340 -12 340 -12 275 -12 c 0,41,0
 178 -12 178 -12 120.5 33 c 128,-1,1
EndSplineSet
Substitution2: "'tnum' Tabular Numbers in Latin lookup 10 subtable" three.tf
Substitution2: "'sups' Superscript in Latin lookup 6 subtable" uni00B3
AlternateSubs2: "'aalt' Access All Alternates in Latin lookup 0 subtable" uni00B3 three.tf
EndChar
StartChar: four
Encoding: 52 52 233
Width: 614
GlyphClass: 5
Flags: W
LayerCount: 2
Fore
SplineSet
370 165 m 1,0,-1
 38 165 l 1,1,-1
 38 244 l 1,2,-1
 369 668 l 1,3,-1
 454 668 l 1,4,-1
 454 244 l 1,5,-1
 576 244 l 1,6,-1
 576 165 l 1,7,-1
 454 165 l 1,8,-1
 454 0 l 1,9,-1
 370 0 l 1,10,-1
 370 165 l 1,0,-1
370 244 m 1,11,-1
 370 553 l 1,12,-1
 129 244 l 1,13,-1
 370 244 l 1,11,-1
EndSplineSet
Substitution2: "'tnum' Tabular Numbers in Latin lookup 10 subtable" four.tf
AlternateSubs2: "'aalt' Access All Alternates in Latin lookup 0 subtable" four.tf
EndChar
StartChar: five
Encoding: 53 53 234
Width: 588
GlyphClass: 1
Flags: W
LayerCount: 2
Fore
SplineSet
136 33 m 128,-1,1
 79 78 79 78 59 151 c 1,2,-1
 141 175 l 1,3,4
 167 58 167 58 289 58 c 0,5,6
 330 58 330 58 364 77 c 128,-1,7
 398 96 398 96 418 132.5 c 128,-1,8
 438 169 438 169 438 219 c 0,9,10
 438 272 438 272 416.5 307.5 c 128,-1,11
 395 343 395 343 360.5 360.5 c 128,-1,12
 326 378 326 378 288 378 c 0,13,14
 240 378 240 378 206 355.5 c 128,-1,15
 172 333 172 333 159 304 c 1,16,-1
 77 328 l 1,17,-1
 118 668 l 1,18,-1
 501 668 l 1,19,-1
 501 588 l 1,20,-1
 186 588 l 1,21,-1
 163 397 l 1,22,23
 211 450 211 450 307 450 c 0,24,25
 366 450 366 450 416 422.5 c 128,-1,26
 466 395 466 395 496 343 c 128,-1,27
 526 291 526 291 526 220 c 0,28,29
 526 146 526 146 493.5 94 c 128,-1,30
 461 42 461 42 407 15 c 128,-1,31
 353 -12 353 -12 289 -12 c 0,32,0
 193 -12 193 -12 136 33 c 128,-1,1
EndSplineSet
Substitution2: "'tnum' Tabular Numbers in Latin lookup 10 subtable" five.tf
AlternateSubs2: "'aalt' Access All Alternates in Latin lookup 0 subtable" five.tf
EndChar
StartChar: six
Encoding: 54 54 235
Width: 598
GlyphClass: 1
Flags: W
LayerCount: 2
Fore
SplineSet
125 70.5 m 128,-1,1
 65 153 65 153 65 310 c 0,2,3
 65 469 65 469 128 574.5 c 128,-1,4
 191 680 191 680 326 680 c 0,5,6
 396 680 396 680 443.5 650.5 c 128,-1,7
 491 621 491 621 514 573 c 1,8,-1
 431 543 l 1,9,10
 418 573 418 573 387.5 590 c 128,-1,11
 357 607 357 607 317 607 c 0,12,13
 241 607 241 607 198 538 c 128,-1,14
 155 469 155 469 152 352 c 1,15,16
 176 394 176 394 220 419.5 c 128,-1,17
 264 445 264 445 327 445 c 0,18,19
 389 445 389 445 438 416 c 128,-1,20
 487 387 487 387 515 335.5 c 128,-1,21
 543 284 543 284 543 218 c 0,22,23
 543 156 543 156 513.5 103 c 128,-1,24
 484 50 484 50 430.5 19 c 128,-1,25
 377 -12 377 -12 308 -12 c 0,26,0
 185 -12 185 -12 125 70.5 c 128,-1,1
413.5 104.5 m 128,-1,28
 453 147 453 147 453 215 c 0,29,30
 453 284 453 284 413.5 326.5 c 128,-1,31
 374 369 374 369 308 369 c 256,32,33
 242 369 242 369 202 326.5 c 128,-1,34
 162 284 162 284 162 215 c 0,35,36
 162 147 162 147 202 104.5 c 128,-1,37
 242 62 242 62 308 62 c 256,38,27
 374 62 374 62 413.5 104.5 c 128,-1,28
EndSplineSet
Substitution2: "'tnum' Tabular Numbers in Latin lookup 10 subtable" six.tf
AlternateSubs2: "'aalt' Access All Alternates in Latin lookup 0 subtable" six.tf
EndChar
StartChar: eight
Encoding: 56 56 237
Width: 615
GlyphClass: 1
Flags: W
LayerCount: 2
Fore
SplineSet
181 12 m 128,-1,1
 125 36 125 36 92.5 82 c 128,-1,2
 60 128 60 128 60 190 c 256,3,4
 60 252 60 252 93 297 c 128,-1,5
 126 342 126 342 184 366 c 1,6,7
 156 391 156 391 140.5 426 c 128,-1,8
 125 461 125 461 125 499 c 0,9,10
 125 548 125 548 149.5 590 c 128,-1,11
 174 632 174 632 216 656.5 c 128,-1,12
 258 681 258 681 307 681 c 256,13,14
 356 681 356 681 398 656.5 c 128,-1,15
 440 632 440 632 464.5 590 c 128,-1,16
 489 548 489 548 489 499 c 0,17,18
 489 461 489 461 473.5 426 c 128,-1,19
 458 391 458 391 430 366 c 1,20,21
 488 343 488 343 521.5 297.5 c 128,-1,22
 555 252 555 252 555 190 c 256,23,24
 555 128 555 128 522.5 82 c 128,-1,25
 490 36 490 36 434 12 c 128,-1,26
 378 -12 378 -12 307 -12 c 0,27,0
 237 -12 237 -12 181 12 c 128,-1,1
421.5 96.5 m 128,-1,29
 464 131 464 131 464 190 c 256,30,31
 464 249 464 249 421.5 283.5 c 128,-1,32
 379 318 379 318 307 318 c 0,33,34
 236 318 236 318 193.5 283 c 128,-1,35
 151 248 151 248 151 190 c 256,36,37
 151 132 151 132 193.5 97 c 128,-1,38
 236 62 236 62 307 62 c 0,39,28
 379 62 379 62 421.5 96.5 c 128,-1,29
381.5 425 m 128,-1,41
 412 456 412 456 412 499 c 0,42,43
 412 543 412 543 381.5 573.5 c 128,-1,44
 351 604 351 604 307 604 c 0,45,46
 264 604 264 604 233 573.5 c 128,-1,47
 202 543 202 543 202 499 c 0,48,49
 202 456 202 456 233 425 c 128,-1,50
 264 394 264 394 307 394 c 0,51,40
 351 394 351 394 381.5 425 c 128,-1,41
EndSplineSet
Substitution2: "'tnum' Tabular Numbers in Latin lookup 10 subtable" eight.tf
AlternateSubs2: "'aalt' Access All Alternates in Latin lookup 0 subtable" eight.tf
EndChar
StartChar: nine
Encoding: 57 57 238
Width: 595
GlyphClass: 1
Flags: W
LayerCount: 2
Fore
SplineSet
294 204 m 0,1,2
 229 204 229 204 175 235.5 c 128,-1,3
 121 267 121 267 89 321.5 c 128,-1,4
 57 376 57 376 57 441 c 0,5,6
 57 504 57 504 88.5 559 c 128,-1,7
 120 614 120 614 174.5 646.5 c 128,-1,8
 229 679 229 679 296 679 c 256,9,10
 363 679 363 679 417.5 647 c 128,-1,11
 472 615 472 615 503.5 562 c 128,-1,12
 535 509 535 509 535 447 c 0,13,14
 535 389 535 389 511.5 335.5 c 128,-1,15
 488 282 488 282 448 216 c 2,16,-1
 315 0 l 1,17,-1
 213 0 l 1,18,-1
 350 210 l 1,19,0
 322 204 322 204 294 204 c 0,1,2
373.5 308.5 m 128,-1,21
 409 329 409 329 429.5 364 c 128,-1,22
 450 399 450 399 450 441 c 0,23,24
 450 482 450 482 429 517.5 c 128,-1,25
 408 553 408 553 372.5 573.5 c 128,-1,26
 337 594 337 594 295 594 c 256,27,28
 253 594 253 594 218 573.5 c 128,-1,29
 183 553 183 553 162.5 517.5 c 128,-1,30
 142 482 142 482 142 441 c 256,31,32
 142 400 142 400 162.5 364.5 c 128,-1,33
 183 329 183 329 218 308.5 c 128,-1,34
 253 288 253 288 295 288 c 0,35,20
 338 288 338 288 373.5 308.5 c 128,-1,21
EndSplineSet
Substitution2: "'tnum' Tabular Numbers in Latin lookup 10 subtable" nine.tf
AlternateSubs2: "'aalt' Access All Alternates in Latin lookup 0 subtable" nine.tf
EndChar
StartChar: less
Encoding: 60 60 327
Width: 553
GlyphClass: 1
Flags: W
LayerCount: 2
Fore
SplineSet
40 213 m 1,0,-1
 40 283 l 1,1,-1
 513 496 l 1,2,-1
 513 406 l 1,3,-1
 145 248 l 1,4,-1
 513 90 l 1,5,-1
 513 0 l 1,6,-1
 40 213 l 1,0,-1
EndSplineSet
EndChar
StartChar: equal
Encoding: 61 61 324
Width: 628
GlyphClass: 1
Flags: W
LayerCount: 2
Fore
SplineSet
66 386 m 1,0,-1
 562 386 l 1,1,-1
 562 307 l 1,2,-1
 66 307 l 1,3,-1
 66 386 l 1,0,-1
66 200 m 1,4,-1
 562 200 l 1,5,-1
 562 121 l 1,6,-1
 66 121 l 1,7,-1
 66 200 l 1,4,-1
EndSplineSet
EndChar
StartChar: greater
Encoding: 62 62 326
Width: 553
GlyphClass: 1
Flags: W
LayerCount: 2
Fore
SplineSet
40 90 m 1,0,-1
 408 248 l 1,1,-1
 40 406 l 1,2,-1
 40 496 l 1,3,-1
 513 283 l 1,4,-1
 513 213 l 1,5,-1
 40 0 l 1,6,-1
 40 90 l 1,0,-1
EndSplineSet
EndChar
StartChar: question
Encoding: 63 63 265
Width: 480
GlyphClass: 1
Flags: W
LayerCount: 2
Fore
SplineSet
181.5 286.5 m 128,-1,1
 191 311 191 311 215.5 334.5 c 128,-1,2
 240 358 240 358 286 387 c 0,3,4
 329 414 329 414 350.5 442.5 c 128,-1,5
 372 471 372 471 372 508 c 0,6,7
 372 555 372 555 337.5 582.5 c 128,-1,8
 303 610 303 610 247 610 c 0,9,10
 185 610 185 610 152.5 578.5 c 128,-1,11
 120 547 120 547 112 501 c 1,12,-1
 30 524 l 1,13,14
 45 596 45 596 105 638 c 128,-1,15
 165 680 165 680 251 680 c 0,16,17
 306 680 306 680 353.5 662 c 128,-1,18
 401 644 401 644 430.5 607 c 128,-1,19
 460 570 460 570 460 516 c 0,20,21
 460 406 460 406 335 328 c 0,22,23
 287 299 287 299 272.5 278.5 c 128,-1,24
 258 258 258 258 258 224 c 2,25,-1
 258 190 l 1,26,-1
 172 190 l 1,27,-1
 172 227 l 2,28,0
 172 262 172 262 181.5 286.5 c 128,-1,1
169 7 m 128,-1,30
 150 26 150 26 150 53 c 256,31,32
 150 80 150 80 169 99 c 128,-1,33
 188 118 188 118 215 118 c 256,34,35
 242 118 242 118 261 99 c 128,-1,36
 280 80 280 80 280 53 c 256,37,38
 280 26 280 26 261 7 c 128,-1,39
 242 -12 242 -12 215 -12 c 256,40,29
 188 -12 188 -12 169 7 c 128,-1,30
EndSplineSet
EndChar
StartChar: at
Encoding: 64 64 297
Width: 778
GlyphClass: 1
Flags: W
LayerCount: 2
Fore
SplineSet
225.5 -53 m 128,-1,1
 144 -10 144 -10 94 70 c 128,-1,2
 44 150 44 150 44 255 c 0,3,4
 44 354 44 354 91 433.5 c 128,-1,5
 138 513 138 513 219 558.5 c 128,-1,6
 300 604 300 604 396 604 c 0,7,8
 477 604 477 604 555 567.5 c 128,-1,9
 633 531 633 531 683.5 459 c 128,-1,10
 734 387 734 387 734 286 c 0,11,12
 734 213 734 213 711.5 166 c 128,-1,13
 689 119 689 119 654 97.5 c 128,-1,14
 619 76 619 76 580 76 c 0,15,16
 547 76 547 76 518 92.5 c 128,-1,17
 489 109 489 109 478 133 c 1,18,19
 454 101 454 101 424 88 c 128,-1,20
 394 75 394 75 357 75 c 256,21,22
 320 75 320 75 286.5 94 c 128,-1,23
 253 113 253 113 231.5 150 c 128,-1,24
 210 187 210 187 210 238 c 0,25,26
 210 343 210 343 268.5 391 c 128,-1,27
 327 439 327 439 413 439 c 0,28,29
 470 439 470 439 532 419 c 1,30,-1
 532 197 l 2,31,32
 532 170 532 170 548 155.5 c 128,-1,33
 564 141 564 141 588 141 c 0,34,35
 629 141 629 141 650.5 184 c 128,-1,36
 672 227 672 227 672 286 c 0,37,38
 672 359 672 359 635 417.5 c 128,-1,39
 598 476 598 476 535 509 c 128,-1,40
 472 542 472 542 396 542 c 0,41,42
 317 542 317 542 251 505.5 c 128,-1,43
 185 469 185 469 146.5 403.5 c 128,-1,44
 108 338 108 338 108 255 c 0,45,46
 108 168 108 168 148.5 102.5 c 128,-1,47
 189 37 189 37 255 1.5 c 128,-1,48
 321 -34 321 -34 396 -34 c 0,49,50
 469 -34 469 -34 532 1 c 1,51,-1
 532 -68 l 1,52,53
 469 -96 469 -96 398 -96 c 0,54,0
 307 -96 307 -96 225.5 -53 c 128,-1,1
434 172 m 128,-1,56
 461 203 461 203 461 258 c 2,57,-1
 461 369 l 1,58,59
 427 373 427 373 406 373 c 0,60,61
 355 373 355 373 319.5 342.5 c 128,-1,62
 284 312 284 312 284 233 c 0,63,64
 284 190 284 190 310 165.5 c 128,-1,65
 336 141 336 141 369 141 c 0,66,55
 407 141 407 141 434 172 c 128,-1,56
EndSplineSet
EndChar
StartChar: B
Encoding: 66 66 13
Width: 613
GlyphClass: 2
Flags: W
AnchorPoint: "Anchor-1" 312 668 basechar 0
AnchorPoint: "Anchor-0" 312 0 basechar 0
LayerCount: 2
Fore
SplineSet
78 668 m 1,0,-1
 337 668 l 2,1,2
 438 668 438 668 495.5 620 c 128,-1,3
 553 572 553 572 553 495 c 0,4,5
 553 449 553 449 531.5 410.5 c 128,-1,6
 510 372 510 372 464 351 c 1,7,8
 526 328 526 328 553.5 286.5 c 128,-1,9
 581 245 581 245 581 193 c 0,10,11
 581 138 581 138 553.5 94 c 128,-1,12
 526 50 526 50 474 25 c 128,-1,13
 422 0 422 0 353 0 c 2,14,-1
 78 0 l 1,15,-1
 78 668 l 1,0,-1
452 112 m 128,-1,17
 486 145 486 145 486 195 c 0,18,19
 486 244 486 244 452 276 c 128,-1,20
 418 308 418 308 350 308 c 2,21,-1
 172 308 l 1,22,-1
 172 79 l 1,23,-1
 350 79 l 2,24,16
 418 79 418 79 452 112 c 128,-1,17
430.5 410 m 128,-1,26
 459 438 459 438 459 485 c 0,27,28
 459 534 459 534 427 561.5 c 128,-1,29
 395 589 395 589 334 589 c 2,30,-1
 172 589 l 1,31,-1
 172 382 l 1,32,-1
 344 382 l 2,33,25
 402 382 402 382 430.5 410 c 128,-1,26
EndSplineSet
EndChar
StartChar: C
Encoding: 67 67 14
Width: 645
GlyphClass: 2
Flags: W
AnchorPoint: "Anchor-1" 352 668 basechar 0
AnchorPoint: "Anchor-0" 347 0 basechar 0
LayerCount: 2
Fore
SplineSet
184.5 32 m 128,-1,1
 116 76 116 76 80 154.5 c 128,-1,2
 44 233 44 233 44 335 c 0,3,4
 44 438 44 438 82.5 516 c 128,-1,5
 121 594 121 594 191 637 c 128,-1,6
 261 680 261 680 355 680 c 0,7,8
 440 680 440 680 507 640.5 c 128,-1,9
 574 601 574 601 608 529 c 1,10,-1
 526 499 l 1,11,12
 502 546 502 546 457.5 573.5 c 128,-1,13
 413 601 413 601 350 601 c 0,14,15
 290 601 290 601 242.5 570.5 c 128,-1,16
 195 540 195 540 167.5 480 c 128,-1,17
 140 420 140 420 140 335 c 0,18,19
 140 253 140 253 167 192 c 128,-1,20
 194 131 194 131 242 99 c 128,-1,21
 290 67 290 67 353 67 c 256,22,23
 416 67 416 67 461 94 c 128,-1,24
 506 121 506 121 530 169 c 1,25,-1
 612 139 l 1,26,27
 577 66 577 66 507 27 c 128,-1,28
 437 -12 437 -12 347 -12 c 0,29,0
 253 -12 253 -12 184.5 32 c 128,-1,1
EndSplineSet
EndChar
StartChar: D
Encoding: 68 68 19
Width: 669
GlyphClass: 2
Flags: W
AnchorPoint: "Anchor-1" 319 668 basechar 0
AnchorPoint: "Anchor-0" 339 0 basechar 0
LayerCount: 2
Fore
SplineSet
78 668 m 1,0,-1
 260 668 l 2,1,2
 436 668 436 668 530.5 590 c 128,-1,3
 625 512 625 512 625 335 c 0,4,5
 625 154 625 154 529 77 c 128,-1,6
 433 0 433 0 260 0 c 2,7,-1
 78 0 l 1,8,-1
 78 668 l 1,0,-1
400.5 99 m 128,-1,10
 459 119 459 119 494 175 c 128,-1,11
 529 231 529 231 529 335 c 0,12,13
 529 438 529 438 494 493.5 c 128,-1,14
 459 549 459 549 400.5 569 c 128,-1,15
 342 589 342 589 258 589 c 2,16,-1
 172 589 l 1,17,-1
 172 79 l 1,18,-1
 258 79 l 2,19,9
 342 79 342 79 400.5 99 c 128,-1,10
EndSplineSet
EndChar
StartChar: E
Encoding: 69 69 23
Width: 569
GlyphClass: 2
Flags: W
AnchorPoint: "Anchor-2" 531 10 basechar 0
AnchorPoint: "Anchor-1" 305 668 basechar 0
AnchorPoint: "Anchor-0" 286 0 basechar 0
LayerCount: 2
Fore
SplineSet
78 668 m 1,0,-1
 527 668 l 1,1,-1
 527 587 l 1,2,-1
 172 587 l 1,3,-1
 172 384 l 1,4,-1
 437 384 l 1,5,-1
 437 303 l 1,6,-1
 172 303 l 1,7,-1
 172 81 l 1,8,-1
 531 81 l 1,9,-1
 531 0 l 1,10,-1
 78 0 l 1,11,-1
 78 668 l 1,0,-1
EndSplineSet
EndChar
StartChar: F
Encoding: 70 70 32
Width: 552
GlyphClass: 2
Flags: W
AnchorPoint: "Anchor-1" 276 668 basechar 0
AnchorPoint: "Anchor-0" 276 0 basechar 0
LayerCount: 2
Fore
SplineSet
78 668 m 1,0,-1
 512 668 l 1,1,-1
 512 587 l 1,2,-1
 172 587 l 1,3,-1
 172 384 l 1,4,-1
 508 384 l 1,5,-1
 508 303 l 1,6,-1
 172 303 l 1,7,-1
 172 0 l 1,8,-1
 78 0 l 1,9,-1
 78 668 l 1,0,-1
EndSplineSet
EndChar
StartChar: G
Encoding: 71 71 33
Width: 694
GlyphClass: 2
Flags: W
AnchorPoint: "Anchor-1" 349 668 basechar 0
AnchorPoint: "Anchor-0" 349 0 basechar 0
LayerCount: 2
Fore
SplineSet
184 32 m 128,-1,1
 116 76 116 76 80 154.5 c 128,-1,2
 44 233 44 233 44 335 c 0,3,4
 44 438 44 438 83 516 c 128,-1,5
 122 594 122 594 192.5 637 c 128,-1,6
 263 680 263 680 357 680 c 0,7,8
 443 680 443 680 510.5 641 c 128,-1,9
 578 602 578 602 612 529 c 1,10,-1
 528 498 l 1,11,12
 505 546 505 546 460 573.5 c 128,-1,13
 415 601 415 601 352 601 c 0,14,15
 292 601 292 601 244 570 c 128,-1,16
 196 539 196 539 168 479 c 128,-1,17
 140 419 140 419 140 335 c 0,18,19
 140 252 140 252 166.5 191.5 c 128,-1,20
 193 131 193 131 240.5 99 c 128,-1,21
 288 67 288 67 350 67 c 0,22,23
 430 67 430 67 488.5 107.5 c 128,-1,24
 547 148 547 148 547 242 c 2,25,-1
 547 264 l 1,26,-1
 352 264 l 1,27,-1
 352 345 l 1,28,-1
 636 345 l 1,29,-1
 636 0 l 1,30,-1
 582 0 l 1,31,-1
 557 84 l 1,32,33
 526 35 526 35 471.5 11.5 c 128,-1,34
 417 -12 417 -12 346 -12 c 0,35,0
 252 -12 252 -12 184 32 c 128,-1,1
EndSplineSet
EndChar
StartChar: H
Encoding: 72 72 37
Width: 694
GlyphClass: 2
Flags: W
AnchorPoint: "Anchor-1" 347 668 basechar 0
AnchorPoint: "Anchor-0" 347 0 basechar 0
LayerCount: 2
Fore
SplineSet
78 668 m 1,0,-1
 172 668 l 1,1,-1
 172 384 l 1,2,-1
 522 384 l 1,3,-1
 522 668 l 1,4,-1
 616 668 l 1,5,-1
 616 0 l 1,6,-1
 522 0 l 1,7,-1
 522 303 l 1,8,-1
 172 303 l 1,9,-1
 172 0 l 1,10,-1
 78 0 l 1,11,-1
 78 668 l 1,0,-1
EndSplineSet
EndChar
StartChar: I
Encoding: 73 73 39
Width: 392
GlyphClass: 2
Flags: W
AnchorPoint: "Anchor-2" 337 10 basechar 0
AnchorPoint: "Anchor-1" 196 668 basechar 0
AnchorPoint: "Anchor-0" 196 0 basechar 0
LayerCount: 2
Fore
SplineSet
55 70 m 1,0,-1
 149 70 l 1,1,-1
 149 598 l 1,2,-1
 55 598 l 1,3,-1
 55 668 l 1,4,-1
 337 668 l 1,5,-1
 337 598 l 1,6,-1
 243 598 l 1,7,-1
 243 70 l 1,8,-1
 337 70 l 1,9,-1
 337 0 l 1,10,-1
 55 0 l 1,11,-1
 55 70 l 1,0,-1
EndSplineSet
EndChar
StartChar: J
Encoding: 74 74 48
Width: 512
GlyphClass: 2
Flags: W
AnchorPoint: "Anchor-1" 387 668 basechar 0
AnchorPoint: "Anchor-0" 255 0 basechar 0
LayerCount: 2
Fore
SplineSet
74 39.5 m 128,-1,1
 19 91 19 91 15 189 c 1,2,-1
 102 214 l 1,3,4
 100 142 100 142 135 103.5 c 128,-1,5
 170 65 170 65 224 65 c 0,6,7
 273 65 273 65 306.5 98 c 128,-1,8
 340 131 340 131 340 213 c 2,9,-1
 340 668 l 1,10,-1
 434 668 l 1,11,-1
 434 212 l 2,12,13
 434 104 434 104 378.5 46 c 128,-1,14
 323 -12 323 -12 224 -12 c 0,15,0
 129 -12 129 -12 74 39.5 c 128,-1,1
EndSplineSet
Substitution2: "Single Substitution lookup 14 subtable" uni004A0301
AlternateSubs2: "'aalt' Access All Alternates in Latin lookup 0 subtable" uni004A0301
EndChar
StartChar: K
Encoding: 75 75 50
Width: 631
GlyphClass: 2
Flags: W
AnchorPoint: "Anchor-1" 316 668 basechar 0
AnchorPoint: "Anchor-0" 316 0 basechar 0
LayerCount: 2
Fore
SplineSet
78 668 m 1,0,-1
 172 668 l 1,1,-1
 172 332 l 1,2,-1
 473 668 l 1,3,-1
 590 668 l 1,4,-1
 335 389 l 1,5,-1
 619 0 l 1,6,-1
 504 0 l 1,7,-1
 272 320 l 1,8,-1
 172 210 l 1,9,-1
 172 0 l 1,10,-1
 78 0 l 1,11,-1
 78 668 l 1,0,-1
EndSplineSet
EndChar
StartChar: N
Encoding: 78 78 57
Width: 693
GlyphClass: 2
Flags: W
AnchorPoint: "Anchor-1" 347 668 basechar 0
AnchorPoint: "Anchor-0" 347 0 basechar 0
LayerCount: 2
Fore
SplineSet
78 668 m 1,0,-1
 217 668 l 1,1,-1
 521 100 l 1,2,-1
 521 668 l 1,3,-1
 615 668 l 1,4,-1
 615 0 l 1,5,-1
 477 0 l 1,6,-1
 172 571 l 1,7,-1
 172 0 l 1,8,-1
 78 0 l 1,9,-1
 78 668 l 1,0,-1
EndSplineSet
EndChar
StartChar: O
Encoding: 79 79 62
Width: 714
GlyphClass: 2
Flags: W
AnchorPoint: "Anchor-3" 701 668 basechar 0
AnchorPoint: "Anchor-2" 648 10 basechar 0
AnchorPoint: "Anchor-1" 358 668 basechar 0
AnchorPoint: "Anchor-0" 358 0 basechar 0
LayerCount: 2
Fore
SplineSet
192 32 m 128,-1,1
 121 76 121 76 82.5 154.5 c 128,-1,2
 44 233 44 233 44 334 c 256,3,4
 44 435 44 435 82.5 513.5 c 128,-1,5
 121 592 121 592 192 636 c 128,-1,6
 263 680 263 680 357 680 c 256,7,8
 451 680 451 680 522 636 c 128,-1,9
 593 592 593 592 631.5 513.5 c 128,-1,10
 670 435 670 435 670 334 c 256,11,12
 670 233 670 233 631.5 154.5 c 128,-1,13
 593 76 593 76 522 32 c 128,-1,14
 451 -12 451 -12 357 -12 c 256,15,0
 263 -12 263 -12 192 32 c 128,-1,1
467.5 98 m 128,-1,17
 517 129 517 129 545.5 189.5 c 128,-1,18
 574 250 574 250 574 334 c 256,19,20
 574 418 574 418 545.5 478.5 c 128,-1,21
 517 539 517 539 467.5 570 c 128,-1,22
 418 601 418 601 357 601 c 256,23,24
 296 601 296 601 246.5 570 c 128,-1,25
 197 539 197 539 168.5 478.5 c 128,-1,26
 140 418 140 418 140 334 c 256,27,28
 140 250 140 250 168.5 189.5 c 128,-1,29
 197 129 197 129 246.5 98 c 128,-1,30
 296 67 296 67 357 67 c 256,31,16
 418 67 418 67 467.5 98 c 128,-1,17
EndSplineSet
Substitution2: "Single Substitution lookup 15 subtable" ordmasculine
AlternateSubs2: "'aalt' Access All Alternates in Latin lookup 0 subtable" ordmasculine
EndChar
StartChar: P
Encoding: 80 80 71
Width: 592
GlyphClass: 2
Flags: W
AnchorPoint: "Anchor-1" 303 668 basechar 0
AnchorPoint: "Anchor-0" 303 0 basechar 0
LayerCount: 2
Fore
SplineSet
78 668 m 1,0,-1
 321 668 l 2,1,2
 433 668 433 668 499 618 c 128,-1,3
 565 568 565 568 565 467 c 256,4,5
 565 366 565 366 499 316 c 128,-1,6
 433 266 433 266 321 266 c 2,7,-1
 172 266 l 1,8,-1
 172 0 l 1,9,-1
 78 0 l 1,10,-1
 78 668 l 1,0,-1
469 467 m 256,12,13
 469 587 469 587 316 587 c 2,14,-1
 172 587 l 1,15,-1
 172 347 l 1,16,-1
 316 347 l 2,17,11
 469 347 469 347 469 467 c 256,12,13
EndSplineSet
EndChar
StartChar: Q
Encoding: 81 81 73
Width: 724
GlyphClass: 1
Flags: W
LayerCount: 2
Fore
SplineSet
192 32 m 128,-1,1
 121 76 121 76 82.5 154.5 c 128,-1,2
 44 233 44 233 44 334 c 256,3,4
 44 435 44 435 82.5 513.5 c 128,-1,5
 121 592 121 592 192 636 c 128,-1,6
 263 680 263 680 357 680 c 256,7,8
 451 680 451 680 522 636 c 128,-1,9
 593 592 593 592 631.5 513.5 c 128,-1,10
 670 435 670 435 670 334 c 0,11,12
 670 223 670 223 623 138 c 1,13,-1
 746 22 l 1,14,-1
 684 -44 l 1,15,-1
 567 66 l 1,16,17
 526 29 526 29 473 8.5 c 128,-1,18
 420 -12 420 -12 357 -12 c 0,19,0
 263 -12 263 -12 192 32 c 128,-1,1
436.5 82 m 128,-1,21
 474 97 474 97 502 126 c 1,22,-1
 324 294 l 1,23,-1
 386 360 l 1,24,-1
 552 204 l 1,25,26
 574 262 574 262 574 334 c 0,27,28
 574 418 574 418 545.5 478.5 c 128,-1,29
 517 539 517 539 467.5 570 c 128,-1,30
 418 601 418 601 357 601 c 256,31,32
 296 601 296 601 246.5 570 c 128,-1,33
 197 539 197 539 168.5 478.5 c 128,-1,34
 140 418 140 418 140 334 c 256,35,36
 140 250 140 250 168.5 189.5 c 128,-1,37
 197 129 197 129 246.5 98 c 128,-1,38
 296 67 296 67 357 67 c 0,39,20
 399 67 399 67 436.5 82 c 128,-1,21
EndSplineSet
EndChar
StartChar: R
Encoding: 82 82 74
Width: 614
GlyphClass: 2
Flags: W
AnchorPoint: "Anchor-1" 296 668 basechar 0
AnchorPoint: "Anchor-0" 309 0 basechar 0
LayerCount: 2
Fore
SplineSet
78 668 m 1,0,-1
 325 668 l 2,1,2
 437 668 437 668 503 619 c 128,-1,3
 569 570 569 570 569 472 c 0,4,5
 569 389 569 389 519.5 342 c 128,-1,6
 470 295 470 295 383 283 c 1,7,-1
 588 0 l 1,8,-1
 474 0 l 1,9,-1
 277 277 l 1,10,-1
 172 277 l 1,11,-1
 172 0 l 1,12,-1
 78 0 l 1,13,-1
 78 668 l 1,0,-1
434 385 m 128,-1,15
 473 412 473 412 473 472 c 256,16,17
 473 532 473 532 434 559.5 c 128,-1,18
 395 587 395 587 327 587 c 2,19,-1
 172 587 l 1,20,-1
 172 358 l 1,21,-1
 327 358 l 2,22,14
 395 358 395 358 434 385 c 128,-1,15
EndSplineSet
EndChar
StartChar: S
Encoding: 83 83 77
Width: 592
GlyphClass: 2
Flags: W
AnchorPoint: "Anchor-1" 296 668 basechar 0
AnchorPoint: "Anchor-0" 296 0 basechar 0
LayerCount: 2
Fore
SplineSet
134.5 28.5 m 128,-1,1
 63 69 63 69 38 146 c 1,2,-1
 124 177 l 1,3,4
 140 124 140 124 189.5 95.5 c 128,-1,5
 239 67 239 67 298 67 c 0,6,7
 367 67 367 67 413.5 98 c 128,-1,8
 460 129 460 129 460 186 c 0,9,10
 460 228 460 228 430.5 253 c 128,-1,11
 401 278 401 278 323 296 c 2,12,-1
 233 317 l 2,13,14
 147 337 147 337 100.5 379.5 c 128,-1,15
 54 422 54 422 54 494 c 0,16,17
 54 547 54 547 86.5 589.5 c 128,-1,18
 119 632 119 632 175 656 c 128,-1,19
 231 680 231 680 299 680 c 0,20,21
 375 680 375 680 438 648.5 c 128,-1,22
 501 617 501 617 530 555 c 1,23,-1
 444 524 l 1,24,25
 425 561 425 561 384 581 c 128,-1,26
 343 601 343 601 295 601 c 0,27,28
 234 601 234 601 191 574 c 128,-1,29
 148 547 148 547 148 497 c 0,30,31
 148 426 148 426 252 402 c 2,32,-1
 346 380 l 2,33,34
 450 355 450 355 502 312.5 c 128,-1,35
 554 270 554 270 554 187 c 0,36,37
 554 126 554 126 518.5 80.5 c 128,-1,38
 483 35 483 35 424 11.5 c 128,-1,39
 365 -12 365 -12 294 -12 c 0,40,0
 206 -12 206 -12 134.5 28.5 c 128,-1,1
EndSplineSet
EndChar
StartChar: T
Encoding: 84 84 83
Width: 558
GlyphClass: 2
Flags: W
AnchorPoint: "Anchor-1" 279 668 basechar 0
AnchorPoint: "Anchor-0" 279 0 basechar 0
LayerCount: 2
Fore
SplineSet
232 587 m 1,0,-1
 10 587 l 1,1,-1
 10 668 l 1,2,-1
 548 668 l 1,3,-1
 548 587 l 1,4,-1
 326 587 l 1,5,-1
 326 0 l 1,6,-1
 232 0 l 1,7,-1
 232 587 l 1,0,-1
EndSplineSet
EndChar
StartChar: U
Encoding: 85 85 87
Width: 690
GlyphClass: 2
Flags: W
AnchorPoint: "Anchor-3" 669 668 basechar 0
AnchorPoint: "Anchor-2" 530 10 basechar 0
AnchorPoint: "Anchor-1" 345 668 basechar 0
AnchorPoint: "Anchor-0" 345 0 basechar 0
LayerCount: 2
Fore
SplineSet
139 59 m 128,-1,1
 76 130 76 130 76 279 c 2,2,-1
 76 668 l 1,3,-1
 170 668 l 1,4,-1
 170 272 l 2,5,6
 170 170 170 170 211 119.5 c 128,-1,7
 252 69 252 69 345 69 c 256,8,9
 438 69 438 69 479 119.5 c 128,-1,10
 520 170 520 170 520 272 c 2,11,-1
 520 668 l 1,12,-1
 614 668 l 1,13,-1
 614 279 l 2,14,15
 614 130 614 130 551 59 c 128,-1,16
 488 -12 488 -12 345 -12 c 256,17,0
 202 -12 202 -12 139 59 c 128,-1,1
EndSplineSet
EndChar
StartChar: W
Encoding: 87 87 97
Width: 856
GlyphClass: 2
Flags: W
AnchorPoint: "Anchor-1" 428 668 basechar 0
AnchorPoint: "Anchor-0" 428 0 basechar 0
LayerCount: 2
Fore
SplineSet
18 668 m 1,0,-1
 121 668 l 1,1,-1
 251 116 l 1,2,-1
 373 668 l 1,3,-1
 483 668 l 1,4,-1
 605 116 l 1,5,-1
 735 668 l 1,6,-1
 838 668 l 1,7,-1
 671 0 l 1,8,-1
 557 0 l 1,9,-1
 428 552 l 1,10,-1
 299 0 l 1,11,-1
 186 0 l 1,12,-1
 18 668 l 1,0,-1
EndSplineSet
EndChar
StartChar: Y
Encoding: 89 89 103
Width: 575
GlyphClass: 2
Flags: W
AnchorPoint: "Anchor-1" 288 668 basechar 0
AnchorPoint: "Anchor-0" 288 0 basechar 0
LayerCount: 2
Fore
SplineSet
241 259 m 1,0,-1
 0 668 l 1,1,-1
 103 668 l 1,2,-1
 288 345 l 1,3,-1
 472 668 l 1,4,-1
 575 668 l 1,5,-1
 335 259 l 1,6,-1
 335 0 l 1,7,-1
 241 0 l 1,8,-1
 241 259 l 1,0,-1
EndSplineSet
EndChar
StartChar: Z
Encoding: 90 90 108
Width: 607
GlyphClass: 2
Flags: W
AnchorPoint: "Anchor-1" 304 668 basechar 0
AnchorPoint: "Anchor-0" 304 0 basechar 0
LayerCount: 2
Fore
SplineSet
44 81 m 1,0,-1
 438 587 l 1,1,-1
 59 587 l 1,2,-1
 59 668 l 1,3,-1
 548 668 l 1,4,-1
 548 587 l 1,5,-1
 156 81 l 1,6,-1
 563 81 l 1,7,-1
 563 0 l 1,8,-1
 44 0 l 1,9,-1
 44 81 l 1,0,-1
EndSplineSet
EndChar
StartChar: bracketleft
Encoding: 91 91 281
Width: 317
GlyphClass: 1
Flags: W
LayerCount: 2
Fore
SplineSet
78 708 m 1,0,-1
 284 708 l 1,1,-1
 284 634 l 1,2,-1
 159 634 l 1,3,-1
 159 -88 l 1,4,-1
 284 -88 l 1,5,-1
 284 -162 l 1,6,-1
 78 -162 l 1,7,-1
 78 708 l 1,0,-1
EndSplineSet
EndChar
StartChar: backslash
Encoding: 92 92 272
Width: 387
GlyphClass: 1
Flags: W
LayerCount: 2
Fore
SplineSet
284 -90 m 1,0,-1
 20 708 l 1,1,-1
 103 708 l 1,2,-1
 367 -90 l 1,3,-1
 284 -90 l 1,0,-1
EndSplineSet
EndChar
StartChar: bracketright
Encoding: 93 93 282
Width: 344
GlyphClass: 1
Flags: W
LayerCount: 2
Fore
SplineSet
60 -88 m 1,0,-1
 185 -88 l 1,1,-1
 185 634 l 1,2,-1
 60 634 l 1,3,-1
 60 708 l 1,4,-1
 266 708 l 1,5,-1
 266 -162 l 1,6,-1
 60 -162 l 1,7,-1
 60 -88 l 1,0,-1
EndSplineSet
EndChar
StartChar: asciicircum
Encoding: 94 94 334
Width: 552
GlyphClass: 1
Flags: W
LayerCount: 2
Fore
SplineSet
238 668 m 1,0,-1
 314 668 l 1,1,-1
 499 311 l 1,2,-1
 410 311 l 1,3,-1
 276 569 l 1,4,-1
 142 311 l 1,5,-1
 53 311 l 1,6,-1
 238 668 l 1,0,-1
EndSplineSet
EndChar
StartChar: a
Encoding: 97 97 112
Width: 525
GlyphClass: 2
Flags: W
AnchorPoint: "Anchor-2" 470 10 basechar 0
AnchorPoint: "Anchor-1" 258 496 basechar 0
AnchorPoint: "Anchor-0" 258 0 basechar 0
LayerCount: 2
Fore
SplineSet
80.5 26 m 128,-1,1
 31 64 31 64 31 129 c 0,2,3
 31 213 31 213 115.5 253.5 c 128,-1,4
 200 294 200 294 372 310 c 1,5,-1
 372 319 l 2,6,7
 372 374 372 374 343.5 405.5 c 128,-1,8
 315 437 315 437 258 437 c 0,9,10
 213 437 213 437 183.5 416.5 c 128,-1,11
 154 396 154 396 146 360 c 1,12,-1
 65 384 l 1,13,14
 85 440 85 440 136 472 c 128,-1,15
 187 504 187 504 255 504 c 0,16,17
 357 504 357 504 404.5 455 c 128,-1,18
 452 406 452 406 452 303 c 2,19,-1
 452 187 l 2,20,21
 452 94 452 94 470 0 c 1,22,-1
 393 0 l 1,23,-1
 373 68 l 1,24,25
 328 -12 328 -12 204 -12 c 0,26,0
 130 -12 130 -12 80.5 26 c 128,-1,1
330.5 90 m 128,-1,28
 372 125 372 125 372 204 c 2,29,-1
 372 243 l 1,30,31
 248 233 248 233 186 207 c 128,-1,32
 124 181 124 181 124 131 c 0,33,34
 124 96 124 96 150.5 75.5 c 128,-1,35
 177 55 177 55 223 55 c 0,36,27
 289 55 289 55 330.5 90 c 128,-1,28
EndSplineSet
Substitution2: "Single Substitution lookup 15 subtable" ordfeminine
AlternateSubs2: "'aalt' Access All Alternates in Latin lookup 0 subtable" ordfeminine
EndChar
StartChar: b
Encoding: 98 98 123
Width: 566
GlyphClass: 2
Flags: W
AnchorPoint: "Anchor-1" 285 496 basechar 0
AnchorPoint: "Anchor-0" 285 0 basechar 0
LayerCount: 2
Fore
SplineSet
219.5 11 m 128,-1,1
 179 34 179 34 156 75 c 1,2,-1
 134 0 l 1,3,-1
 72 0 l 1,4,-1
 72 708 l 1,5,-1
 156 708 l 1,6,-1
 156 418 l 1,7,8
 179 459 179 459 219.5 481.5 c 128,-1,9
 260 504 260 504 317 504 c 256,10,11
 374 504 374 504 423 473 c 128,-1,12
 472 442 472 442 501 383.5 c 128,-1,13
 530 325 530 325 530 246 c 256,14,15
 530 167 530 167 501 108.5 c 128,-1,16
 472 50 472 50 423 19 c 128,-1,17
 374 -12 374 -12 317 -12 c 256,18,0
 260 -12 260 -12 219.5 11 c 128,-1,1
398 109.5 m 128,-1,20
 436 159 436 159 436 246 c 256,21,22
 436 333 436 333 398 382.5 c 128,-1,23
 360 432 360 432 295 432 c 256,24,25
 230 432 230 432 192 382.5 c 128,-1,26
 154 333 154 333 154 246 c 256,27,28
 154 159 154 159 192 109.5 c 128,-1,29
 230 60 230 60 295 60 c 256,30,19
 360 60 360 60 398 109.5 c 128,-1,20
EndSplineSet
EndChar
StartChar: c
Encoding: 99 99 124
Width: 485
GlyphClass: 2
Flags: W
AnchorPoint: "Anchor-1" 272 496 basechar 0
AnchorPoint: "Anchor-0" 267 0 basechar 0
LayerCount: 2
Fore
SplineSet
145 21 m 128,-1,1
 93 54 93 54 64.5 112.5 c 128,-1,2
 36 171 36 171 36 246 c 0,3,4
 36 320 36 320 65.5 378.5 c 128,-1,5
 95 437 95 437 149.5 470.5 c 128,-1,6
 204 504 204 504 276 504 c 0,7,8
 339 504 339 504 388 472.5 c 128,-1,9
 437 441 437 441 463 392 c 1,10,-1
 386 364 l 1,11,12
 369 394 369 394 338.5 412 c 128,-1,13
 308 430 308 430 270 430 c 0,14,15
 209 430 209 430 168 383 c 128,-1,16
 127 336 127 336 127 247 c 0,17,18
 127 187 127 187 146.5 145.5 c 128,-1,19
 166 104 166 104 199 83 c 128,-1,20
 232 62 232 62 270 62 c 0,21,22
 309 62 309 62 340 80 c 128,-1,23
 371 98 371 98 388 127 c 1,24,-1
 465 99 l 1,25,26
 436 49 436 49 383.5 18.5 c 128,-1,27
 331 -12 331 -12 267 -12 c 0,28,0
 197 -12 197 -12 145 21 c 128,-1,1
EndSplineSet
EndChar
StartChar: d
Encoding: 100 100 129
Width: 564
GlyphClass: 2
Flags: W
AnchorPoint: "Anchor-3" 534 497 basechar 0
AnchorPoint: "Anchor-1" 279 796 basechar 0
AnchorPoint: "Anchor-0" 279 0 basechar 0
LayerCount: 2
Fore
SplineSet
143 19 m 128,-1,1
 94 50 94 50 65 108.5 c 128,-1,2
 36 167 36 167 36 246 c 256,3,4
 36 325 36 325 65 383.5 c 128,-1,5
 94 442 94 442 143 473 c 128,-1,6
 192 504 192 504 249 504 c 256,7,8
 306 504 306 504 346.5 481.5 c 128,-1,9
 387 459 387 459 410 418 c 1,10,-1
 410 708 l 1,11,-1
 494 708 l 1,12,-1
 494 187 l 2,13,14
 494 92 494 92 511 0 c 1,15,-1
 432 0 l 1,16,-1
 410 75 l 1,17,18
 389 34 389 34 347.5 11 c 128,-1,19
 306 -12 306 -12 249 -12 c 256,20,0
 192 -12 192 -12 143 19 c 128,-1,1
374 109.5 m 128,-1,22
 412 159 412 159 412 246 c 256,23,24
 412 333 412 333 374 382.5 c 128,-1,25
 336 432 336 432 271 432 c 256,26,27
 206 432 206 432 168 382.5 c 128,-1,28
 130 333 130 333 130 246 c 256,29,30
 130 159 130 159 168 109.5 c 128,-1,31
 206 60 206 60 271 60 c 256,32,21
 336 60 336 60 374 109.5 c 128,-1,22
EndSplineSet
EndChar
StartChar: e
Encoding: 101 101 133
Width: 538
GlyphClass: 2
Flags: W
AnchorPoint: "Anchor-2" 435 10 basechar 0
AnchorPoint: "Anchor-1" 281 496 basechar 0
AnchorPoint: "Anchor-0" 268 0 basechar 0
LayerCount: 2
Fore
SplineSet
148 22 m 128,-1,1
 93 56 93 56 64.5 114.5 c 128,-1,2
 36 173 36 173 36 247 c 0,3,4
 36 324 36 324 67.5 382.5 c 128,-1,5
 99 441 99 441 154 472.5 c 128,-1,6
 209 504 209 504 277 504 c 0,7,8
 353 504 353 504 407 465 c 128,-1,9
 461 426 461 426 487 361.5 c 128,-1,10
 513 297 513 297 508 225 c 1,11,-1
 124 225 l 1,12,13
 131 137 131 137 177.5 99.5 c 128,-1,14
 224 62 224 62 279 62 c 0,15,16
 357 62 357 62 395 111 c 1,17,-1
 476 87 l 1,18,19
 448 42 448 42 397 15 c 128,-1,20
 346 -12 346 -12 279 -12 c 0,21,0
 203 -12 203 -12 148 22 c 128,-1,1
401 360 m 128,-1,23
 384 392 384 392 351.5 412 c 128,-1,24
 319 432 319 432 277 432 c 0,25,26
 220 432 220 432 177.5 399 c 128,-1,27
 135 366 135 366 125 292 c 1,28,-1
 419 292 l 1,29,22
 418 328 418 328 401 360 c 128,-1,23
EndSplineSet
EndChar
StartChar: f
Encoding: 102 102 142
Width: 314
GlyphClass: 2
Flags: W
AnchorPoint: "Anchor-1" 156 796 basechar 0
AnchorPoint: "Anchor-0" 156 0 basechar 0
LayerCount: 2
Fore
SplineSet
99 429 m 1,0,-1
 15 429 l 1,1,-1
 15 496 l 1,2,-1
 99 496 l 1,3,-1
 99 582 l 2,4,5
 99 636 99 636 109.5 664.5 c 128,-1,6
 120 693 120 693 148 705.5 c 128,-1,7
 176 718 176 718 232 718 c 2,8,-1
 286 718 l 1,9,-1
 286 647 l 1,10,-1
 234 647 l 2,11,12
 202 647 202 647 192.5 634.5 c 128,-1,13
 183 622 183 622 183 583 c 2,14,-1
 183 496 l 1,15,-1
 286 496 l 1,16,-1
 286 429 l 1,17,-1
 183 429 l 1,18,-1
 183 0 l 1,19,-1
 99 0 l 1,20,-1
 99 429 l 1,0,-1
EndSplineSet
EndChar
StartChar: g
Encoding: 103 103 143
Width: 558
GlyphClass: 2
Flags: W
AnchorPoint: "Anchor-1" 278 496 basechar 0
AnchorPoint: "Anchor-0" 278 -251 basechar 0
LayerCount: 2
Fore
SplineSet
150.5 -163 m 128,-1,1
 96 -134 96 -134 78 -76 c 1,2,-1
 160 -51 l 1,3,4
 171 -84 171 -84 202 -101.5 c 128,-1,5
 233 -119 233 -119 278 -119 c 0,6,7
 337 -119 337 -119 370.5 -88.5 c 128,-1,8
 404 -58 404 -58 404 9 c 2,9,-1
 404 94 l 1,10,11
 353 9 353 9 246 9 c 0,12,13
 190 9 190 9 142 38 c 128,-1,14
 94 67 94 67 65 123 c 128,-1,15
 36 179 36 179 36 256 c 256,16,17
 36 333 36 333 65 389 c 128,-1,18
 94 445 94 445 142 474.5 c 128,-1,19
 190 504 190 504 246 504 c 0,20,21
 353 504 353 504 404 418 c 1,22,-1
 427 496 l 1,23,-1
 488 496 l 1,24,-1
 488 8 l 2,25,26
 488 -89 488 -89 430 -140.5 c 128,-1,27
 372 -192 372 -192 272 -192 c 0,28,0
 205 -192 205 -192 150.5 -163 c 128,-1,1
367.5 123 m 128,-1,30
 407 167 407 167 407 256 c 256,31,32
 407 345 407 345 367.5 388.5 c 128,-1,33
 328 432 328 432 267 432 c 0,34,35
 204 432 204 432 165.5 385.5 c 128,-1,36
 127 339 127 339 127 256 c 256,37,38
 127 173 127 173 165.5 126 c 128,-1,39
 204 79 204 79 267 79 c 0,40,29
 328 79 328 79 367.5 123 c 128,-1,30
EndSplineSet
EndChar
StartChar: h
Encoding: 104 104 147
Width: 550
GlyphClass: 2
Flags: W
AnchorPoint: "Anchor-1" 275 796 basechar 0
AnchorPoint: "Anchor-0" 275 0 basechar 0
LayerCount: 2
Fore
SplineSet
72 708 m 1,0,-1
 156 708 l 1,1,-1
 156 421 l 1,2,3
 205 504 205 504 316 504 c 0,4,5
 480 504 480 504 480 314 c 2,6,-1
 480 0 l 1,7,-1
 396 0 l 1,8,-1
 396 289 l 2,9,10
 396 357 396 357 374.5 394.5 c 128,-1,11
 353 432 353 432 287 432 c 0,12,13
 225 432 225 432 190.5 390 c 128,-1,14
 156 348 156 348 156 269 c 2,15,-1
 156 0 l 1,16,-1
 72 0 l 1,17,-1
 72 708 l 1,0,-1
EndSplineSet
EndChar
StartChar: k
Encoding: 107 107 161
Width: 492
GlyphClass: 2
Flags: W
AnchorPoint: "Anchor-1" 247 796 basechar 0
AnchorPoint: "Anchor-0" 247 0 basechar 0
LayerCount: 2
Fore
SplineSet
72 708 m 1,0,-1
 156 708 l 1,1,-1
 156 273 l 1,2,-1
 356 496 l 1,3,-1
 457 496 l 1,4,-1
 270 291 l 1,5,-1
 482 0 l 1,6,-1
 379 0 l 1,7,-1
 214 229 l 1,8,-1
 156 166 l 1,9,-1
 156 0 l 1,10,-1
 72 0 l 1,11,-1
 72 708 l 1,0,-1
EndSplineSet
EndChar
StartChar: l
Encoding: 108 108 163
Width: 262
GlyphClass: 2
Flags: W
AnchorPoint: "Anchor-3" 192 498 basechar 0
AnchorPoint: "Anchor-1" 118 796 basechar 0
AnchorPoint: "Anchor-0" 125 0 basechar 0
LayerCount: 2
Fore
SplineSet
114 10 m 128,-1,1
 89 20 89 20 78.5 45 c 128,-1,2
 68 70 68 70 68 118 c 2,3,-1
 68 708 l 1,4,-1
 152 708 l 1,5,-1
 152 128 l 2,6,7
 152 105 152 105 156 94 c 128,-1,8
 160 83 160 83 171.5 78.5 c 128,-1,9
 183 74 183 74 208 74 c 2,10,-1
 242 74 l 1,11,-1
 242 0 l 1,12,-1
 187 0 l 2,13,0
 139 0 139 0 114 10 c 128,-1,1
EndSplineSet
EndChar
StartChar: m
Encoding: 109 109 167
Width: 845
GlyphClass: 2
Flags: W
AnchorPoint: "Anchor-1" 423 496 basechar 0
AnchorPoint: "Anchor-0" 423 0 basechar 0
LayerCount: 2
Fore
SplineSet
72 496 m 1,0,-1
 134 496 l 1,1,-1
 156 421 l 1,2,3
 205 504 205 504 305 504 c 0,4,5
 413 504 413 504 448 417 c 1,6,7
 505 504 505 504 615 504 c 0,8,9
 698 504 698 504 736.5 453.5 c 128,-1,10
 775 403 775 403 775 314 c 2,11,-1
 775 0 l 1,12,-1
 691 0 l 1,13,-1
 691 289 l 2,14,15
 691 357 691 357 669.5 394.5 c 128,-1,16
 648 432 648 432 585 432 c 0,17,18
 530 432 530 432 498 389.5 c 128,-1,19
 466 347 466 347 466 269 c 2,20,-1
 466 0 l 1,21,-1
 382 0 l 1,22,-1
 382 289 l 2,23,24
 382 356 382 356 360 394 c 128,-1,25
 338 432 338 432 276 432 c 0,26,27
 221 432 221 432 188.5 389.5 c 128,-1,28
 156 347 156 347 156 269 c 2,29,-1
 156 0 l 1,30,-1
 72 0 l 1,31,-1
 72 496 l 1,0,-1
EndSplineSet
EndChar
StartChar: n
Encoding: 110 110 168
Width: 550
GlyphClass: 2
Flags: W
AnchorPoint: "Anchor-1" 275 496 basechar 0
AnchorPoint: "Anchor-0" 275 0 basechar 0
LayerCount: 2
Fore
SplineSet
72 496 m 1,0,-1
 134 496 l 1,1,-1
 156 421 l 1,2,3
 205 504 205 504 316 504 c 0,4,5
 480 504 480 504 480 314 c 2,6,-1
 480 0 l 1,7,-1
 396 0 l 1,8,-1
 396 289 l 2,9,10
 396 357 396 357 374.5 394.5 c 128,-1,11
 353 432 353 432 287 432 c 0,12,13
 225 432 225 432 190.5 390 c 128,-1,14
 156 348 156 348 156 269 c 2,15,-1
 156 0 l 1,16,-1
 72 0 l 1,17,-1
 72 496 l 1,0,-1
EndSplineSet
EndChar
StartChar: o
Encoding: 111 111 173
Width: 548
GlyphClass: 2
Flags: W
AnchorPoint: "Anchor-3" 530 496 basechar 0
AnchorPoint: "Anchor-2" 495 10 basechar 0
AnchorPoint: "Anchor-1" 274 496 basechar 0
AnchorPoint: "Anchor-0" 274 0 basechar 0
LayerCount: 2
Fore
SplineSet
159.5 16.5 m 128,-1,1
 105 45 105 45 70.5 103 c 128,-1,2
 36 161 36 161 36 246 c 256,3,4
 36 331 36 331 70.5 389 c 128,-1,5
 105 447 105 447 159.5 475.5 c 128,-1,6
 214 504 214 504 274 504 c 256,7,8
 334 504 334 504 388.5 475.5 c 128,-1,9
 443 447 443 447 477.5 389 c 128,-1,10
 512 331 512 331 512 246 c 256,11,12
 512 161 512 161 477.5 103 c 128,-1,13
 443 45 443 45 388.5 16.5 c 128,-1,14
 334 -12 334 -12 274 -12 c 256,15,0
 214 -12 214 -12 159.5 16.5 c 128,-1,1
347 82 m 128,-1,17
 381 102 381 102 401.5 143.5 c 128,-1,18
 422 185 422 185 422 246 c 256,19,20
 422 307 422 307 401.5 348.5 c 128,-1,21
 381 390 381 390 347 410 c 128,-1,22
 313 430 313 430 274 430 c 256,23,24
 235 430 235 430 201 410 c 128,-1,25
 167 390 167 390 146.5 348.5 c 128,-1,26
 126 307 126 307 126 246 c 256,27,28
 126 185 126 185 146.5 143.5 c 128,-1,29
 167 102 167 102 201 82 c 128,-1,30
 235 62 235 62 274 62 c 256,31,16
 313 62 313 62 347 82 c 128,-1,17
EndSplineSet
Substitution2: "Single Substitution lookup 15 subtable" ordmasculine
AlternateSubs2: "'aalt' Access All Alternates in Latin lookup 0 subtable" ordmasculine
EndChar
StartChar: p
Encoding: 112 112 182
Width: 566
GlyphClass: 2
Flags: W
AnchorPoint: "Anchor-1" 285 496 basechar 0
AnchorPoint: "Anchor-0" 285 0 basechar 0
LayerCount: 2
Fore
SplineSet
72 496 m 1,0,-1
 133 496 l 1,1,-1
 156 418 l 1,2,3
 179 459 179 459 219.5 481.5 c 128,-1,4
 260 504 260 504 317 504 c 256,5,6
 374 504 374 504 423 473 c 128,-1,7
 472 442 472 442 501 383.5 c 128,-1,8
 530 325 530 325 530 246 c 256,9,10
 530 167 530 167 501 108.5 c 128,-1,11
 472 50 472 50 423 19 c 128,-1,12
 374 -12 374 -12 317 -12 c 256,13,14
 260 -12 260 -12 219.5 11 c 128,-1,15
 179 34 179 34 156 75 c 1,16,-1
 156 -162 l 1,17,-1
 72 -162 l 1,18,-1
 72 496 l 1,0,-1
398 109.5 m 128,-1,20
 436 159 436 159 436 246 c 256,21,22
 436 333 436 333 398 382.5 c 128,-1,23
 360 432 360 432 295 432 c 256,24,25
 230 432 230 432 192 382.5 c 128,-1,26
 154 333 154 333 154 246 c 256,27,28
 154 159 154 159 192 109.5 c 128,-1,29
 230 60 230 60 295 60 c 256,30,19
 360 60 360 60 398 109.5 c 128,-1,20
EndSplineSet
EndChar
StartChar: q
Encoding: 113 113 184
Width: 574
GlyphClass: 2
Flags: W
AnchorPoint: "Anchor-1" 286 496 basechar 0
AnchorPoint: "Anchor-0" 286 0 basechar 0
LayerCount: 2
Fore
SplineSet
447 -140.5 m 128,-1,1
 410 -108 410 -108 410 -30 c 2,2,-1
 410 75 l 1,3,4
 389 34 389 34 347.5 11 c 128,-1,5
 306 -12 306 -12 249 -12 c 256,6,7
 192 -12 192 -12 143 19 c 128,-1,8
 94 50 94 50 65 108.5 c 128,-1,9
 36 167 36 167 36 246 c 256,10,11
 36 325 36 325 65 383.5 c 128,-1,12
 94 442 94 442 143 473 c 128,-1,13
 192 504 192 504 249 504 c 256,14,15
 306 504 306 504 346.5 481.5 c 128,-1,16
 387 459 387 459 410 418 c 1,17,-1
 433 496 l 1,18,-1
 494 496 l 1,19,-1
 494 -24 l 2,20,21
 494 -59 494 -59 510.5 -76.5 c 128,-1,22
 527 -94 527 -94 564 -94 c 0,23,24
 598 -94 598 -94 624 -82 c 1,25,-1
 624 -160 l 1,26,27
 588 -173 588 -173 544 -173 c 0,28,0
 484 -173 484 -173 447 -140.5 c 128,-1,1
374 109.5 m 128,-1,30
 412 159 412 159 412 246 c 256,31,32
 412 333 412 333 374 382.5 c 128,-1,33
 336 432 336 432 271 432 c 256,34,35
 206 432 206 432 168 382.5 c 128,-1,36
 130 333 130 333 130 246 c 256,37,38
 130 159 130 159 168 109.5 c 128,-1,39
 206 60 206 60 271 60 c 256,40,29
 336 60 336 60 374 109.5 c 128,-1,30
EndSplineSet
EndChar
StartChar: r
Encoding: 114 114 185
Width: 349
GlyphClass: 2
Flags: W
AnchorPoint: "Anchor-1" 203 496 basechar 0
AnchorPoint: "Anchor-0" 172 0 basechar 0
LayerCount: 2
Fore
SplineSet
72 496 m 1,0,-1
 133 496 l 1,1,-1
 160 404 l 1,2,3
 187 451 187 451 232 477.5 c 128,-1,4
 277 504 277 504 337 504 c 1,5,-1
 337 417 l 1,6,7
 238 417 238 417 197 366.5 c 128,-1,8
 156 316 156 316 156 213 c 2,9,-1
 156 0 l 1,10,-1
 72 0 l 1,11,-1
 72 496 l 1,0,-1
EndSplineSet
EndChar
StartChar: s
Encoding: 115 115 188
Width: 471
GlyphClass: 2
Flags: W
AnchorPoint: "Anchor-1" 236 496 basechar 0
AnchorPoint: "Anchor-0" 243 0 basechar 0
LayerCount: 2
Fore
SplineSet
112.5 19.5 m 128,-1,1
 55 51 55 51 31 112 c 1,2,-1
 112 142 l 1,3,4
 122 103 122 103 159 81 c 128,-1,5
 196 59 196 59 240 59 c 0,6,7
 290 59 290 59 323.5 80 c 128,-1,8
 357 101 357 101 357 136 c 0,9,10
 357 167 357 167 332 184 c 128,-1,11
 307 201 307 201 250 214 c 2,12,-1
 192 227 l 2,13,14
 121 243 121 243 82.5 274.5 c 128,-1,15
 44 306 44 306 44 366 c 0,16,17
 44 408 44 408 69.5 439.5 c 128,-1,18
 95 471 95 471 139 488.5 c 128,-1,19
 183 506 183 506 235 506 c 0,20,21
 300 506 300 506 352 479.5 c 128,-1,22
 404 453 404 453 426 402 c 1,23,-1
 347 373 l 1,24,25
 334 403 334 403 301.5 419 c 128,-1,26
 269 435 269 435 229 435 c 0,27,28
 186 435 186 435 157 417 c 128,-1,29
 128 399 128 399 128 368 c 0,30,31
 128 342 128 342 148 327 c 128,-1,32
 168 312 168 312 213 302 c 2,33,-1
 271 289 l 2,34,35
 357 270 357 270 399 238 c 128,-1,36
 441 206 441 206 441 140 c 0,37,38
 441 96 441 96 414.5 61.5 c 128,-1,39
 388 27 388 27 341.5 7.5 c 128,-1,40
 295 -12 295 -12 239 -12 c 0,41,0
 170 -12 170 -12 112.5 19.5 c 128,-1,1
EndSplineSet
EndChar
StartChar: t
Encoding: 116 116 194
Width: 326
GlyphClass: 2
Flags: W
AnchorPoint: "Anchor-3" 208 546 basechar 0
AnchorPoint: "Anchor-1" 162 496 basechar 0
AnchorPoint: "Anchor-0" 192 0 basechar 0
LayerCount: 2
Fore
SplineSet
147.5 9.5 m 128,-1,1
 123 19 123 19 113.5 45 c 128,-1,2
 104 71 104 71 104 124 c 2,3,-1
 104 429 l 1,4,-1
 20 429 l 1,5,-1
 20 496 l 1,6,-1
 104 496 l 1,7,-1
 104 620 l 1,8,-1
 188 620 l 1,9,-1
 188 496 l 1,10,-1
 291 496 l 1,11,-1
 291 429 l 1,12,-1
 188 429 l 1,13,-1
 188 138 l 2,14,15
 188 109 188 109 192 96 c 128,-1,16
 196 83 196 83 206 78.5 c 128,-1,17
 216 74 216 74 239 74 c 2,18,-1
 291 74 l 1,19,-1
 291 0 l 1,20,-1
 221 0 l 2,21,0
 172 0 172 0 147.5 9.5 c 128,-1,1
EndSplineSet
EndChar
StartChar: u
Encoding: 117 117 198
Width: 540
GlyphClass: 2
Flags: W
AnchorPoint: "Anchor-3" 518 496 basechar 0
AnchorPoint: "Anchor-2" 468 10 basechar 0
AnchorPoint: "Anchor-1" 270 496 basechar 0
AnchorPoint: "Anchor-0" 270 0 basechar 0
LayerCount: 2
Fore
SplineSet
108 39 m 128,-1,1
 70 90 70 90 70 180 c 2,2,-1
 70 496 l 1,3,-1
 154 496 l 1,4,-1
 154 205 l 2,5,6
 154 137 154 137 175 99.5 c 128,-1,7
 196 62 196 62 258 62 c 0,8,9
 318 62 318 62 351 103.5 c 128,-1,10
 384 145 384 145 384 224 c 2,11,-1
 384 496 l 1,12,-1
 468 496 l 1,13,-1
 468 0 l 1,14,-1
 405 0 l 1,15,-1
 384 72 l 1,16,17
 335 -12 335 -12 229 -12 c 0,18,0
 146 -12 146 -12 108 39 c 128,-1,1
EndSplineSet
EndChar
StartChar: w
Encoding: 119 119 208
Width: 684
GlyphClass: 2
Flags: W
AnchorPoint: "Anchor-1" 342 496 basechar 0
AnchorPoint: "Anchor-0" 342 0 basechar 0
LayerCount: 2
Fore
SplineSet
15 496 m 1,0,-1
 105 496 l 1,1,-1
 200 129 l 1,2,-1
 299 496 l 1,3,-1
 386 496 l 1,4,-1
 484 129 l 1,5,-1
 579 496 l 1,6,-1
 669 496 l 1,7,-1
 527 0 l 1,8,-1
 450 0 l 1,9,-1
 342 399 l 1,10,-1
 234 0 l 1,11,-1
 158 0 l 1,12,-1
 15 496 l 1,0,-1
EndSplineSet
EndChar
StartChar: x
Encoding: 120 120 213
Width: 481
GlyphClass: 2
Flags: W
AnchorPoint: "Anchor-1" 241 496 basechar 0
AnchorPoint: "Anchor-0" 241 0 basechar 0
LayerCount: 2
Fore
SplineSet
191 255 m 1,0,-1
 19 496 l 1,1,-1
 118 496 l 1,2,-1
 240 324 l 1,3,-1
 363 496 l 1,4,-1
 462 496 l 1,5,-1
 290 255 l 1,6,-1
 471 0 l 1,7,-1
 372 0 l 1,8,-1
 240 185 l 1,9,-1
 109 0 l 1,10,-1
 10 0 l 1,11,-1
 191 255 l 1,0,-1
EndSplineSet
EndChar
StartChar: y
Encoding: 121 121 214
Width: 449
GlyphClass: 2
Flags: W
AnchorPoint: "Anchor-1" 225 496 basechar 0
AnchorPoint: "Anchor-0" 225 0 basechar 0
LayerCount: 2
Fore
SplineSet
47 -88 m 1,0,-1
 88 -88 l 2,1,2
 120 -88 120 -88 136.5 -83 c 128,-1,3
 153 -78 153 -78 163.5 -63 c 128,-1,4
 174 -48 174 -48 184 -17 c 2,5,-1
 189 -1 l 1,6,-1
 10 496 l 1,7,-1
 102 496 l 1,8,-1
 229 117 l 1,9,-1
 347 496 l 1,10,-1
 439 496 l 1,11,-1
 265 -22 l 2,12,13
 246 -79 246 -79 227 -108 c 128,-1,14
 208 -137 208 -137 177 -149.5 c 128,-1,15
 146 -162 146 -162 90 -162 c 2,16,-1
 47 -162 l 1,17,-1
 47 -88 l 1,0,-1
EndSplineSet
EndChar
StartChar: z
Encoding: 122 122 219
Width: 460
GlyphClass: 2
Flags: W
AnchorPoint: "Anchor-1" 230 496 basechar 0
AnchorPoint: "Anchor-0" 230 0 basechar 0
LayerCount: 2
Fore
SplineSet
40 74 m 1,0,-1
 320 422 l 1,1,-1
 49 422 l 1,2,-1
 49 496 l 1,3,-1
 420 496 l 1,4,-1
 420 422 l 1,5,-1
 140 74 l 1,6,-1
 430 74 l 1,7,-1
 430 0 l 1,8,-1
 40 0 l 1,9,-1
 40 74 l 1,0,-1
EndSplineSet
EndChar
StartChar: braceleft
Encoding: 123 123 279
Width: 344
GlyphClass: 1
Flags: W
LayerCount: 2
Fore
SplineSet
181 -150 m 128,-1,1
 154 -138 154 -138 143.5 -113 c 128,-1,2
 133 -88 133 -88 133 -45 c 2,3,-1
 133 143 l 2,4,5
 133 193 133 193 113.5 213 c 128,-1,6
 94 233 94 233 38 237 c 1,7,-1
 38 309 l 1,8,9
 94 313 94 313 113.5 333 c 128,-1,10
 133 353 133 353 133 403 c 2,11,-1
 133 591 l 2,12,13
 133 634 133 634 143.5 659 c 128,-1,14
 154 684 154 684 181 696 c 128,-1,15
 208 708 208 708 258 708 c 2,16,-1
 310 708 l 1,17,-1
 310 637 l 1,18,-1
 264 637 l 2,19,20
 237 637 237 637 227 628 c 128,-1,21
 217 619 217 619 217 595 c 2,22,-1
 217 402 l 2,23,24
 217 344 217 344 199.5 316 c 128,-1,25
 182 288 182 288 141 276 c 1,26,-1
 141 270 l 1,27,28
 182 258 182 258 199.5 230 c 128,-1,29
 217 202 217 202 217 144 c 2,30,-1
 217 -49 l 2,31,32
 217 -73 217 -73 227 -82 c 128,-1,33
 237 -91 237 -91 264 -91 c 2,34,-1
 310 -91 l 1,35,-1
 310 -162 l 1,36,-1
 258 -162 l 2,37,0
 208 -162 208 -162 181 -150 c 128,-1,1
EndSplineSet
EndChar
StartChar: bar
Encoding: 124 124 305
Width: 237
GlyphClass: 1
Flags: W
LayerCount: 2
Fore
SplineSet
78 838 m 1,0,-1
 159 838 l 1,1,-1
 159 -162 l 1,2,-1
 78 -162 l 1,3,-1
 78 838 l 1,0,-1
EndSplineSet
EndChar
StartChar: braceright
Encoding: 125 125 280
Width: 344
GlyphClass: 1
Flags: W
LayerCount: 2
Fore
SplineSet
34 -91 m 1,0,-1
 80 -91 l 2,1,2
 107 -91 107 -91 117 -82 c 128,-1,3
 127 -73 127 -73 127 -49 c 2,4,-1
 127 144 l 2,5,6
 127 202 127 202 144.5 230 c 128,-1,7
 162 258 162 258 203 270 c 1,8,-1
 203 276 l 1,9,10
 162 288 162 288 144.5 316 c 128,-1,11
 127 344 127 344 127 402 c 2,12,-1
 127 595 l 2,13,14
 127 619 127 619 117 628 c 128,-1,15
 107 637 107 637 80 637 c 2,16,-1
 34 637 l 1,17,-1
 34 708 l 1,18,-1
 86 708 l 2,19,20
 136 708 136 708 163 696 c 128,-1,21
 190 684 190 684 200.5 659 c 128,-1,22
 211 634 211 634 211 591 c 2,23,-1
 211 403 l 2,24,25
 211 353 211 353 230.5 333 c 128,-1,26
 250 313 250 313 306 309 c 1,27,-1
 306 237 l 1,28,29
 250 233 250 233 230.5 213 c 128,-1,30
 211 193 211 193 211 143 c 2,31,-1
 211 -45 l 2,32,33
 211 -88 211 -88 200.5 -113 c 128,-1,34
 190 -138 190 -138 163 -150 c 128,-1,35
 136 -162 136 -162 86 -162 c 2,36,-1
 34 -162 l 1,37,-1
 34 -91 l 1,0,-1
EndSplineSet
EndChar
StartChar: asciitilde
Encoding: 126 126 333
Width: 555
GlyphClass: 1
Flags: W
LayerCount: 2
Fore
SplineSet
167 329 m 0,1,2
 195 329 195 329 222.5 320 c 128,-1,3
 250 311 250 311 288 295 c 0,4,5
 320 281 320 281 342.5 273.5 c 128,-1,6
 365 266 365 266 385 266 c 0,7,8
 443 266 443 266 446 341 c 1,9,-1
 515 322 l 1,10,11
 500 190 500 190 389 190 c 0,12,13
 362 190 362 190 334 199 c 128,-1,14
 306 208 306 208 268 224 c 0,15,16
 236 238 236 238 213.5 245.5 c 128,-1,17
 191 253 191 253 171 253 c 0,18,19
 113 253 113 253 110 178 c 1,20,-1
 41 197 l 1,21,0
 56 329 56 329 167 329 c 0,1,2
EndSplineSet
EndChar
StartChar: exclamdown
Encoding: 161 161 264
Width: 286
GlyphClass: 1
Flags: W
LayerCount: 2
Fore
SplineSet
98 2 m 1,0,-1
 117 303 l 1,1,-1
 169 303 l 1,2,-1
 188 2 l 1,3,-1
 188 -170 l 1,4,-1
 98 -170 l 1,5,-1
 98 2 l 1,0,-1
97 399 m 128,-1,7
 78 418 78 418 78 445 c 256,8,9
 78 472 78 472 97 491 c 128,-1,10
 116 510 116 510 143 510 c 256,11,12
 170 510 170 510 189 491 c 128,-1,13
 208 472 208 472 208 445 c 256,14,15
 208 418 208 418 189 399 c 128,-1,16
 170 380 170 380 143 380 c 256,17,6
 116 380 116 380 97 399 c 128,-1,7
EndSplineSet
EndChar
StartChar: cent
Encoding: 162 162 311
Width: 485
GlyphClass: 1
Flags: W
LayerCount: 2
Fore
SplineSet
89 72 m 128,-1,1
 36 142 36 142 36 247 c 0,2,3
 36 348 36 348 89.5 417.5 c 128,-1,4
 143 487 143 487 234 501 c 1,5,-1
 234 586 l 1,6,-1
 284 586 l 1,7,-1
 284 504 l 1,8,9
 345 502 345 502 391.5 471 c 128,-1,10
 438 440 438 440 463 393 c 1,11,-1
 386 365 l 1,12,13
 371 392 371 392 344.5 409 c 128,-1,14
 318 426 318 426 284 430 c 1,15,-1
 284 62 l 1,16,17
 319 66 319 66 345.5 83 c 128,-1,18
 372 100 372 100 388 127 c 1,19,-1
 465 99 l 1,20,21
 439 53 439 53 391 22.5 c 128,-1,22
 343 -8 343 -8 284 -12 c 1,23,-1
 284 -90 l 1,24,-1
 234 -90 l 1,25,-1
 234 -10 l 1,26,0
 142 2 142 2 89 72 c 128,-1,1
157 367 m 128,-1,28
 127 322 127 322 127 248 c 0,29,30
 127 173 127 173 157 127 c 128,-1,31
 187 81 187 81 234 67 c 1,32,-1
 234 425 l 1,33,27
 187 412 187 412 157 367 c 128,-1,28
EndSplineSet
EndChar
StartChar: sterling
Encoding: 163 163 316
Width: 610
GlyphClass: 1
Flags: W
LayerCount: 2
Fore
SplineSet
167.5 116.5 m 128,-1,1
 210 160 210 160 210 226 c 0,2,3
 210 269 210 269 187 318 c 1,4,-1
 78 318 l 1,5,-1
 78 369 l 1,6,-1
 164 369 l 1,7,8
 142 414 142 414 131 445 c 128,-1,9
 120 476 120 476 120 511 c 0,10,11
 120 592 120 592 183 636 c 128,-1,12
 246 680 246 680 341 680 c 0,13,14
 424 680 424 680 479 643 c 128,-1,15
 534 606 534 606 554 541 c 1,16,-1
 471 516 l 1,17,18
 458 565 458 565 422.5 587 c 128,-1,19
 387 609 387 609 337 609 c 0,20,21
 279 609 279 609 244 582.5 c 128,-1,22
 209 556 209 556 209 508 c 0,23,24
 209 477 209 477 220 449 c 128,-1,25
 231 421 231 421 257 369 c 1,26,-1
 461 369 l 1,27,-1
 461 318 l 1,28,-1
 280 318 l 1,29,30
 298 278 298 278 298 238 c 0,31,32
 298 190 298 190 272 153 c 128,-1,33
 246 116 246 116 202 90 c 1,34,35
 233 102 233 102 262 102 c 0,36,37
 281 102 281 102 298.5 97.5 c 128,-1,38
 316 93 316 93 339 85 c 0,39,40
 368 75 368 75 387 70.5 c 128,-1,41
 406 66 406 66 430 66 c 0,42,43
 481 66 481 66 539 91 c 1,44,-1
 564 18 l 1,45,46
 496 -12 496 -12 439 -12 c 0,47,48
 414 -12 414 -12 393.5 -7.5 c 128,-1,49
 373 -3 373 -3 340 7 c 0,50,51
 311 16 311 16 289 21 c 128,-1,52
 267 26 267 26 243 26 c 0,53,54
 184 26 184 26 109 -12 c 1,55,-1
 81 55 l 1,56,0
 125 73 125 73 167.5 116.5 c 128,-1,1
EndSplineSet
EndChar
StartChar: currency
Encoding: 164 164 312
Width: 580
GlyphClass: 1
Flags: W
LayerCount: 2
Fore
SplineSet
53 120 m 1,0,-1
 119 186 l 1,1,2
 96 215 96 215 84 250 c 128,-1,3
 72 285 72 285 72 321 c 256,4,5
 72 357 72 357 84 392 c 128,-1,6
 96 427 96 427 119 456 c 1,7,-1
 53 522 l 1,8,-1
 89 558 l 1,9,-1
 155 492 l 1,10,11
 214 539 214 539 290 539 c 256,12,13
 366 539 366 539 425 492 c 1,14,-1
 491 558 l 1,15,-1
 527 522 l 1,16,-1
 461 456 l 1,17,18
 484 427 484 427 496 392 c 128,-1,19
 508 357 508 357 508 321 c 256,20,21
 508 285 508 285 496 250 c 128,-1,22
 484 215 484 215 461 186 c 1,23,-1
 527 120 l 1,24,-1
 491 84 l 1,25,-1
 425 150 l 1,26,27
 366 103 366 103 290 103 c 256,28,29
 214 103 214 103 155 150 c 1,30,-1
 89 84 l 1,31,-1
 53 120 l 1,0,-1
361.5 198 m 128,-1,33
 394 217 394 217 413 250 c 128,-1,34
 432 283 432 283 432 321 c 256,35,36
 432 359 432 359 413 392 c 128,-1,37
 394 425 394 425 361.5 444 c 128,-1,38
 329 463 329 463 290 463 c 256,39,40
 251 463 251 463 218.5 444 c 128,-1,41
 186 425 186 425 167 392 c 128,-1,42
 148 359 148 359 148 321 c 256,43,44
 148 283 148 283 167 250 c 128,-1,45
 186 217 186 217 218.5 198 c 128,-1,46
 251 179 251 179 290 179 c 256,47,32
 329 179 329 179 361.5 198 c 128,-1,33
EndSplineSet
EndChar
StartChar: yen
Encoding: 165 165 317
Width: 575
GlyphClass: 1
Flags: W
LayerCount: 2
Fore
SplineSet
241 86 m 1,0,-1
 91 86 l 1,1,-1
 91 137 l 1,2,-1
 241 137 l 1,3,-1
 241 223 l 1,4,-1
 91 223 l 1,5,-1
 91 274 l 1,6,-1
 232 274 l 1,7,-1
 0 668 l 1,8,-1
 103 668 l 1,9,-1
 288 345 l 1,10,-1
 472 668 l 1,11,-1
 575 668 l 1,12,-1
 343 274 l 1,13,-1
 484 274 l 1,14,-1
 484 223 l 1,15,-1
 335 223 l 1,16,-1
 335 137 l 1,17,-1
 484 137 l 1,18,-1
 484 86 l 1,19,-1
 335 86 l 1,20,-1
 335 0 l 1,21,-1
 241 0 l 1,22,-1
 241 86 l 1,0,-1
EndSplineSet
EndChar
StartChar: brokenbar
Encoding: 166 166 306
Width: 237
GlyphClass: 1
Flags: W
LayerCount: 2
Fore
SplineSet
78 233 m 1,0,-1
 159 233 l 1,1,-1
 159 -162 l 1,2,-1
 78 -162 l 1,3,-1
 78 233 l 1,0,-1
78 838 m 1,4,-1
 159 838 l 1,5,-1
 159 443 l 1,6,-1
 78 443 l 1,7,-1
 78 838 l 1,4,-1
EndSplineSet
EndChar
StartChar: section
Encoding: 167 167 300
Width: 528
GlyphClass: 1
Flags: W
LayerCount: 2
Fore
SplineSet
136 -139 m 128,-1,1
 85 -105 85 -105 67 -44 c 1,2,-1
 150 -20 l 1,3,4
 171 -103 171 -103 263 -103 c 0,5,6
 307 -103 307 -103 336 -82 c 128,-1,7
 365 -61 365 -61 365 -30 c 0,8,9
 365 -1 365 -1 342.5 18.5 c 128,-1,10
 320 38 320 38 266 67 c 2,11,-1
 166 119 l 2,12,13
 94 157 94 157 62.5 193.5 c 128,-1,14
 31 230 31 230 31 282 c 0,15,16
 31 365 31 365 141 420 c 1,17,18
 108 446 108 446 94 472 c 128,-1,19
 80 498 80 498 80 531 c 0,20,21
 80 575 80 575 105.5 609 c 128,-1,22
 131 643 131 643 174 661.5 c 128,-1,23
 217 680 217 680 268 680 c 0,24,25
 342 680 342 680 393 646 c 128,-1,26
 444 612 444 612 462 551 c 1,27,-1
 379 527 l 1,28,29
 358 610 358 610 266 610 c 0,30,31
 222 610 222 610 193 589 c 128,-1,32
 164 568 164 568 164 537 c 0,33,34
 164 508 164 508 186.5 488.5 c 128,-1,35
 209 469 209 469 263 440 c 2,36,-1
 363 388 l 2,37,38
 435 350 435 350 466.5 313.5 c 128,-1,39
 498 277 498 277 498 225 c 0,40,41
 498 142 498 142 388 87 c 1,42,43
 421 61 421 61 435 35 c 128,-1,44
 449 9 449 9 449 -24 c 0,45,46
 449 -68 449 -68 423.5 -102 c 128,-1,47
 398 -136 398 -136 355 -154.5 c 128,-1,48
 312 -173 312 -173 261 -173 c 0,49,0
 187 -173 187 -173 136 -139 c 128,-1,1
392.5 168 m 128,-1,51
 415 190 415 190 415 220 c 0,52,53
 415 249 415 249 391.5 271 c 128,-1,54
 368 293 368 293 319 320 c 2,55,-1
 203 381 l 1,56,57
 159 361 159 361 136.5 339 c 128,-1,58
 114 317 114 317 114 287 c 0,59,60
 114 258 114 258 137.5 236 c 128,-1,61
 161 214 161 214 210 187 c 2,62,-1
 326 126 l 1,63,50
 370 146 370 146 392.5 168 c 128,-1,51
EndSplineSet
EndChar
StartChar: copyright
Encoding: 169 169 301
Width: 798
GlyphClass: 1
Flags: W
LayerCount: 2
Fore
SplineSet
225 33.5 m 128,-1,1
 145 80 145 80 98.5 160 c 128,-1,2
 52 240 52 240 52 334 c 256,3,4
 52 428 52 428 98.5 508 c 128,-1,5
 145 588 145 588 225 634.5 c 128,-1,6
 305 681 305 681 399 681 c 256,7,8
 493 681 493 681 573 634.5 c 128,-1,9
 653 588 653 588 699.5 508 c 128,-1,10
 746 428 746 428 746 334 c 256,11,12
 746 240 746 240 699.5 160 c 128,-1,13
 653 80 653 80 573 33.5 c 128,-1,14
 493 -13 493 -13 399 -13 c 256,15,0
 305 -13 305 -13 225 33.5 c 128,-1,1
270.5 194.5 m 128,-1,17
 224 246 224 246 224 336 c 0,18,19
 224 424 224 424 272.5 475 c 128,-1,20
 321 526 321 526 403 526 c 0,21,22
 455 526 455 526 491.5 504 c 128,-1,23
 528 482 528 482 548 444 c 1,24,-1
 481 419 l 1,25,26
 457 465 457 465 401 465 c 0,27,28
 356 465 356 465 329.5 433 c 128,-1,29
 303 401 303 401 303 336 c 0,30,31
 303 270 303 270 329.5 237.5 c 128,-1,32
 356 205 356 205 401 205 c 0,33,34
 461 205 461 205 484 247 c 1,35,-1
 550 223 l 1,36,37
 529 187 529 187 491.5 165 c 128,-1,38
 454 143 454 143 401 143 c 0,39,16
 317 143 317 143 270.5 194.5 c 128,-1,17
542.5 87 m 128,-1,41
 608 125 608 125 646 190.5 c 128,-1,42
 684 256 684 256 684 334 c 256,43,44
 684 412 684 412 646 477.5 c 128,-1,45
 608 543 608 543 542.5 581 c 128,-1,46
 477 619 477 619 399 619 c 256,47,48
 321 619 321 619 255.5 581 c 128,-1,49
 190 543 190 543 152 477.5 c 128,-1,50
 114 412 114 412 114 334 c 256,51,52
 114 256 114 256 152 190.5 c 128,-1,53
 190 125 190 125 255.5 87 c 128,-1,54
 321 49 321 49 399 49 c 256,55,40
 477 49 477 49 542.5 87 c 128,-1,41
EndSplineSet
EndChar
StartChar: ordfeminine
Encoding: 170 170 223
Width: 371
GlyphClass: 1
Flags: W
LayerCount: 2
Fore
SplineSet
80 416.5 m 128,-1,1
 53 439 53 439 53 475 c 0,2,3
 53 526 53 526 102 547 c 128,-1,4
 151 568 151 568 239 575 c 1,5,6
 239 606 239 606 229.5 622.5 c 128,-1,7
 220 639 220 639 186 639 c 0,8,9
 137 639 137 639 129 604 c 1,10,-1
 68 622 l 1,11,12
 79 653 79 653 111 670.5 c 128,-1,13
 143 688 143 688 189 688 c 0,14,15
 307 688 307 688 307 570 c 2,16,-1
 307 488 l 2,17,18
 307 455 307 455 318 400 c 1,19,-1
 260 400 l 1,20,-1
 248 439 l 1,21,22
 236 416 236 416 209 405 c 128,-1,23
 182 394 182 394 152 394 c 0,24,0
 107 394 107 394 80 416.5 c 128,-1,1
222.5 464.5 m 128,-1,26
 239 484 239 484 239 516 c 2,27,-1
 239 527 l 1,28,29
 172 519 172 519 147.5 509.5 c 128,-1,30
 123 500 123 500 123 480 c 0,31,32
 123 463 123 463 136 454 c 128,-1,33
 149 445 149 445 172 445 c 0,34,25
 206 445 206 445 222.5 464.5 c 128,-1,26
EndSplineSet
EndChar
StartChar: registered
Encoding: 174 174 302
Width: 798
GlyphClass: 1
Flags: W
LayerCount: 2
Fore
SplineSet
225 33.5 m 128,-1,1
 145 80 145 80 98.5 160 c 128,-1,2
 52 240 52 240 52 334 c 256,3,4
 52 428 52 428 98.5 508 c 128,-1,5
 145 588 145 588 225 634.5 c 128,-1,6
 305 681 305 681 399 681 c 256,7,8
 493 681 493 681 573 634.5 c 128,-1,9
 653 588 653 588 699.5 508 c 128,-1,10
 746 428 746 428 746 334 c 256,11,12
 746 240 746 240 699.5 160 c 128,-1,13
 653 80 653 80 573 33.5 c 128,-1,14
 493 -13 493 -13 399 -13 c 256,15,0
 305 -13 305 -13 225 33.5 c 128,-1,1
542.5 87 m 128,-1,17
 608 125 608 125 646 190.5 c 128,-1,18
 684 256 684 256 684 334 c 256,19,20
 684 412 684 412 646 477.5 c 128,-1,21
 608 543 608 543 542.5 581 c 128,-1,22
 477 619 477 619 399 619 c 256,23,24
 321 619 321 619 255.5 581 c 128,-1,25
 190 543 190 543 152 477.5 c 128,-1,26
 114 412 114 412 114 334 c 256,27,28
 114 256 114 256 152 190.5 c 128,-1,29
 190 125 190 125 255.5 87 c 128,-1,30
 321 49 321 49 399 49 c 256,31,16
 477 49 477 49 542.5 87 c 128,-1,17
264 529 m 1,32,-1
 396 529 l 2,33,34
 471 529 471 529 510.5 502 c 128,-1,35
 550 475 550 475 550 413 c 0,36,37
 550 371 550 371 524.5 345 c 128,-1,38
 499 319 499 319 462 310 c 1,39,-1
 570 162 l 1,40,-1
 484 162 l 1,41,-1
 382 300 l 1,42,-1
 340 300 l 1,43,-1
 340 162 l 1,44,-1
 264 162 l 1,45,-1
 264 529 l 1,32,-1
457.5 371.5 m 128,-1,47
 475 385 475 385 475 412 c 0,48,49
 475 444 475 444 455 456 c 128,-1,50
 435 468 435 468 394 468 c 2,51,-1
 340 468 l 1,52,-1
 340 358 l 1,53,-1
 399 358 l 2,54,46
 440 358 440 358 457.5 371.5 c 128,-1,47
EndSplineSet
EndChar
StartChar: degree
Encoding: 176 176 304
Width: 352
GlyphClass: 1
Flags: W
LayerCount: 2
Fore
SplineSet
108 426.5 m 128,-1,1
 77 445 77 445 58.5 476 c 128,-1,2
 40 507 40 507 40 544 c 256,3,4
 40 581 40 581 58.5 612 c 128,-1,5
 77 643 77 643 108 661.5 c 128,-1,6
 139 680 139 680 176 680 c 256,7,8
 213 680 213 680 244 661.5 c 128,-1,9
 275 643 275 643 293.5 612 c 128,-1,10
 312 581 312 581 312 544 c 256,11,12
 312 507 312 507 293.5 476 c 128,-1,13
 275 445 275 445 244 426.5 c 128,-1,14
 213 408 213 408 176 408 c 256,15,0
 139 408 139 408 108 426.5 c 128,-1,1
228 492.5 m 128,-1,17
 249 514 249 514 249 544 c 0,18,19
 249 575 249 575 228 596 c 128,-1,20
 207 617 207 617 176 617 c 0,21,22
 146 617 146 617 124.5 596 c 128,-1,23
 103 575 103 575 103 544 c 0,24,25
 103 514 103 514 124.5 492.5 c 128,-1,26
 146 471 146 471 176 471 c 0,27,16
 207 471 207 471 228 492.5 c 128,-1,17
EndSplineSet
EndChar
StartChar: plusminus
Encoding: 177 177 330
Width: 579
GlyphClass: 1
Flags: W
LayerCount: 2
Fore
SplineSet
250 270 m 1,0,-1
 53 270 l 1,1,-1
 53 350 l 1,2,-1
 250 350 l 1,3,-1
 250 496 l 1,4,-1
 330 496 l 1,5,-1
 330 350 l 1,6,-1
 526 350 l 1,7,-1
 526 270 l 1,8,-1
 330 270 l 1,9,-1
 330 124 l 1,10,-1
 250 124 l 1,11,-1
 250 270 l 1,0,-1
53 79 m 1,12,-1
 526 79 l 1,13,-1
 526 0 l 1,14,-1
 53 0 l 1,15,-1
 53 79 l 1,12,-1
EndSplineSet
EndChar
StartChar: uni00B2
Encoding: 178 178 254
Width: 382
GlyphClass: 1
Flags: W
LayerCount: 2
Fore
SplineSet
204 590 m 128,-1,1
 250 639 250 639 250 682 c 0,2,3
 250 708 250 708 234.5 721.5 c 128,-1,4
 219 735 219 735 193 735 c 0,5,6
 168 735 168 735 150.5 721 c 128,-1,7
 133 707 133 707 129 677 c 1,8,-1
 65 695 l 1,9,10
 76 737 76 737 110.5 761.5 c 128,-1,11
 145 786 145 786 196 786 c 0,12,13
 250 786 250 786 285 759.5 c 128,-1,14
 320 733 320 733 320 686 c 0,15,16
 320 633 320 633 273.5 578.5 c 128,-1,17
 227 524 227 524 134 461 c 1,18,-1
 329 461 l 1,19,-1
 329 403 l 1,20,-1
 53 403 l 1,21,-1
 53 458 l 1,22,0
 158 541 158 541 204 590 c 128,-1,1
EndSplineSet
EndChar
StartChar: uni00B3
Encoding: 179 179 255
Width: 383
GlyphClass: 1
Flags: W
LayerCount: 2
Fore
SplineSet
101.5 420.5 m 128,-1,1
 66 445 66 445 53 485 c 1,2,-1
 115 503 l 1,3,4
 133 447 133 447 192 447 c 0,5,6
 220 447 220 447 240.5 465 c 128,-1,7
 261 483 261 483 261 510 c 0,8,9
 261 543 261 543 233 558.5 c 128,-1,10
 205 574 205 574 151 572 c 1,11,-1
 151 626 l 1,12,13
 252 621 252 621 252 683 c 0,14,15
 252 709 252 709 234 722 c 128,-1,16
 216 735 216 735 190 735 c 0,17,18
 134 735 134 735 119 683 c 1,19,-1
 58 701 l 1,20,21
 71 741 71 741 106.5 763.5 c 128,-1,22
 142 786 142 786 194 786 c 256,23,24
 246 786 246 786 283.5 760.5 c 128,-1,25
 321 735 321 735 321 685 c 0,26,27
 321 659 321 659 306 636.5 c 128,-1,28
 291 614 291 614 268 602 c 1,29,30
 298 590 298 590 314 565 c 128,-1,31
 330 540 330 540 330 511 c 0,32,33
 330 458 330 458 290.5 427 c 128,-1,34
 251 396 251 396 192 396 c 0,35,0
 137 396 137 396 101.5 420.5 c 128,-1,1
EndSplineSet
EndChar
StartChar: paragraph
Encoding: 182 182 299
Width: 509
GlyphClass: 1
Flags: W
LayerCount: 2
Fore
SplineSet
78.5 359.5 m 128,-1,1
 36 411 36 411 36 479 c 0,2,3
 36 530 36 530 61.5 573.5 c 128,-1,4
 87 617 87 617 130.5 642.5 c 128,-1,5
 174 668 174 668 225 668 c 2,6,-1
 481 668 l 1,7,-1
 481 601 l 1,8,-1
 441 601 l 1,9,-1
 441 -162 l 1,10,-1
 360 -162 l 1,11,-1
 360 601 l 1,12,-1
 266 601 l 1,13,-1
 266 -162 l 1,14,-1
 185 -162 l 1,15,-1
 185 294 l 1,16,0
 121 308 121 308 78.5 359.5 c 128,-1,1
EndSplineSet
EndChar
StartChar: uni00B9
Encoding: 185 185 253
Width: 256
GlyphClass: 1
Flags: W
LayerCount: 2
Fore
SplineSet
136 683 m 1,0,-1
 53 683 l 1,1,-1
 53 730 l 1,2,3
 130 730 130 730 147 779 c 1,4,-1
 203 779 l 1,5,-1
 203 403 l 1,6,-1
 136 403 l 1,7,-1
 136 683 l 1,0,-1
EndSplineSet
EndChar
StartChar: ordmasculine
Encoding: 186 186 224
Width: 380
GlyphClass: 1
Flags: W
LayerCount: 2
Fore
SplineSet
92 432 m 128,-1,1
 52 470 52 470 52 541 c 256,2,3
 52 612 52 612 92 650 c 128,-1,4
 132 688 132 688 190 688 c 256,5,6
 248 688 248 688 288 650 c 128,-1,7
 328 612 328 612 328 541 c 256,8,9
 328 470 328 470 288 432 c 128,-1,10
 248 394 248 394 190 394 c 256,11,0
 132 394 132 394 92 432 c 128,-1,1
240 472.5 m 128,-1,13
 259 497 259 497 259 541 c 256,14,15
 259 585 259 585 240 609.5 c 128,-1,16
 221 634 221 634 190 634 c 256,17,18
 159 634 159 634 140 609.5 c 128,-1,19
 121 585 121 585 121 541 c 256,20,21
 121 497 121 497 140 472.5 c 128,-1,22
 159 448 159 448 190 448 c 256,23,12
 221 448 221 448 240 472.5 c 128,-1,13
EndSplineSet
EndChar
StartChar: onequarter
Encoding: 188 188 251
Width: 816
GlyphClass: 3
Flags: W
LayerCount: 2
Fore
SplineSet
583 668 m 1,0,-1
 671 668 l 1,1,-1
 204 0 l 1,2,-1
 115 0 l 1,3,-1
 583 668 l 1,0,-1
136 571 m 1,4,-1
 53 571 l 1,5,-1
 53 619 l 1,6,7
 130 619 130 619 147 668 c 1,8,-1
 204 668 l 1,9,-1
 204 293 l 1,10,-1
 136 293 l 1,11,-1
 136 571 l 1,4,-1
630 143 m 1,12,-1
 630 288 l 1,13,-1
 518 143 l 1,14,-1
 630 143 l 1,12,-1
630 86 m 1,15,-1
 445 86 l 1,16,-1
 445 140 l 1,17,-1
 631 375 l 1,18,-1
 698 375 l 1,19,-1
 698 143 l 1,20,-1
 763 143 l 1,21,-1
 763 86 l 1,22,-1
 698 86 l 1,23,-1
 698 0 l 1,24,-1
 630 0 l 1,25,-1
 630 86 l 1,15,-1
EndSplineSet
Ligature2: "'frac' Diagonal Fractions in Latin lookup 7 subtable" one slash four
EndChar
StartChar: onehalf
Encoding: 189 189 250
Width: 820
GlyphClass: 3
Flags: W
LayerCount: 2
Fore
SplineSet
583 668 m 1,0,-1
 671 668 l 1,1,-1
 204 0 l 1,2,-1
 115 0 l 1,3,-1
 583 668 l 1,0,-1
136 571 m 1,4,-1
 53 571 l 1,5,-1
 53 619 l 1,6,7
 130 619 130 619 147 668 c 1,8,-1
 204 668 l 1,9,-1
 204 293 l 1,10,-1
 136 293 l 1,11,-1
 136 571 l 1,4,-1
644 187.5 m 128,-1,13
 689 235 689 235 689 278 c 0,14,15
 689 304 689 304 673.5 318 c 128,-1,16
 658 332 658 332 632 332 c 0,17,18
 607 332 607 332 589 317.5 c 128,-1,19
 571 303 571 303 567 273 c 1,20,-1
 503 292 l 1,21,22
 514 334 514 334 549 358 c 128,-1,23
 584 382 584 382 635 382 c 0,24,25
 689 382 689 382 724 355.5 c 128,-1,26
 759 329 759 329 759 283 c 0,27,28
 759 229 759 229 712 174.5 c 128,-1,29
 665 120 665 120 573 58 c 1,30,-1
 767 58 l 1,31,-1
 767 0 l 1,32,-1
 492 0 l 1,33,-1
 492 54 l 1,34,12
 599 140 599 140 644 187.5 c 128,-1,13
EndSplineSet
Ligature2: "'frac' Diagonal Fractions in Latin lookup 7 subtable" one slash two
EndChar
StartChar: threequarters
Encoding: 190 190 252
Width: 867
GlyphClass: 3
Flags: W
LayerCount: 2
Fore
SplineSet
634 668 m 1,0,-1
 722 668 l 1,1,-1
 255 0 l 1,2,-1
 167 0 l 1,3,-1
 634 668 l 1,0,-1
101 314.5 m 128,-1,5
 66 339 66 339 53 379 c 1,6,-1
 115 397 l 1,7,8
 133 341 133 341 188 341 c 0,9,10
 220 341 220 341 240.5 357.5 c 128,-1,11
 261 374 261 374 261 402 c 0,12,13
 261 437 261 437 234.5 452 c 128,-1,14
 208 467 208 467 151 465 c 1,15,-1
 151 518 l 1,16,17
 205 516 205 516 228.5 531 c 128,-1,18
 252 546 252 546 252 576 c 0,19,20
 252 601 252 601 234 614.5 c 128,-1,21
 216 628 216 628 190 628 c 0,22,23
 135 628 135 628 119 575 c 1,24,-1
 58 593 l 1,25,26
 71 633 71 633 106.5 656 c 128,-1,27
 142 679 142 679 194 679 c 256,28,29
 246 679 246 679 283.5 653 c 128,-1,30
 321 627 321 627 321 577 c 0,31,32
 321 550 321 550 306.5 528.5 c 128,-1,33
 292 507 292 507 268 494 c 1,34,35
 298 483 298 483 314 458.5 c 128,-1,36
 330 434 330 434 330 404 c 0,37,38
 330 349 330 349 289 319.5 c 128,-1,39
 248 290 248 290 187 290 c 0,40,4
 136 290 136 290 101 314.5 c 128,-1,5
681 86 m 1,41,-1
 496 86 l 1,42,-1
 496 140 l 1,43,-1
 682 375 l 1,44,-1
 749 375 l 1,45,-1
 749 143 l 1,46,-1
 814 143 l 1,47,-1
 814 86 l 1,48,-1
 749 86 l 1,49,-1
 749 0 l 1,50,-1
 681 0 l 1,51,-1
 681 86 l 1,41,-1
681 143 m 1,52,-1
 681 288 l 1,53,-1
 569 143 l 1,54,-1
 681 143 l 1,52,-1
EndSplineSet
Ligature2: "'frac' Diagonal Fractions in Latin lookup 7 subtable" three slash four
EndChar
StartChar: questiondown
Encoding: 191 191 266
Width: 450
GlyphClass: 1
Flags: W
LayerCount: 2
Fore
SplineSet
126.5 -164 m 128,-1,1
 79 -146 79 -146 49.5 -109 c 128,-1,2
 20 -72 20 -72 20 -18 c 0,3,4
 20 92 20 92 145 170 c 0,5,6
 193 199 193 199 207.5 219.5 c 128,-1,7
 222 240 222 240 222 274 c 2,8,-1
 222 308 l 1,9,-1
 308 308 l 1,10,-1
 308 271 l 2,11,12
 308 236 308 236 298.5 211.5 c 128,-1,13
 289 187 289 187 264.5 163.5 c 128,-1,14
 240 140 240 140 194 111 c 0,15,16
 151 84 151 84 129.5 55.5 c 128,-1,17
 108 27 108 27 108 -10 c 0,18,19
 108 -57 108 -57 142.5 -84.5 c 128,-1,20
 177 -112 177 -112 233 -112 c 0,21,22
 295 -112 295 -112 327.5 -80.5 c 128,-1,23
 360 -49 360 -49 368 -3 c 1,24,-1
 450 -26 l 1,25,26
 435 -98 435 -98 375 -140 c 128,-1,27
 315 -182 315 -182 229 -182 c 0,28,0
 174 -182 174 -182 126.5 -164 c 128,-1,1
219 399 m 128,-1,30
 200 418 200 418 200 445 c 256,31,32
 200 472 200 472 219 491 c 128,-1,33
 238 510 238 510 265 510 c 256,34,35
 292 510 292 510 311 491 c 128,-1,36
 330 472 330 472 330 445 c 256,37,38
 330 418 330 418 311 399 c 128,-1,39
 292 380 292 380 265 380 c 256,40,29
 238 380 238 380 219 399 c 128,-1,30
EndSplineSet
EndChar
StartChar: Aring
Encoding: 197 197 10
Width: 626
GlyphClass: 2
Flags: W
AnchorPoint: "Anchor-2" 616 10 basechar 0
AnchorPoint: "Anchor-1" 313 838 basechar 0
AnchorPoint: "Anchor-0" 313 0 basechar 0
LayerCount: 2
Fore
SplineSet
216.5 678 m 128,-1,1
 204 702 204 702 204 729 c 0,2,3
 204 774 204 774 235.5 806 c 128,-1,4
 267 838 267 838 313 838 c 256,5,6
 359 838 359 838 390.5 806 c 128,-1,7
 422 774 422 774 422 729 c 0,8,9
 422 702 422 702 409.5 678.5 c 128,-1,10
 397 655 397 655 376 640 c 1,11,-1
 616 0 l 1,12,-1
 516 0 l 1,13,-1
 464 146 l 1,14,-1
 162 146 l 1,15,-1
 110 0 l 1,16,-1
 10 0 l 1,17,-1
 250 640 l 1,18,0
 229 654 229 654 216.5 678 c 128,-1,1
436 227 m 1,19,-1
 313 573 l 1,20,-1
 190 227 l 1,21,-1
 436 227 l 1,19,-1
350 692.5 m 128,-1,23
 365 707 365 707 365 729 c 256,24,25
 365 751 365 751 350 765.5 c 128,-1,26
 335 780 335 780 313 780 c 256,27,28
 291 780 291 780 276 765.5 c 128,-1,29
 261 751 261 751 261 729 c 256,30,31
 261 707 261 707 276 692.5 c 128,-1,32
 291 678 291 678 313 678 c 256,33,22
 335 678 335 678 350 692.5 c 128,-1,23
EndSplineSet
EndChar
StartChar: AE
Encoding: 198 198 12
Width: 891
GlyphClass: 2
Flags: W
AnchorPoint: "Anchor-1" 473 668 basechar 0
AnchorPoint: "Anchor-0" 473 0 basechar 0
LayerCount: 2
Fore
SplineSet
377 668 m 1,0,-1
 853 668 l 1,1,-1
 853 587 l 1,2,-1
 524 587 l 1,3,-1
 524 384 l 1,4,-1
 759 384 l 1,5,-1
 759 303 l 1,6,-1
 524 303 l 1,7,-1
 524 81 l 1,8,-1
 853 81 l 1,9,-1
 853 0 l 1,10,-1
 430 0 l 1,11,-1
 430 146 l 1,12,-1
 183 146 l 1,13,-1
 103 0 l 1,14,-1
 0 0 l 1,15,-1
 377 668 l 1,0,-1
430 227 m 1,16,-1
 430 595 l 1,17,-1
 228 227 l 1,18,-1
 430 227 l 1,16,-1
EndSplineSet
EndChar
StartChar: Ccedilla
Encoding: 199 199 17
Width: 645
GlyphClass: 2
Flags: W
AnchorPoint: "Anchor-1" 352 668 basechar 0
LayerCount: 2
Fore
SplineSet
254 -163 m 1,1,-1
 268 -128 l 1,2,3
 300 -142 300 -142 326 -142 c 0,4,5
 354 -142 354 -142 366.5 -132 c 128,-1,6
 379 -122 379 -122 379 -108 c 0,7,8
 379 -95 379 -95 369.5 -87 c 128,-1,9
 360 -79 360 -79 341 -79 c 0,10,11
 324 -79 324 -79 308 -83 c 0,12,13
 305 -84 305 -84 299 -84 c 0,14,15
 291 -84 291 -84 286 -79.5 c 128,-1,16
 281 -75 281 -75 281 -68 c 0,17,18
 281 -65 281 -65 285 -57 c 2,19,-1
 314 -11 l 1,20,21
 230 -3 230 -3 169 42.5 c 128,-1,22
 108 88 108 88 76 163.5 c 128,-1,23
 44 239 44 239 44 335 c 0,24,25
 44 438 44 438 82.5 516 c 128,-1,26
 121 594 121 594 191 637 c 128,-1,27
 261 680 261 680 355 680 c 0,28,29
 440 680 440 680 507 640.5 c 128,-1,30
 574 601 574 601 608 529 c 1,31,-1
 526 499 l 1,32,33
 502 546 502 546 457.5 573.5 c 128,-1,34
 413 601 413 601 350 601 c 0,35,36
 290 601 290 601 242.5 570.5 c 128,-1,37
 195 540 195 540 167.5 480 c 128,-1,38
 140 420 140 420 140 335 c 0,39,40
 140 253 140 253 167 192 c 128,-1,41
 194 131 194 131 242 99 c 128,-1,42
 290 67 290 67 353 67 c 256,43,44
 416 67 416 67 461 94 c 128,-1,45
 506 121 506 121 530 169 c 1,46,-1
 612 139 l 1,47,48
 578 69 578 69 511.5 30 c 128,-1,49
 445 -9 445 -9 360 -12 c 1,50,-1
 340 -45 l 1,51,52
 362 -41 362 -41 370 -41 c 0,53,54
 403 -41 403 -41 421 -59.5 c 128,-1,55
 439 -78 439 -78 439 -104 c 0,56,57
 439 -135 439 -135 413.5 -159 c 128,-1,58
 388 -183 388 -183 342 -183 c 0,59,0
 303 -183 303 -183 254 -163 c 1,1,-1
EndSplineSet
EndChar
StartChar: multiply
Encoding: 215 215 322
Width: 532
GlyphClass: 1
Flags: W
LayerCount: 2
Fore
SplineSet
55 97 m 1,0,-1
 209 250 l 1,1,-1
 55 404 l 1,2,-1
 112 462 l 1,3,-1
 266 308 l 1,4,-1
 420 462 l 1,5,-1
 477 404 l 1,6,-1
 324 250 l 1,7,-1
 477 97 l 1,8,-1
 420 39 l 1,9,-1
 266 193 l 1,10,-1
 112 39 l 1,11,-1
 55 97 l 1,0,-1
EndSplineSet
EndChar
StartChar: Oslash
Encoding: 216 216 68
Width: 714
GlyphClass: 2
Flags: W
AnchorPoint: "Anchor-3" 701 668 basechar 0
AnchorPoint: "Anchor-1" 358 668 basechar 0
AnchorPoint: "Anchor-0" 358 0 basechar 0
LayerCount: 2
Fore
SplineSet
155 59 m 1,1,-1
 100 -6 l 1,2,-1
 62 27 l 1,3,-1
 120 95 l 1,4,5
 83 141 83 141 63.5 202 c 128,-1,6
 44 263 44 263 44 334 c 0,7,8
 44 435 44 435 82.5 513.5 c 128,-1,9
 121 592 121 592 192 636 c 128,-1,10
 263 680 263 680 357 680 c 0,11,12
 477 680 477 680 559 609 c 1,13,-1
 613 673 l 1,14,-1
 652 641 l 1,15,-1
 594 573 l 1,16,17
 631 527 631 527 650.5 466 c 128,-1,18
 670 405 670 405 670 334 c 0,19,20
 670 233 670 233 631.5 154.5 c 128,-1,21
 593 76 593 76 522 32 c 128,-1,22
 451 -12 451 -12 357 -12 c 0,23,0
 237 -12 237 -12 155 59 c 1,1,-1
467.5 98 m 128,-1,25
 517 129 517 129 545.5 189.5 c 128,-1,26
 574 250 574 250 574 334 c 0,27,28
 574 434 574 434 533 502 c 1,29,-1
 212 126 l 1,30,31
 271 67 271 67 357 67 c 0,32,24
 418 67 418 67 467.5 98 c 128,-1,25
181 166 m 1,34,-1
 502 542 l 1,35,36
 443 601 443 601 357 601 c 0,37,38
 296 601 296 601 246.5 570 c 128,-1,39
 197 539 197 539 168.5 478.5 c 128,-1,40
 140 418 140 418 140 334 c 0,41,33
 140 234 140 234 181 166 c 1,34,-1
EndSplineSet
EndChar
StartChar: Thorn
Encoding: 222 222 72
Width: 592
GlyphClass: 2
Flags: W
AnchorPoint: "Anchor-1" 290 668 basechar 0
AnchorPoint: "Anchor-0" 290 0 basechar 0
LayerCount: 2
Fore
SplineSet
78 668 m 1,0,-1
 172 668 l 1,1,-1
 172 541 l 1,2,-1
 321 541 l 2,3,4
 433 541 433 541 499 491 c 128,-1,5
 565 441 565 441 565 340 c 256,6,7
 565 239 565 239 499 189 c 128,-1,8
 433 139 433 139 321 139 c 2,9,-1
 172 139 l 1,10,-1
 172 0 l 1,11,-1
 78 0 l 1,12,-1
 78 668 l 1,0,-1
469 340 m 256,14,15
 469 460 469 460 316 460 c 2,16,-1
 172 460 l 1,17,-1
 172 220 l 1,18,-1
 316 220 l 2,19,13
 469 220 469 220 469 340 c 256,14,15
EndSplineSet
EndChar
StartChar: germandbls
Encoding: 223 223 193
Width: 582
GlyphClass: 1
Flags: W
LayerCount: 2
Fore
SplineSet
294 63 m 0,1,2
 367 63 367 63 413.5 98.5 c 128,-1,3
 460 134 460 134 460 207 c 256,4,5
 460 280 460 280 403.5 323.5 c 128,-1,6
 347 367 347 367 261 367 c 2,7,-1
 249 367 l 1,8,-1
 249 440 l 1,9,10
 315 439 315 439 348 464.5 c 128,-1,11
 381 490 381 490 381 530 c 0,12,13
 381 566 381 566 354.5 588.5 c 128,-1,14
 328 611 328 611 281 611 c 0,15,16
 225 611 225 611 193.5 576.5 c 128,-1,17
 162 542 162 542 162 470 c 2,18,-1
 162 0 l 1,19,-1
 78 0 l 1,20,-1
 78 474 l 2,21,22
 78 573 78 573 128.5 626.5 c 128,-1,23
 179 680 179 680 281 680 c 0,24,25
 333 680 333 680 375.5 661 c 128,-1,26
 418 642 418 642 442 608 c 128,-1,27
 466 574 466 574 466 532 c 256,28,29
 466 490 466 490 443 458 c 128,-1,30
 420 426 420 426 377 410 c 1,31,32
 455 394 455 394 502.5 339.5 c 128,-1,33
 550 285 550 285 550 206 c 0,34,35
 550 97 550 97 480.5 42.5 c 128,-1,36
 411 -12 411 -12 305 -12 c 0,37,38
 286 -12 286 -12 276 -11 c 1,39,-1
 253 66 l 1,40,0
 274 63 274 63 294 63 c 0,1,2
EndSplineSet
EndChar
StartChar: ae
Encoding: 230 230 122
Width: 866
GlyphClass: 2
Flags: W
AnchorPoint: "Anchor-1" 437 496 basechar 0
AnchorPoint: "Anchor-0" 437 0 basechar 0
LayerCount: 2
Fore
SplineSet
83 26.5 m 128,-1,1
 31 65 31 65 31 131 c 0,2,3
 31 213 31 213 120.5 252.5 c 128,-1,4
 210 292 210 292 374 292 c 1,5,-1
 374 319 l 2,6,7
 374 374 374 374 345.5 405.5 c 128,-1,8
 317 437 317 437 260 437 c 0,9,10
 215 437 215 437 185.5 416.5 c 128,-1,11
 156 396 156 396 148 360 c 1,12,-1
 67 384 l 1,13,14
 87 440 87 440 138 472 c 128,-1,15
 189 504 189 504 257 504 c 0,16,17
 385 504 385 504 427 420 c 1,18,19
 459 460 459 460 505 482 c 128,-1,20
 551 504 551 504 605 504 c 0,21,22
 681 504 681 504 735 465 c 128,-1,23
 789 426 789 426 815 361.5 c 128,-1,24
 841 297 841 297 836 225 c 1,25,-1
 456 225 l 1,26,27
 463 136 463 136 506.5 99 c 128,-1,28
 550 62 550 62 608 62 c 0,29,30
 685 62 685 62 723 111 c 1,31,-1
 804 87 l 1,32,33
 776 42 776 42 725 15 c 128,-1,34
 674 -12 674 -12 607 -12 c 0,35,36
 541 -12 541 -12 491.5 15.5 c 128,-1,37
 442 43 442 43 413 92 c 1,38,39
 357 -12 357 -12 213 -12 c 0,40,0
 135 -12 135 -12 83 26.5 c 128,-1,1
333.5 91.5 m 128,-1,42
 374 128 374 128 374 212 c 2,43,-1
 374 225 l 1,44,45
 124 225 124 225 124 133 c 0,46,47
 124 97 124 97 150.5 76 c 128,-1,48
 177 55 177 55 227 55 c 0,49,41
 293 55 293 55 333.5 91.5 c 128,-1,42
729 360 m 128,-1,51
 712 392 712 392 679.5 412 c 128,-1,52
 647 432 647 432 605 432 c 0,53,54
 546 432 546 432 506 398 c 128,-1,55
 466 364 466 364 457 292 c 1,56,-1
 747 292 l 1,57,50
 746 328 746 328 729 360 c 128,-1,51
EndSplineSet
EndChar
StartChar: ccedilla
Encoding: 231 231 127
Width: 485
GlyphClass: 2
Flags: W
AnchorPoint: "Anchor-1" 272 496 basechar 0
LayerCount: 2
Fore
SplineSet
174 -163 m 1,1,-1
 188 -128 l 1,2,3
 220 -142 220 -142 246 -142 c 0,4,5
 274 -142 274 -142 286.5 -132 c 128,-1,6
 299 -122 299 -122 299 -108 c 0,7,8
 299 -95 299 -95 289.5 -87 c 128,-1,9
 280 -79 280 -79 261 -79 c 0,10,11
 244 -79 244 -79 228 -83 c 0,12,13
 225 -84 225 -84 219 -84 c 0,14,15
 211 -84 211 -84 206 -79.5 c 128,-1,16
 201 -75 201 -75 201 -68 c 0,17,18
 201 -65 201 -65 205 -57 c 2,19,-1
 234 -10 l 1,20,21
 143 1 143 1 89.5 71 c 128,-1,22
 36 141 36 141 36 246 c 0,23,24
 36 320 36 320 65.5 378.5 c 128,-1,25
 95 437 95 437 149.5 470.5 c 128,-1,26
 204 504 204 504 276 504 c 0,27,28
 339 504 339 504 388 472.5 c 128,-1,29
 437 441 437 441 463 392 c 1,30,-1
 386 364 l 1,31,32
 369 394 369 394 338.5 412 c 128,-1,33
 308 430 308 430 270 430 c 0,34,35
 209 430 209 430 168 383 c 128,-1,36
 127 336 127 336 127 247 c 0,37,38
 127 187 127 187 146.5 145.5 c 128,-1,39
 166 104 166 104 199 83 c 128,-1,40
 232 62 232 62 270 62 c 0,41,42
 309 62 309 62 340 80 c 128,-1,43
 371 98 371 98 388 127 c 1,44,-1
 465 99 l 1,45,46
 438 52 438 52 389 22 c 128,-1,47
 340 -8 340 -8 280 -12 c 1,48,-1
 260 -45 l 1,49,50
 282 -41 282 -41 290 -41 c 0,51,52
 323 -41 323 -41 341 -59.5 c 128,-1,53
 359 -78 359 -78 359 -104 c 0,54,55
 359 -135 359 -135 333.5 -159 c 128,-1,56
 308 -183 308 -183 262 -183 c 0,57,0
 223 -183 223 -183 174 -163 c 1,1,-1
EndSplineSet
EndChar
StartChar: eth
Encoding: 240 240 132
Width: 565
GlyphClass: 2
Flags: W
AnchorPoint: "Anchor-1" 282 796 basechar 0
AnchorPoint: "Anchor-0" 282 0 basechar 0
LayerCount: 2
Fore
SplineSet
148.5 19 m 128,-1,1
 95 50 95 50 65.5 103 c 128,-1,2
 36 156 36 156 36 218 c 0,3,4
 36 284 36 284 64 335.5 c 128,-1,5
 92 387 92 387 141 416 c 128,-1,6
 190 445 190 445 252 445 c 0,7,8
 315 445 315 445 359 420 c 128,-1,9
 403 395 403 395 428 353 c 1,10,11
 424 439 424 439 405.5 491.5 c 128,-1,12
 387 544 387 544 354 576 c 1,13,-1
 281 503 l 1,14,-1
 245 539 l 1,15,-1
 311 605 l 1,16,17
 262 631 262 631 173 631 c 1,18,-1
 173 708 l 1,19,20
 294 708 294 708 369 663 c 1,21,-1
 415 709 l 1,22,-1
 451 673 l 1,23,-1
 411 633 l 1,24,25
 463 586 463 586 489 503 c 128,-1,26
 515 420 515 420 515 316 c 0,27,28
 515 -12 515 -12 271 -12 c 0,29,0
 202 -12 202 -12 148.5 19 c 128,-1,1
377 102 m 128,-1,31
 417 145 417 145 417 215 c 256,32,33
 417 285 417 285 377 328 c 128,-1,34
 337 371 337 371 271 371 c 256,35,36
 205 371 205 371 165.5 327.5 c 128,-1,37
 126 284 126 284 126 215 c 256,38,39
 126 146 126 146 165.5 102.5 c 128,-1,40
 205 59 205 59 271 59 c 256,41,30
 337 59 337 59 377 102 c 128,-1,31
EndSplineSet
EndChar
StartChar: divide
Encoding: 247 247 323
Width: 606
GlyphClass: 1
Flags: W
LayerCount: 2
Fore
SplineSet
55 288 m 1,0,-1
 551 288 l 1,1,-1
 551 208 l 1,2,-1
 55 208 l 1,3,-1
 55 288 l 1,0,-1
257 33 m 128,-1,5
 238 52 238 52 238 79 c 0,6,7
 238 105 238 105 257 124 c 128,-1,8
 276 143 276 143 303 143 c 256,9,10
 330 143 330 143 348.5 124 c 128,-1,11
 367 105 367 105 367 79 c 0,12,13
 367 52 367 52 348.5 33 c 128,-1,14
 330 14 330 14 303 14 c 256,15,4
 276 14 276 14 257 33 c 128,-1,5
257 371.5 m 128,-1,17
 238 390 238 390 238 417 c 256,18,19
 238 444 238 444 257 463 c 128,-1,20
 276 482 276 482 303 482 c 256,21,22
 330 482 330 482 348.5 463 c 128,-1,23
 367 444 367 444 367 417 c 256,24,25
 367 390 367 390 348.5 371.5 c 128,-1,26
 330 353 330 353 303 353 c 256,27,16
 276 353 276 353 257 371.5 c 128,-1,17
EndSplineSet
EndChar
StartChar: oslash
Encoding: 248 248 179
Width: 548
GlyphClass: 2
Flags: W
AnchorPoint: "Anchor-3" 530 496 basechar 0
AnchorPoint: "Anchor-1" 274 496 basechar 0
AnchorPoint: "Anchor-0" 274 0 basechar 0
LayerCount: 2
Fore
SplineSet
197 0.5 m 128,-1,1
 159 13 159 13 127 37 c 1,2,-1
 87 -10 l 1,3,-1
 49 23 l 1,4,-1
 91 72 l 1,5,6
 36 142 36 142 36 246 c 0,7,8
 36 331 36 331 70.5 389 c 128,-1,9
 105 447 105 447 159.5 475.5 c 128,-1,10
 214 504 214 504 274 504 c 0,11,12
 313 504 313 504 350.5 492 c 128,-1,13
 388 480 388 480 419 456 c 1,14,-1
 461 506 l 1,15,-1
 499 473 l 1,16,-1
 455 422 l 1,17,18
 512 354 512 354 512 246 c 0,19,20
 512 161 512 161 477.5 103 c 128,-1,21
 443 45 443 45 388.5 16.5 c 128,-1,22
 334 -12 334 -12 274 -12 c 0,23,0
 235 -12 235 -12 197 0.5 c 128,-1,1
347 82 m 128,-1,25
 381 102 381 102 401.5 143.5 c 128,-1,26
 422 185 422 185 422 246 c 0,27,28
 422 310 422 310 398 355 c 1,29,-1
 179 98 l 1,30,31
 220 62 220 62 274 62 c 0,32,24
 313 62 313 62 347 82 c 128,-1,25
149 140 m 1,34,-1
 367 395 l 1,35,36
 328 430 328 430 274 430 c 0,37,38
 235 430 235 430 201 410 c 128,-1,39
 167 390 167 390 146.5 348.5 c 128,-1,40
 126 307 126 307 126 246 c 0,41,33
 126 181 126 181 149 140 c 1,34,-1
EndSplineSet
EndChar
StartChar: Aogonek
Encoding: 260 260 9
Width: 626
GlyphClass: 2
Flags: W
AnchorPoint: "Anchor-1" 313 668 basechar 0
AnchorPoint: "Anchor-0" 313 0 basechar 0
LayerCount: 2
Fore
SplineSet
487 -151 m 128,-1,1
 459 -129 459 -129 459 -91 c 0,2,3
 459 -32 459 -32 515 2 c 1,4,-1
 464 146 l 1,5,-1
 162 146 l 1,6,-1
 110 0 l 1,7,-1
 10 0 l 1,8,-1
 261 668 l 1,9,-1
 366 668 l 1,10,-1
 616 0 l 1,11,12
 571 -16 571 -16 550 -33 c 128,-1,13
 529 -50 529 -50 529 -74 c 0,14,15
 529 -94 529 -94 542.5 -104.5 c 128,-1,16
 556 -115 556 -115 578 -115 c 0,17,18
 599 -115 599 -115 616 -107 c 1,19,-1
 616 -161 l 1,20,21
 588 -173 588 -173 557 -173 c 0,22,0
 515 -173 515 -173 487 -151 c 128,-1,1
436 227 m 1,23,-1
 313 573 l 1,24,-1
 190 227 l 1,25,-1
 436 227 l 1,23,-1
EndSplineSet
EndChar
StartChar: aogonek
Encoding: 261 261 119
Width: 525
GlyphClass: 2
Flags: W
AnchorPoint: "Anchor-1" 258 496 basechar 0
AnchorPoint: "Anchor-0" 258 0 basechar 0
LayerCount: 2
Fore
SplineSet
338.5 -149 m 128,-1,1
 313 -125 313 -125 313 -91 c 0,2,3
 313 -28 313 -28 391 8 c 1,4,-1
 373 68 l 1,5,6
 328 -12 328 -12 204 -12 c 0,7,8
 130 -12 130 -12 80.5 26 c 128,-1,9
 31 64 31 64 31 129 c 0,10,11
 31 213 31 213 115.5 253.5 c 128,-1,12
 200 294 200 294 372 310 c 1,13,-1
 372 319 l 2,14,15
 372 374 372 374 343.5 405.5 c 128,-1,16
 315 437 315 437 258 437 c 0,17,18
 213 437 213 437 183.5 416.5 c 128,-1,19
 154 396 154 396 146 360 c 1,20,-1
 65 384 l 1,21,22
 85 440 85 440 136 472 c 128,-1,23
 187 504 187 504 255 504 c 0,24,25
 357 504 357 504 404.5 455 c 128,-1,26
 452 406 452 406 452 303 c 2,27,-1
 452 187 l 2,28,29
 452 94 452 94 470 0 c 1,30,31
 421 -17 421 -17 402 -34.5 c 128,-1,32
 383 -52 383 -52 383 -74 c 0,33,34
 383 -94 383 -94 396.5 -104.5 c 128,-1,35
 410 -115 410 -115 432 -115 c 0,36,37
 453 -115 453 -115 470 -107 c 1,38,-1
 470 -161 l 1,39,40
 436 -173 436 -173 407 -173 c 0,41,0
 364 -173 364 -173 338.5 -149 c 128,-1,1
330.5 90 m 128,-1,43
 372 125 372 125 372 204 c 2,44,-1
 372 243 l 1,45,46
 248 233 248 233 186 207 c 128,-1,47
 124 181 124 181 124 131 c 0,48,49
 124 96 124 96 150.5 75.5 c 128,-1,50
 177 55 177 55 223 55 c 0,51,42
 289 55 289 55 330.5 90 c 128,-1,43
EndSplineSet
EndChar
StartChar: Dcroat
Encoding: 272 272 21
Width: 689
GlyphClass: 1
Flags: W
LayerCount: 2
Fore
SplineSet
98 309 m 1,0,-1
 31 309 l 1,1,-1
 31 388 l 1,2,-1
 98 388 l 1,3,-1
 98 668 l 1,4,-1
 280 668 l 2,5,6
 456 668 456 668 550.5 590 c 128,-1,7
 645 512 645 512 645 335 c 0,8,9
 645 154 645 154 549 77 c 128,-1,10
 453 0 453 0 280 0 c 2,11,-1
 98 0 l 1,12,-1
 98 309 l 1,0,-1
420.5 99 m 128,-1,14
 479 119 479 119 514 175 c 128,-1,15
 549 231 549 231 549 335 c 0,16,17
 549 438 549 438 514 493.5 c 128,-1,18
 479 549 479 549 420.5 569 c 128,-1,19
 362 589 362 589 278 589 c 2,20,-1
 192 589 l 1,21,-1
 192 388 l 1,22,-1
 382 388 l 1,23,-1
 382 309 l 1,24,-1
 192 309 l 1,25,-1
 192 79 l 1,26,-1
 278 79 l 2,27,13
 362 79 362 79 420.5 99 c 128,-1,14
EndSplineSet
EndChar
StartChar: dcroat
Encoding: 273 273 131
Width: 564
GlyphClass: 1
Flags: W
LayerCount: 2
Fore
SplineSet
143 19 m 128,-1,1
 94 50 94 50 65 108.5 c 128,-1,2
 36 167 36 167 36 246 c 256,3,4
 36 325 36 325 65 383.5 c 128,-1,5
 94 442 94 442 143 473 c 128,-1,6
 192 504 192 504 249 504 c 256,7,8
 306 504 306 504 346.5 481.5 c 128,-1,9
 387 459 387 459 410 418 c 1,10,-1
 410 548 l 1,11,-1
 251 548 l 1,12,-1
 251 615 l 1,13,-1
 410 615 l 1,14,-1
 410 708 l 1,15,-1
 494 708 l 1,16,-1
 494 615 l 1,17,-1
 580 615 l 1,18,-1
 580 548 l 1,19,-1
 494 548 l 1,20,-1
 494 187 l 2,21,22
 494 92 494 92 511 0 c 1,23,-1
 432 0 l 1,24,-1
 410 75 l 1,25,26
 389 34 389 34 347.5 11 c 128,-1,27
 306 -12 306 -12 249 -12 c 256,28,0
 192 -12 192 -12 143 19 c 128,-1,1
374 109.5 m 128,-1,30
 412 159 412 159 412 246 c 256,31,32
 412 333 412 333 374 382.5 c 128,-1,33
 336 432 336 432 271 432 c 256,34,35
 206 432 206 432 168 382.5 c 128,-1,36
 130 333 130 333 130 246 c 256,37,38
 130 159 130 159 168 109.5 c 128,-1,39
 206 60 206 60 271 60 c 256,40,29
 336 60 336 60 374 109.5 c 128,-1,30
EndSplineSet
EndChar
StartChar: Eogonek
Encoding: 280 280 31
Width: 569
GlyphClass: 2
Flags: W
AnchorPoint: "Anchor-1" 284 668 basechar 0
AnchorPoint: "Anchor-0" 286 0 basechar 0
LayerCount: 2
Fore
SplineSet
78 668 m 1,0,-1
 527 668 l 1,1,-1
 527 587 l 1,2,-1
 172 587 l 1,3,-1
 172 384 l 1,4,-1
 437 384 l 1,5,-1
 437 303 l 1,6,-1
 172 303 l 1,7,-1
 172 81 l 1,8,-1
 531 81 l 1,9,-1
 531 0 l 1,10,11
 486 -16 486 -16 465 -33 c 128,-1,12
 444 -50 444 -50 444 -74 c 0,13,14
 444 -94 444 -94 457.5 -104.5 c 128,-1,15
 471 -115 471 -115 493 -115 c 0,16,17
 514 -115 514 -115 531 -107 c 1,18,-1
 531 -161 l 1,19,20
 503 -173 503 -173 472 -173 c 0,21,22
 430 -173 430 -173 402 -151 c 128,-1,23
 374 -129 374 -129 374 -91 c 0,24,25
 374 -33 374 -33 426 0 c 1,26,-1
 78 0 l 1,27,-1
 78 668 l 1,0,-1
EndSplineSet
EndChar
StartChar: eogonek
Encoding: 281 281 141
Width: 538
GlyphClass: 2
Flags: W
AnchorPoint: "Anchor-1" 281 496 basechar 0
AnchorPoint: "Anchor-0" 268 0 basechar 0
LayerCount: 2
Fore
SplineSet
303.5 -149 m 128,-1,1
 278 -125 278 -125 278 -91 c 0,2,3
 278 -46 278 -46 308 -11 c 1,4,5
 299 -12 299 -12 281 -12 c 0,6,7
 207 -12 207 -12 151.5 20 c 128,-1,8
 96 52 96 52 66 110.5 c 128,-1,9
 36 169 36 169 36 247 c 0,10,11
 36 324 36 324 67.5 382.5 c 128,-1,12
 99 441 99 441 154 472.5 c 128,-1,13
 209 504 209 504 277 504 c 0,14,15
 353 504 353 504 407 465 c 128,-1,16
 461 426 461 426 487 361.5 c 128,-1,17
 513 297 513 297 508 225 c 1,18,-1
 124 225 l 1,19,20
 131 137 131 137 177.5 99.5 c 128,-1,21
 224 62 224 62 279 62 c 0,22,23
 357 62 357 62 395 111 c 1,24,-1
 476 87 l 1,25,26
 451 48 451 48 404 18 c 0,27,28
 380 3 380 3 364 -20.5 c 128,-1,29
 348 -44 348 -44 348 -71 c 0,30,31
 348 -93 348 -93 361.5 -104 c 128,-1,32
 375 -115 375 -115 397 -115 c 0,33,34
 418 -115 418 -115 435 -107 c 1,35,-1
 435 -161 l 1,36,37
 401 -173 401 -173 372 -173 c 0,38,0
 329 -173 329 -173 303.5 -149 c 128,-1,1
401 360 m 128,-1,40
 384 392 384 392 351.5 412 c 128,-1,41
 319 432 319 432 277 432 c 0,42,43
 220 432 220 432 177.5 399 c 128,-1,44
 135 366 135 366 125 292 c 1,45,-1
 419 292 l 1,46,39
 418 328 418 328 401 360 c 128,-1,40
EndSplineSet
EndChar
StartChar: Hbar
Encoding: 294 294 38
Width: 694
GlyphClass: 1
Flags: W
LayerCount: 2
Fore
SplineSet
78 506 m 1,0,-1
 11 506 l 1,1,-1
 11 582 l 1,2,-1
 78 582 l 1,3,-1
 78 668 l 1,4,-1
 172 668 l 1,5,-1
 172 582 l 1,6,-1
 522 582 l 1,7,-1
 522 668 l 1,8,-1
 616 668 l 1,9,-1
 616 582 l 1,10,-1
 683 582 l 1,11,-1
 683 506 l 1,12,-1
 616 506 l 1,13,-1
 616 0 l 1,14,-1
 522 0 l 1,15,-1
 522 303 l 1,16,-1
 172 303 l 1,17,-1
 172 0 l 1,18,-1
 78 0 l 1,19,-1
 78 506 l 1,0,-1
522 384 m 1,20,-1
 522 506 l 1,21,-1
 172 506 l 1,22,-1
 172 384 l 1,23,-1
 522 384 l 1,20,-1
EndSplineSet
EndChar
StartChar: hbar
Encoding: 295 295 148
Width: 550
GlyphClass: 1
Flags: W
LayerCount: 2
Fore
SplineSet
72 548 m 1,0,-1
 -14 548 l 1,1,-1
 -14 615 l 1,2,-1
 72 615 l 1,3,-1
 72 708 l 1,4,-1
 156 708 l 1,5,-1
 156 615 l 1,6,-1
 315 615 l 1,7,-1
 315 548 l 1,8,-1
 156 548 l 1,9,-1
 156 421 l 1,10,11
 205 504 205 504 316 504 c 0,12,13
 480 504 480 504 480 314 c 2,14,-1
 480 0 l 1,15,-1
 396 0 l 1,16,-1
 396 289 l 2,17,18
 396 357 396 357 374.5 394.5 c 128,-1,19
 353 432 353 432 287 432 c 0,20,21
 225 432 225 432 190.5 390 c 128,-1,22
 156 348 156 348 156 269 c 2,23,-1
 156 0 l 1,24,-1
 72 0 l 1,25,-1
 72 548 l 1,0,-1
EndSplineSet
EndChar
StartChar: Iogonek
Encoding: 302 302 47
Width: 392
GlyphClass: 2
Flags: W
AnchorPoint: "Anchor-1" 196 668 basechar 0
AnchorPoint: "Anchor-0" 196 0 basechar 0
LayerCount: 2
Fore
SplineSet
55 70 m 1,0,-1
 149 70 l 1,1,-1
 149 598 l 1,2,-1
 55 598 l 1,3,-1
 55 668 l 1,4,-1
 337 668 l 1,5,-1
 337 598 l 1,6,-1
 243 598 l 1,7,-1
 243 70 l 1,8,-1
 337 70 l 1,9,-1
 337 0 l 1,10,11
 292 -16 292 -16 271 -33 c 128,-1,12
 250 -50 250 -50 250 -74 c 0,13,14
 250 -94 250 -94 263.5 -104.5 c 128,-1,15
 277 -115 277 -115 299 -115 c 0,16,17
 320 -115 320 -115 337 -107 c 1,18,-1
 337 -161 l 1,19,20
 309 -173 309 -173 278 -173 c 0,21,22
 236 -173 236 -173 208 -151 c 128,-1,23
 180 -129 180 -129 180 -91 c 0,24,25
 180 -33 180 -33 232 0 c 1,26,-1
 55 0 l 1,27,-1
 55 70 l 1,0,-1
EndSplineSet
EndChar
StartChar: iogonek
Encoding: 303 303 156
Width: 252
GlyphClass: 2
Flags: W
AnchorPoint: "Anchor-1" 128 714 basechar 0
AnchorPoint: "Anchor-0" 119 0 basechar 0
LayerCount: 2
Fore
SplineSet
84.5 608.5 m 128,-1,1
 66 627 66 627 66 652 c 0,2,3
 66 678 66 678 84.5 696 c 128,-1,4
 103 714 103 714 128 714 c 0,5,6
 154 714 154 714 172 696 c 128,-1,7
 190 678 190 678 190 652 c 0,8,9
 190 627 190 627 172 608.5 c 128,-1,10
 154 590 154 590 128 590 c 0,11,0
 103 590 103 590 84.5 608.5 c 128,-1,1
46.5 -149 m 128,-1,13
 21 -125 21 -125 21 -91 c 0,14,15
 21 -59 21 -59 39.5 -35.5 c 128,-1,16
 58 -12 58 -12 94 6 c 1,17,-1
 94 429 l 1,18,-1
 25 429 l 1,19,-1
 25 496 l 1,20,-1
 178 496 l 1,21,-1
 178 0 l 1,22,23
 129 -17 129 -17 110 -34.5 c 128,-1,24
 91 -52 91 -52 91 -74 c 0,25,26
 91 -94 91 -94 104.5 -104.5 c 128,-1,27
 118 -115 118 -115 140 -115 c 0,28,29
 161 -115 161 -115 178 -107 c 1,30,-1
 178 -161 l 1,31,32
 144 -173 144 -173 115 -173 c 0,33,12
 72 -173 72 -173 46.5 -149 c 128,-1,13
EndSplineSet
EndChar
StartChar: dotlessi
Encoding: 305 305 150
Width: 252
GlyphClass: 2
Flags: W
AnchorPoint: "Anchor-2" 178 10 basechar 0
AnchorPoint: "Anchor-1" 128 496 basechar 0
AnchorPoint: "Anchor-0" 119 0 basechar 0
LayerCount: 2
Fore
SplineSet
94 429 m 1,0,-1
 25 429 l 1,1,-1
 25 496 l 1,2,-1
 178 496 l 1,3,-1
 178 0 l 1,4,-1
 94 0 l 1,5,-1
 94 429 l 1,0,-1
EndSplineSet
EndChar
StartChar: Lslash
Encoding: 321 321 55
Width: 571
GlyphClass: 1
Flags: W
LayerCount: 2
Fore
SplineSet
108 246 m 1,0,-1
 9 188 l 1,1,-1
 9 268 l 1,2,-1
 108 326 l 1,3,-1
 108 668 l 1,4,-1
 202 668 l 1,5,-1
 202 382 l 1,6,-1
 388 491 l 1,7,-1
 388 411 l 1,8,-1
 202 302 l 1,9,-1
 202 81 l 1,10,-1
 561 81 l 1,11,-1
 561 0 l 1,12,-1
 108 0 l 1,13,-1
 108 246 l 1,0,-1
EndSplineSet
EndChar
StartChar: lslash
Encoding: 322 322 166
Width: 296
GlyphClass: 1
Flags: W
LayerCount: 2
Fore
SplineSet
134 10 m 128,-1,1
 109 20 109 20 98.5 45 c 128,-1,2
 88 70 88 70 88 118 c 2,3,-1
 88 269 l 1,4,-1
 27 232 l 1,5,-1
 27 303 l 1,6,-1
 88 340 l 1,7,-1
 88 708 l 1,8,-1
 172 708 l 1,9,-1
 172 391 l 1,10,-1
 258 443 l 1,11,-1
 258 372 l 1,12,-1
 172 320 l 1,13,-1
 172 128 l 2,14,15
 172 105 172 105 176 94 c 128,-1,16
 180 83 180 83 191.5 78.5 c 128,-1,17
 203 74 203 74 228 74 c 2,18,-1
 262 74 l 1,19,-1
 262 0 l 1,20,-1
 207 0 l 2,21,0
 159 0 159 0 134 10 c 128,-1,1
EndSplineSet
EndChar
StartChar: OE
Encoding: 338 338 70
Width: 1006
GlyphClass: 2
Flags: W
AnchorPoint: "Anchor-1" 510 668 basechar 0
AnchorPoint: "Anchor-0" 510 0 basechar 0
LayerCount: 2
Fore
SplineSet
184.5 32.5 m 128,-1,1
 117 77 117 77 80.5 155.5 c 128,-1,2
 44 234 44 234 44 335 c 0,3,4
 44 435 44 435 80.5 513.5 c 128,-1,5
 117 592 117 592 184.5 636 c 128,-1,6
 252 680 252 680 342 680 c 0,7,8
 405 680 405 680 457 656 c 128,-1,9
 509 632 509 632 545 587 c 1,10,-1
 545 668 l 1,11,-1
 964 668 l 1,12,-1
 964 587 l 1,13,-1
 635 587 l 1,14,-1
 635 384 l 1,15,-1
 874 384 l 1,16,-1
 874 303 l 1,17,-1
 635 303 l 1,18,-1
 635 81 l 1,19,-1
 968 81 l 1,20,-1
 968 0 l 1,21,-1
 545 0 l 1,22,-1
 545 82 l 1,23,24
 509 37 509 37 457 12.5 c 128,-1,25
 405 -12 405 -12 342 -12 c 0,26,0
 252 -12 252 -12 184.5 32.5 c 128,-1,1
446 97.5 m 128,-1,28
 492 128 492 128 518.5 188.5 c 128,-1,29
 545 249 545 249 545 335 c 256,30,31
 545 421 545 421 518.5 481 c 128,-1,32
 492 541 492 541 446 571 c 128,-1,33
 400 601 400 601 342 601 c 256,34,35
 284 601 284 601 238.5 571 c 128,-1,36
 193 541 193 541 166.5 481 c 128,-1,37
 140 421 140 421 140 335 c 256,38,39
 140 249 140 249 166.5 188.5 c 128,-1,40
 193 128 193 128 238.5 97.5 c 128,-1,41
 284 67 284 67 342 67 c 256,42,27
 400 67 400 67 446 97.5 c 128,-1,28
EndSplineSet
EndChar
StartChar: oe
Encoding: 339 339 181
Width: 924
GlyphClass: 2
Flags: W
AnchorPoint: "Anchor-1" 462 496 basechar 0
AnchorPoint: "Anchor-0" 462 0 basechar 0
LayerCount: 2
Fore
SplineSet
548.5 15 m 128,-1,1
 498 42 498 42 467 91 c 1,2,3
 435 40 435 40 383.5 14 c 128,-1,4
 332 -12 332 -12 274 -12 c 0,5,6
 214 -12 214 -12 159.5 16.5 c 128,-1,7
 105 45 105 45 70.5 103 c 128,-1,8
 36 161 36 161 36 246 c 256,9,10
 36 331 36 331 70.5 389 c 128,-1,11
 105 447 105 447 159.5 475.5 c 128,-1,12
 214 504 214 504 274 504 c 0,13,14
 332 504 332 504 383.5 478 c 128,-1,15
 435 452 435 452 468 401 c 1,16,17
 500 450 500 450 551 477 c 128,-1,18
 602 504 602 504 663 504 c 0,19,20
 739 504 739 504 793 465 c 128,-1,21
 847 426 847 426 873 361.5 c 128,-1,22
 899 297 899 297 894 225 c 1,23,-1
 510 225 l 1,24,25
 517 137 517 137 563.5 99.5 c 128,-1,26
 610 62 610 62 665 62 c 0,27,28
 743 62 743 62 781 111 c 1,29,-1
 862 87 l 1,30,31
 834 42 834 42 783 15 c 128,-1,32
 732 -12 732 -12 665 -12 c 0,33,0
 599 -12 599 -12 548.5 15 c 128,-1,1
347 82 m 128,-1,35
 381 102 381 102 401.5 143.5 c 128,-1,36
 422 185 422 185 422 246 c 256,37,38
 422 307 422 307 401.5 348.5 c 128,-1,39
 381 390 381 390 347 410 c 128,-1,40
 313 430 313 430 274 430 c 256,41,42
 235 430 235 430 201 410 c 128,-1,43
 167 390 167 390 146.5 348.5 c 128,-1,44
 126 307 126 307 126 246 c 256,45,46
 126 185 126 185 146.5 143.5 c 128,-1,47
 167 102 167 102 201 82 c 128,-1,48
 235 62 235 62 274 62 c 256,49,34
 313 62 313 62 347 82 c 128,-1,35
787 360 m 128,-1,51
 770 392 770 392 737.5 412 c 128,-1,52
 705 432 705 432 663 432 c 0,53,54
 606 432 606 432 563.5 399 c 128,-1,55
 521 366 521 366 511 292 c 1,56,-1
 805 292 l 1,57,50
 804 328 804 328 787 360 c 128,-1,51
EndSplineSet
EndChar
StartChar: Scedilla
Encoding: 350 350 80
Width: 592
GlyphClass: 2
Flags: W
AnchorPoint: "Anchor-1" 296 668 basechar 0
LayerCount: 2
Fore
SplineSet
203 -163 m 1,1,-1
 217 -128 l 1,2,3
 249 -142 249 -142 275 -142 c 0,4,5
 303 -142 303 -142 315.5 -132 c 128,-1,6
 328 -122 328 -122 328 -108 c 0,7,8
 328 -95 328 -95 318.5 -87 c 128,-1,9
 309 -79 309 -79 290 -79 c 0,10,11
 273 -79 273 -79 257 -83 c 0,12,13
 254 -84 254 -84 248 -84 c 0,14,15
 240 -84 240 -84 235 -79.5 c 128,-1,16
 230 -75 230 -75 230 -68 c 0,17,18
 230 -65 230 -65 234 -57 c 2,19,-1
 263 -11 l 1,20,21
 184 -4 184 -4 122.5 36 c 128,-1,22
 61 76 61 76 38 146 c 1,23,-1
 124 177 l 1,24,25
 140 124 140 124 189.5 95.5 c 128,-1,26
 239 67 239 67 298 67 c 0,27,28
 367 67 367 67 413.5 98 c 128,-1,29
 460 129 460 129 460 186 c 0,30,31
 460 228 460 228 430.5 253 c 128,-1,32
 401 278 401 278 323 296 c 2,33,-1
 233 317 l 2,34,35
 147 337 147 337 100.5 379.5 c 128,-1,36
 54 422 54 422 54 494 c 0,37,38
 54 547 54 547 86.5 589.5 c 128,-1,39
 119 632 119 632 175 656 c 128,-1,40
 231 680 231 680 299 680 c 0,41,42
 375 680 375 680 438 648.5 c 128,-1,43
 501 617 501 617 530 555 c 1,44,-1
 444 524 l 1,45,46
 425 561 425 561 384 581 c 128,-1,47
 343 601 343 601 295 601 c 0,48,49
 234 601 234 601 191 574 c 128,-1,50
 148 547 148 547 148 497 c 0,51,52
 148 426 148 426 252 402 c 2,53,-1
 346 380 l 2,54,55
 450 355 450 355 502 312.5 c 128,-1,56
 554 270 554 270 554 187 c 0,57,58
 554 128 554 128 521 84 c 128,-1,59
 488 40 488 40 432.5 15.5 c 128,-1,60
 377 -9 377 -9 309 -12 c 1,61,-1
 289 -45 l 1,62,63
 311 -41 311 -41 319 -41 c 0,64,65
 352 -41 352 -41 370 -59.5 c 128,-1,66
 388 -78 388 -78 388 -104 c 0,67,68
 388 -135 388 -135 362.5 -159 c 128,-1,69
 337 -183 337 -183 291 -183 c 0,70,0
 252 -183 252 -183 203 -163 c 1,1,-1
EndSplineSet
Substitution2: "'locl' Localized Forms in Latin lookup 4 subtable" uni0218
AlternateSubs2: "'aalt' Access All Alternates in Latin lookup 0 subtable" uni0218
EndChar
StartChar: scedilla
Encoding: 351 351 191
Width: 471
GlyphClass: 2
Flags: W
AnchorPoint: "Anchor-1" 236 496 basechar 0
LayerCount: 2
Fore
SplineSet
150 -163 m 1,1,-1
 164 -128 l 1,2,3
 196 -142 196 -142 222 -142 c 0,4,5
 250 -142 250 -142 262.5 -132 c 128,-1,6
 275 -122 275 -122 275 -108 c 0,7,8
 275 -95 275 -95 265.5 -87 c 128,-1,9
 256 -79 256 -79 237 -79 c 0,10,11
 220 -79 220 -79 204 -83 c 0,12,13
 201 -84 201 -84 195 -84 c 0,14,15
 187 -84 187 -84 182 -79.5 c 128,-1,16
 177 -75 177 -75 177 -68 c 0,17,18
 177 -65 177 -65 181 -57 c 2,19,-1
 210 -11 l 1,20,21
 149 -5 149 -5 100.5 26.5 c 128,-1,22
 52 58 52 58 31 112 c 1,23,-1
 112 142 l 1,24,25
 122 103 122 103 159 81 c 128,-1,26
 196 59 196 59 240 59 c 0,27,28
 290 59 290 59 323.5 80 c 128,-1,29
 357 101 357 101 357 136 c 0,30,31
 357 167 357 167 332 184 c 128,-1,32
 307 201 307 201 250 214 c 2,33,-1
 192 227 l 2,34,35
 121 243 121 243 82.5 274.5 c 128,-1,36
 44 306 44 306 44 366 c 0,37,38
 44 408 44 408 69.5 439.5 c 128,-1,39
 95 471 95 471 139 488.5 c 128,-1,40
 183 506 183 506 235 506 c 0,41,42
 300 506 300 506 352 479.5 c 128,-1,43
 404 453 404 453 426 402 c 1,44,-1
 347 373 l 1,45,46
 334 403 334 403 301.5 419 c 128,-1,47
 269 435 269 435 229 435 c 0,48,49
 186 435 186 435 157 417 c 128,-1,50
 128 399 128 399 128 368 c 0,51,52
 128 342 128 342 148 327 c 128,-1,53
 168 312 168 312 213 302 c 2,54,-1
 271 289 l 2,55,56
 357 270 357 270 399 238 c 128,-1,57
 441 206 441 206 441 140 c 0,58,59
 441 77 441 77 388.5 35.5 c 128,-1,60
 336 -6 336 -6 257 -11 c 1,61,-1
 236 -45 l 1,62,63
 258 -41 258 -41 266 -41 c 0,64,65
 299 -41 299 -41 317 -59.5 c 128,-1,66
 335 -78 335 -78 335 -104 c 0,67,68
 335 -135 335 -135 309.5 -159 c 128,-1,69
 284 -183 284 -183 238 -183 c 0,70,0
 199 -183 199 -183 150 -163 c 1,1,-1
EndSplineSet
Substitution2: "'locl' Localized Forms in Latin lookup 4 subtable" uni0219
AlternateSubs2: "'aalt' Access All Alternates in Latin lookup 0 subtable" uni0219
EndChar
StartChar: uni0162
Encoding: 354 354 85
Width: 558
GlyphClass: 2
Flags: W
AnchorPoint: "Anchor-1" 279 668 basechar 0
LayerCount: 2
Fore
SplineSet
232 587 m 1,0,-1
 10 587 l 1,1,-1
 10 668 l 1,2,-1
 548 668 l 1,3,-1
 548 587 l 1,4,-1
 326 587 l 1,5,-1
 326 0 l 1,6,-1
 303 0 l 1,7,-1
 275 -45 l 1,8,9
 297 -41 297 -41 305 -41 c 0,10,11
 338 -41 338 -41 356 -59.5 c 128,-1,12
 374 -78 374 -78 374 -104 c 0,13,14
 374 -135 374 -135 348.5 -159 c 128,-1,15
 323 -183 323 -183 277 -183 c 0,16,17
 238 -183 238 -183 189 -163 c 1,18,-1
 203 -128 l 1,19,20
 235 -142 235 -142 261 -142 c 0,21,22
 289 -142 289 -142 301.5 -132 c 128,-1,23
 314 -122 314 -122 314 -108 c 0,24,25
 314 -95 314 -95 304.5 -87 c 128,-1,26
 295 -79 295 -79 276 -79 c 0,27,28
 259 -79 259 -79 243 -83 c 0,29,30
 240 -84 240 -84 234 -84 c 0,31,32
 226 -84 226 -84 221 -79.5 c 128,-1,33
 216 -75 216 -75 216 -68 c 0,34,35
 216 -65 216 -65 220 -57 c 2,36,-1
 255 0 l 1,37,-1
 232 0 l 1,38,-1
 232 587 l 1,0,-1
EndSplineSet
Substitution2: "'locl' Localized Forms in Latin lookup 4 subtable" uni021A
AlternateSubs2: "'aalt' Access All Alternates in Latin lookup 0 subtable" uni021A
EndChar
StartChar: uni0163
Encoding: 355 355 196
Width: 326
GlyphClass: 2
Flags: W
AnchorPoint: "Anchor-3" 208 546 basechar 0
AnchorPoint: "Anchor-1" 162 496 basechar 0
LayerCount: 2
Fore
SplineSet
99 -163 m 1,1,-1
 113 -128 l 1,2,3
 145 -142 145 -142 171 -142 c 0,4,5
 199 -142 199 -142 211.5 -132 c 128,-1,6
 224 -122 224 -122 224 -108 c 0,7,8
 224 -95 224 -95 214.5 -87 c 128,-1,9
 205 -79 205 -79 186 -79 c 0,10,11
 169 -79 169 -79 153 -83 c 0,12,13
 150 -84 150 -84 144 -84 c 0,14,15
 136 -84 136 -84 131 -79.5 c 128,-1,16
 126 -75 126 -75 126 -68 c 0,17,18
 126 -65 126 -65 130 -57 c 2,19,-1
 168 4 l 1,20,21
 131 11 131 11 117.5 37 c 128,-1,22
 104 63 104 63 104 124 c 2,23,-1
 104 429 l 1,24,-1
 20 429 l 1,25,-1
 20 496 l 1,26,-1
 104 496 l 1,27,-1
 104 620 l 1,28,-1
 188 620 l 1,29,-1
 188 496 l 1,30,-1
 291 496 l 1,31,-1
 291 429 l 1,32,-1
 188 429 l 1,33,-1
 188 138 l 2,34,35
 188 109 188 109 192 96 c 128,-1,36
 196 83 196 83 206 78.5 c 128,-1,37
 216 74 216 74 239 74 c 2,38,-1
 291 74 l 1,39,-1
 291 0 l 1,40,-1
 221 0 l 1,41,-1
 213 0 l 1,42,-1
 185 -45 l 1,43,44
 207 -41 207 -41 215 -41 c 0,45,46
 248 -41 248 -41 266 -59.5 c 128,-1,47
 284 -78 284 -78 284 -104 c 0,48,49
 284 -135 284 -135 258.5 -159 c 128,-1,50
 233 -183 233 -183 187 -183 c 0,51,0
 148 -183 148 -183 99 -163 c 1,1,-1
EndSplineSet
Substitution2: "'locl' Localized Forms in Latin lookup 4 subtable" uni021B
AlternateSubs2: "'aalt' Access All Alternates in Latin lookup 0 subtable" uni021B
EndChar
StartChar: Uring
Encoding: 366 366 95
Width: 690
GlyphClass: 2
Flags: W
AnchorPoint: "Anchor-3" 669 668 basechar 0
AnchorPoint: "Anchor-2" 530 10 basechar 0
AnchorPoint: "Anchor-1" 345 888 basechar 0
AnchorPoint: "Anchor-0" 345 0 basechar 0
LayerCount: 2
Fore
SplineSet
139 59 m 128,-1,1
 76 130 76 130 76 279 c 2,2,-1
 76 668 l 1,3,-1
 170 668 l 1,4,-1
 170 272 l 2,5,6
 170 170 170 170 211 119.5 c 128,-1,7
 252 69 252 69 345 69 c 256,8,9
 438 69 438 69 479 119.5 c 128,-1,10
 520 170 520 170 520 272 c 2,11,-1
 520 668 l 1,12,-1
 614 668 l 1,13,-1
 614 279 l 2,14,15
 614 130 614 130 551 59 c 128,-1,16
 488 -12 488 -12 345 -12 c 256,17,0
 202 -12 202 -12 139 59 c 128,-1,1
268 702.5 m 128,-1,19
 236 735 236 735 236 779 c 256,20,21
 236 823 236 823 268 855.5 c 128,-1,22
 300 888 300 888 345 888 c 256,23,24
 390 888 390 888 422 855.5 c 128,-1,25
 454 823 454 823 454 779 c 256,26,27
 454 735 454 735 422 702.5 c 128,-1,28
 390 670 390 670 345 670 c 256,29,18
 300 670 300 670 268 702.5 c 128,-1,19
382 743 m 128,-1,31
 397 758 397 758 397 779 c 256,32,33
 397 800 397 800 382 815 c 128,-1,34
 367 830 367 830 345 830 c 256,35,36
 323 830 323 830 308 815 c 128,-1,37
 293 800 293 800 293 779 c 256,38,39
 293 758 293 758 308 743 c 128,-1,40
 323 728 323 728 345 728 c 256,41,30
 367 728 367 728 382 743 c 128,-1,31
EndSplineSet
EndChar
StartChar: Uogonek
Encoding: 370 370 94
Width: 690
GlyphClass: 2
Flags: W
AnchorPoint: "Anchor-3" 669 668 basechar 0
AnchorPoint: "Anchor-1" 345 668 basechar 0
AnchorPoint: "Anchor-0" 345 0 basechar 0
LayerCount: 2
Fore
SplineSet
398.5 -149 m 128,-1,1
 373 -125 373 -125 373 -91 c 0,2,3
 373 -45 373 -45 404 -9 c 1,4,5
 371 -12 371 -12 340 -12 c 0,6,7
 214 -12 214 -12 145 53 c 128,-1,8
 76 118 76 118 76 279 c 2,9,-1
 76 668 l 1,10,-1
 170 668 l 1,11,-1
 170 272 l 2,12,13
 170 170 170 170 211 119.5 c 128,-1,14
 252 69 252 69 345 69 c 256,15,16
 438 69 438 69 479 119.5 c 128,-1,17
 520 170 520 170 520 272 c 2,18,-1
 520 668 l 1,19,-1
 614 668 l 1,20,-1
 614 279 l 2,21,22
 614 181 614 181 587.5 117.5 c 128,-1,23
 561 54 561 54 505 22 c 0,24,25
 478 7 478 7 460.5 -18 c 128,-1,26
 443 -43 443 -43 443 -71 c 0,27,28
 443 -93 443 -93 456.5 -104 c 128,-1,29
 470 -115 470 -115 492 -115 c 0,30,31
 513 -115 513 -115 530 -107 c 1,32,-1
 530 -161 l 1,33,34
 496 -173 496 -173 467 -173 c 0,35,0
 424 -173 424 -173 398.5 -149 c 128,-1,1
EndSplineSet
EndChar
StartChar: uogonek
Encoding: 371 371 205
Width: 540
GlyphClass: 2
Flags: W
AnchorPoint: "Anchor-3" 518 496 basechar 0
AnchorPoint: "Anchor-1" 270 496 basechar 0
AnchorPoint: "Anchor-0" 270 0 basechar 0
LayerCount: 2
Fore
SplineSet
108 39 m 128,-1,1
 70 90 70 90 70 180 c 2,2,-1
 70 496 l 1,3,-1
 154 496 l 1,4,-1
 154 205 l 2,5,6
 154 137 154 137 175 99.5 c 128,-1,7
 196 62 196 62 258 62 c 0,8,9
 318 62 318 62 351 103.5 c 128,-1,10
 384 145 384 145 384 224 c 2,11,-1
 384 496 l 1,12,-1
 468 496 l 1,13,-1
 468 0 l 1,14,15
 419 -17 419 -17 400 -34.5 c 128,-1,16
 381 -52 381 -52 381 -74 c 0,17,18
 381 -94 381 -94 394.5 -104.5 c 128,-1,19
 408 -115 408 -115 430 -115 c 0,20,21
 451 -115 451 -115 468 -107 c 1,22,-1
 468 -161 l 1,23,24
 434 -173 434 -173 405 -173 c 0,25,26
 362 -173 362 -173 336.5 -149 c 128,-1,27
 311 -125 311 -125 311 -91 c 0,28,29
 311 -55 311 -55 333.5 -30 c 128,-1,30
 356 -5 356 -5 401 13 c 1,31,-1
 384 72 l 1,32,33
 335 -12 335 -12 229 -12 c 0,34,0
 146 -12 146 -12 108 39 c 128,-1,1
EndSplineSet
EndChar
StartChar: florin
Encoding: 402 402 295
Width: 324
GlyphClass: 1
Flags: W
LayerCount: 2
Fore
SplineSet
25 -165 m 1,1,-1
 25 -90 l 1,2,3
 40 -93 40 -93 51 -93 c 0,4,5
 109 -93 109 -93 109 -24 c 2,6,-1
 109 429 l 1,7,-1
 25 429 l 1,8,-1
 25 496 l 1,9,-1
 109 496 l 1,10,-1
 109 570 l 2,11,12
 109 624 109 624 119.5 652.5 c 128,-1,13
 130 681 130 681 158 693.5 c 128,-1,14
 186 706 186 706 242 706 c 2,15,-1
 296 706 l 1,16,-1
 296 635 l 1,17,-1
 244 635 l 2,18,19
 212 635 212 635 202.5 622.5 c 128,-1,20
 193 610 193 610 193 571 c 2,21,-1
 193 496 l 1,22,-1
 296 496 l 1,23,-1
 296 429 l 1,24,-1
 193 429 l 1,25,-1
 193 -27 l 2,26,27
 193 -106 193 -106 161.5 -139.5 c 128,-1,28
 130 -173 130 -173 80 -173 c 0,29,0
 54 -173 54 -173 25 -165 c 1,1,-1
EndSplineSet
EndChar
StartChar: uni0237
Encoding: 567 567 159
Width: 245
GlyphClass: 2
Flags: W
AnchorPoint: "Anchor-1" 129 496 basechar 0
AnchorPoint: "Anchor-0" 124 -251 basechar 0
LayerCount: 2
Fore
SplineSet
-61 -88 m 1,0,-1
 -9 -88 l 2,1,2
 33 -88 33 -88 53 -81 c 128,-1,3
 73 -74 73 -74 80 -55 c 128,-1,4
 87 -36 87 -36 87 4 c 2,5,-1
 87 496 l 1,6,-1
 171 496 l 1,7,-1
 171 -1 l 2,8,9
 171 -64 171 -64 155 -98.5 c 128,-1,10
 139 -133 139 -133 102.5 -147.5 c 128,-1,11
 66 -162 66 -162 -1 -162 c 2,12,-1
 -61 -162 l 1,13,-1
 -61 -88 l 1,0,-1
EndSplineSet
EndChar
StartChar: uni02C9
Encoding: 713 713 374
Width: 356
GlyphClass: 1
Flags: W
LayerCount: 2
Fore
SplineSet
40 668 m 1,0,-1
 316 668 l 1,1,-1
 316 601 l 1,2,-1
 40 601 l 1,3,-1
 40 668 l 1,0,-1
EndSplineSet
EndChar
StartChar: gravecomb
Encoding: 768 768 349
Width: 0
GlyphClass: 4
Flags: W
AnchorPoint: "Anchor-5" 172 707 basemark 0
AnchorPoint: "Anchor-5" 172 496 mark 0
AnchorPoint: "Anchor-1" 172 496 mark 0
LayerCount: 2
Fore
SplineSet
49 646.5 m 128,-1,1
 40 658 40 658 40 670 c 0,2,3
 40 687 40 687 50.5 696.5 c 128,-1,4
 61 706 61 706 77 706 c 0,5,6
 89 706 89 706 99 699 c 128,-1,7
 109 692 109 692 122 675 c 2,8,-1
 203 571 l 1,9,-1
 134 571 l 1,10,-1
 80 616 l 2,11,0
 58 635 58 635 49 646.5 c 128,-1,1
EndSplineSet
Substitution2: "Single Substitution lookup 13 subtable" gravecomb.case
Substitution2: "'case' Case-Sensitive Forms in Latin lookup 11 subtable" gravecomb.case
AlternateSubs2: "'aalt' Access All Alternates in Latin lookup 0 subtable" gravecomb.case
EndChar
StartChar: acutecomb
Encoding: 769 769 351
Width: 0
GlyphClass: 4
Flags: W
AnchorPoint: "Anchor-5" 71 707 basemark 0
AnchorPoint: "Anchor-5" 71 496 mark 0
AnchorPoint: "Anchor-1" 71 496 mark 0
LayerCount: 2
Fore
SplineSet
144 699 m 128,-1,1
 154 706 154 706 166 706 c 0,2,3
 182 706 182 706 192.5 696.5 c 128,-1,4
 203 687 203 687 203 670 c 0,5,6
 203 658 203 658 194 646.5 c 128,-1,7
 185 635 185 635 163 616 c 2,8,-1
 109 571 l 1,9,-1
 40 571 l 1,10,-1
 121 675 l 2,11,0
 134 692 134 692 144 699 c 128,-1,1
EndSplineSet
Substitution2: "Single Substitution lookup 13 subtable" acutecomb.case
Substitution2: "'case' Case-Sensitive Forms in Latin lookup 11 subtable" acutecomb.case
AlternateSubs2: "'aalt' Access All Alternates in Latin lookup 0 subtable" acutecomb.case
EndChar
StartChar: uni0302
Encoding: 770 770 356
Width: 0
GlyphClass: 4
Flags: W
AnchorPoint: "Anchor-5" 202 695 basemark 0
AnchorPoint: "Anchor-5" 202 496 mark 0
AnchorPoint: "Anchor-1" 202 496 mark 0
LayerCount: 2
Fore
SplineSet
202 695 m 0,1,2
 231 695 231 695 251 676 c 2,3,-1
 363 575 l 1,4,-1
 269 575 l 1,5,-1
 201 636 l 1,6,-1
 134 575 l 1,7,-1
 40 575 l 1,8,-1
 152 676 l 2,9,0
 172 695 172 695 202 695 c 0,1,2
EndSplineSet
Substitution2: "Single Substitution lookup 13 subtable" uni0302.case
Substitution2: "'case' Case-Sensitive Forms in Latin lookup 11 subtable" uni0302.case
AlternateSubs2: "'aalt' Access All Alternates in Latin lookup 0 subtable" uni0302.case
EndChar
StartChar: tildecomb
Encoding: 771 771 364
Width: 0
GlyphClass: 4
Flags: W
AnchorPoint: "Anchor-5" 205 681 basemark 0
AnchorPoint: "Anchor-5" 205 496 mark 0
AnchorPoint: "Anchor-1" 205 496 mark 0
LayerCount: 2
Fore
SplineSet
236 581 m 128,-1,1
 220 587 220 587 199 599 c 0,2,3
 181 609 181 609 170 613.5 c 128,-1,4
 159 618 159 618 147 618 c 0,5,6
 129 618 129 618 118 607.5 c 128,-1,7
 107 597 107 597 105 577 c 1,8,-1
 40 577 l 1,9,10
 49 629 49 629 77 655 c 128,-1,11
 105 681 105 681 146 681 c 0,12,13
 166 681 166 681 181.5 675 c 128,-1,14
 197 669 197 669 217 657 c 0,15,16
 249 638 249 638 270 638 c 0,17,18
 284 638 284 638 293 643.5 c 128,-1,19
 302 649 302 649 309 661 c 0,20,21
 320 680 320 680 338 680 c 0,22,23
 350 680 350 680 359.5 671 c 128,-1,24
 369 662 369 662 369 649 c 0,25,26
 369 637 369 637 357 619 c 128,-1,27
 345 601 345 601 323 588 c 128,-1,28
 301 575 301 575 272 575 c 0,29,0
 252 575 252 575 236 581 c 128,-1,1
EndSplineSet
Substitution2: "Single Substitution lookup 13 subtable" tildecomb.case
Substitution2: "'case' Case-Sensitive Forms in Latin lookup 11 subtable" tildecomb.case
AlternateSubs2: "'aalt' Access All Alternates in Latin lookup 0 subtable" tildecomb.case
EndChar
StartChar: uni0306
Encoding: 774 774 360
Width: 0
GlyphClass: 4
Flags: W
AnchorPoint: "Anchor-5" 186 689 basemark 0
AnchorPoint: "Anchor-5" 186 496 mark 0
AnchorPoint: "Anchor-1" 186 496 mark 0
LayerCount: 2
Fore
SplineSet
91.5 603 m 128,-1,1
 51 637 51 637 40 689 c 1,2,-1
 108 689 l 1,3,4
 116 666 116 666 137.5 651 c 128,-1,5
 159 636 159 636 186 636 c 0,6,7
 212 636 212 636 233.5 651 c 128,-1,8
 255 666 255 666 264 689 c 1,9,-1
 332 689 l 1,10,11
 321 637 321 637 280 603 c 128,-1,12
 239 569 239 569 186 569 c 0,13,0
 132 569 132 569 91.5 603 c 128,-1,1
EndSplineSet
Substitution2: "Single Substitution lookup 13 subtable" uni0306.case
Substitution2: "'case' Case-Sensitive Forms in Latin lookup 11 subtable" uni0306.case
AlternateSubs2: "'aalt' Access All Alternates in Latin lookup 0 subtable" uni0306.case
EndChar
StartChar: uni0307
Encoding: 775 775 346
Width: 0
GlyphClass: 4
Flags: W
AnchorPoint: "Anchor-5" 94 698 basemark 0
AnchorPoint: "Anchor-5" 94 496 mark 0
AnchorPoint: "Anchor-1" 94 496 mark 0
LayerCount: 2
Fore
SplineSet
56 606 m 128,-1,1
 40 622 40 622 40 644 c 0,2,3
 40 667 40 667 56 682.5 c 128,-1,4
 72 698 72 698 94 698 c 0,5,6
 117 698 117 698 132.5 682.5 c 128,-1,7
 148 667 148 667 148 644 c 0,8,9
 148 622 148 622 132.5 606 c 128,-1,10
 117 590 117 590 94 590 c 0,11,0
 72 590 72 590 56 606 c 128,-1,1
EndSplineSet
Substitution2: "Single Substitution lookup 13 subtable" uni0307.case
Substitution2: "'case' Case-Sensitive Forms in Latin lookup 11 subtable" uni0307.case
AlternateSubs2: "'aalt' Access All Alternates in Latin lookup 0 subtable" uni0307.case
EndChar
StartChar: uni0308
Encoding: 776 776 344
Width: 0
GlyphClass: 4
Flags: W
AnchorPoint: "Anchor-5" 184 698 basemark 0
AnchorPoint: "Anchor-5" 184 496 mark 0
AnchorPoint: "Anchor-1" 184 496 mark 0
LayerCount: 2
Fore
SplineSet
236 606 m 128,-1,1
 220 622 220 622 220 644 c 0,2,3
 220 667 220 667 236 682.5 c 128,-1,4
 252 698 252 698 274 698 c 0,5,6
 297 698 297 698 312.5 682.5 c 128,-1,7
 328 667 328 667 328 644 c 0,8,9
 328 622 328 622 312.5 606 c 128,-1,10
 297 590 297 590 274 590 c 0,11,0
 252 590 252 590 236 606 c 128,-1,1
56 606 m 128,-1,13
 40 622 40 622 40 644 c 0,14,15
 40 667 40 667 56 682.5 c 128,-1,16
 72 698 72 698 94 698 c 0,17,18
 117 698 117 698 132.5 682.5 c 128,-1,19
 148 667 148 667 148 644 c 0,20,21
 148 622 148 622 132.5 606 c 128,-1,22
 117 590 117 590 94 590 c 0,23,12
 72 590 72 590 56 606 c 128,-1,13
EndSplineSet
Substitution2: "Single Substitution lookup 13 subtable" uni0308.case
Substitution2: "'case' Case-Sensitive Forms in Latin lookup 11 subtable" uni0308.case
AlternateSubs2: "'aalt' Access All Alternates in Latin lookup 0 subtable" uni0308.case
EndChar
StartChar: uni030A
Encoding: 778 778 362
Width: 0
GlyphClass: 4
Flags: W
AnchorPoint: "Anchor-5" 149 777 basemark 0
AnchorPoint: "Anchor-5" 149 496 mark 0
AnchorPoint: "Anchor-1" 149 496 mark 0
LayerCount: 2
Fore
SplineSet
72 591 m 128,-1,1
 40 623 40 623 40 668 c 256,2,3
 40 713 40 713 72 745 c 128,-1,4
 104 777 104 777 149 777 c 256,5,6
 194 777 194 777 226 745 c 128,-1,7
 258 713 258 713 258 668 c 256,8,9
 258 623 258 623 226 591 c 128,-1,10
 194 559 194 559 149 559 c 256,11,0
 104 559 104 559 72 591 c 128,-1,1
186 631 m 128,-1,13
 201 646 201 646 201 668 c 256,14,15
 201 690 201 690 186 705 c 128,-1,16
 171 720 171 720 149 720 c 256,17,18
 127 720 127 720 112 705 c 128,-1,19
 97 690 97 690 97 668 c 256,20,21
 97 646 97 646 112 631 c 128,-1,22
 127 616 127 616 149 616 c 256,23,12
 171 616 171 616 186 631 c 128,-1,13
EndSplineSet
Substitution2: "Single Substitution lookup 13 subtable" uni030A.case
Substitution2: "'case' Case-Sensitive Forms in Latin lookup 11 subtable" uni030A.case
AlternateSubs2: "'aalt' Access All Alternates in Latin lookup 0 subtable" uni030A.case
EndChar
StartChar: uni030B
Encoding: 779 779 353
Width: 0
GlyphClass: 4
Flags: W
AnchorPoint: "Anchor-5" 240 706 basemark 0
AnchorPoint: "Anchor-5" 146 496 mark 0
AnchorPoint: "Anchor-1" 146 496 mark 0
LayerCount: 2
Fore
SplineSet
144 699 m 128,-1,1
 154 706 154 706 166 706 c 0,2,3
 181 706 181 706 190.5 696.5 c 128,-1,4
 200 687 200 687 200 672 c 0,5,6
 200 660 200 660 190.5 647.5 c 128,-1,7
 181 635 181 635 159 616 c 2,8,-1
 105 571 l 1,9,-1
 40 571 l 1,10,-1
 121 675 l 2,11,0
 134 692 134 692 144 699 c 128,-1,1
292 699 m 128,-1,13
 302 706 302 706 314 706 c 0,14,15
 329 706 329 706 338.5 696.5 c 128,-1,16
 348 687 348 687 348 672 c 0,17,18
 348 660 348 660 338.5 647.5 c 128,-1,19
 329 635 329 635 307 616 c 2,20,-1
 253 571 l 1,21,-1
 188 571 l 1,22,-1
 269 675 l 2,23,12
 282 692 282 692 292 699 c 128,-1,13
EndSplineSet
Substitution2: "Single Substitution lookup 13 subtable" uni030B.case
Substitution2: "'case' Case-Sensitive Forms in Latin lookup 11 subtable" uni030B.case
AlternateSubs2: "'aalt' Access All Alternates in Latin lookup 0 subtable" uni030B.case
EndChar
StartChar: uni0312
Encoding: 786 786 368
Width: 0
GlyphClass: 4
Flags: W
AnchorPoint: "Anchor-5" 120 773 basemark 0
AnchorPoint: "Anchor-5" 103 496 mark 0
AnchorPoint: "Anchor-1" 103 496 mark 0
LayerCount: 2
Fore
SplineSet
54 617 m 128,-1,1
 40 640 40 640 40 666 c 0,2,3
 40 713 40 713 73.5 743 c 128,-1,4
 107 773 107 773 160 773 c 1,5,-1
 200 739 l 1,6,7
 164 739 164 739 135 725 c 128,-1,8
 106 711 106 711 106 670 c 0,9,10
 106 649 106 649 118 631.5 c 128,-1,11
 130 614 130 614 156 605 c 1,12,-1
 96 579 l 1,13,0
 68 594 68 594 54 617 c 128,-1,1
EndSplineSet
EndChar
StartChar: uni0326
Encoding: 806 806 369
Width: 0
GlyphClass: 4
Flags: W
AnchorPoint: "Anchor-4" 132 -250 basemark 0
AnchorPoint: "Anchor-4" 132 0 mark 0
AnchorPoint: "Anchor-0" 132 0 mark 0
LayerCount: 2
Fore
SplineSet
105 -202 m 128,-1,1
 134 -188 134 -188 134 -147 c 0,2,3
 134 -126 134 -126 122 -108.5 c 128,-1,4
 110 -91 110 -91 84 -82 c 1,5,-1
 144 -56 l 1,6,7
 172 -71 172 -71 186 -94 c 128,-1,8
 200 -117 200 -117 200 -143 c 0,9,10
 200 -190 200 -190 166.5 -220 c 128,-1,11
 133 -250 133 -250 80 -250 c 1,12,-1
 40 -216 l 1,13,0
 76 -216 76 -216 105 -202 c 128,-1,1
EndSplineSet
EndChar
StartChar: uni0327
Encoding: 807 807 370
Width: 0
GlyphClass: 4
Flags: W
AnchorPoint: "Anchor-4" 133 -181 basemark 0
AnchorPoint: "Anchor-4" 133 0 mark 0
AnchorPoint: "Anchor-0" 133 0 mark 0
LayerCount: 2
Fore
SplineSet
40 -163 m 1,1,-1
 54 -128 l 1,2,3
 86 -142 86 -142 112 -142 c 0,4,5
 140 -142 140 -142 152.5 -132 c 128,-1,6
 165 -122 165 -122 165 -108 c 0,7,8
 165 -95 165 -95 155.5 -87 c 128,-1,9
 146 -79 146 -79 127 -79 c 0,10,11
 110 -79 110 -79 94 -83 c 0,12,13
 91 -84 91 -84 85 -84 c 0,14,15
 77 -84 77 -84 72 -79.5 c 128,-1,16
 67 -75 67 -75 67 -68 c 0,17,18
 67 -65 67 -65 71 -57 c 2,19,-1
 122 25 l 1,20,-1
 156 4 l 1,21,-1
 126 -45 l 1,22,23
 148 -41 148 -41 156 -41 c 0,24,25
 189 -41 189 -41 207 -59.5 c 128,-1,26
 225 -78 225 -78 225 -104 c 0,27,28
 225 -135 225 -135 199.5 -159 c 128,-1,29
 174 -183 174 -183 128 -183 c 0,30,0
 89 -183 89 -183 40 -163 c 1,1,-1
EndSplineSet
EndChar
StartChar: uni0328
Encoding: 808 808 371
Width: 0
GlyphClass: 4
Flags: W
AnchorPoint: "Anchor-2" 197 10 mark 0
LayerCount: 2
Fore
SplineSet
65.5 -149 m 128,-1,1
 40 -125 40 -125 40 -91 c 0,2,3
 40 -54 40 -54 64.5 -28 c 128,-1,4
 89 -2 89 -2 138 16 c 1,5,-1
 197 0 l 1,6,7
 148 -17 148 -17 129 -34.5 c 128,-1,8
 110 -52 110 -52 110 -74 c 0,9,10
 110 -94 110 -94 123.5 -104.5 c 128,-1,11
 137 -115 137 -115 159 -115 c 0,12,13
 180 -115 180 -115 197 -107 c 1,14,-1
 197 -161 l 1,15,16
 163 -173 163 -173 134 -173 c 0,17,0
 91 -173 91 -173 65.5 -149 c 128,-1,1
EndSplineSet
Substitution2: "Single Substitution lookup 13 subtable" uni0328.case
Substitution2: "'case' Case-Sensitive Forms in Latin lookup 11 subtable" uni0328.case
AlternateSubs2: "'aalt' Access All Alternates in Latin lookup 0 subtable" uni0328.case
EndChar
StartChar: uni03A9
Encoding: 937 937 226
Width: 674
GlyphClass: 1
Flags: W
LayerCount: 2
Fore
SplineSet
44 81 m 1,0,-1
 195 81 l 1,1,-1
 195 130 l 1,2,3
 126 168 126 168 85 236 c 128,-1,4
 44 304 44 304 44 385 c 0,5,6
 44 465 44 465 83.5 533 c 128,-1,7
 123 601 123 601 190 640.5 c 128,-1,8
 257 680 257 680 337 680 c 256,9,10
 417 680 417 680 484 640.5 c 128,-1,11
 551 601 551 601 590.5 533 c 128,-1,12
 630 465 630 465 630 385 c 0,13,14
 630 304 630 304 589 236 c 128,-1,15
 548 168 548 168 479 130 c 1,16,-1
 479 81 l 1,17,-1
 630 81 l 1,18,-1
 630 0 l 1,19,-1
 394 0 l 1,20,-1
 394 173 l 1,21,22
 465 192 465 192 511 251 c 128,-1,23
 557 310 557 310 557 385 c 0,24,25
 557 445 557 445 527.5 495.5 c 128,-1,26
 498 546 498 546 447.5 576 c 128,-1,27
 397 606 397 606 337 606 c 256,28,29
 277 606 277 606 226.5 576 c 128,-1,30
 176 546 176 546 146.5 495.5 c 128,-1,31
 117 445 117 445 117 385 c 0,32,33
 117 310 117 310 163 251 c 128,-1,34
 209 192 209 192 280 173 c 1,35,-1
 280 0 l 1,36,-1
 44 0 l 1,37,-1
 44 81 l 1,0,-1
EndSplineSet
EndChar
StartChar: uni03BC
Encoding: 956 956 227
Width: 550
GlyphClass: 1
Flags: W
LayerCount: 2
Fore
SplineSet
72 496 m 1,0,-1
 156 496 l 1,1,-1
 156 191 l 2,2,3
 156 130 156 130 178 96 c 128,-1,4
 200 62 200 62 260 62 c 256,5,6
 320 62 320 62 353 103.5 c 128,-1,7
 386 145 386 145 386 224 c 2,8,-1
 386 496 l 1,9,-1
 470 496 l 1,10,-1
 470 128 l 2,11,12
 470 96 470 96 480 85 c 128,-1,13
 490 74 490 74 520 74 c 2,14,-1
 530 74 l 1,15,-1
 530 0 l 1,16,-1
 496 0 l 2,17,18
 443 0 443 0 418.5 16.5 c 128,-1,19
 394 33 394 33 386 72 c 1,20,21
 361 29 361 29 334 8.5 c 128,-1,22
 307 -12 307 -12 256 -12 c 0,23,24
 196 -12 196 -12 156 41 c 1,25,-1
 156 -162 l 1,26,-1
 72 -162 l 1,27,-1
 72 496 l 1,0,-1
EndSplineSet
EndChar
StartChar: pi
Encoding: 960 960 228
Width: 586
GlyphClass: 1
Flags: W
LayerCount: 2
Fore
SplineSet
104 414 m 1,0,-1
 20 414 l 1,1,-1
 20 496 l 1,2,-1
 551 496 l 1,3,-1
 551 414 l 1,4,-1
 467 414 l 1,5,-1
 467 136 l 2,6,7
 467 108 467 108 470.5 95.5 c 128,-1,8
 474 83 474 83 484.5 78.5 c 128,-1,9
 495 74 495 74 518 74 c 2,10,-1
 551 74 l 1,11,-1
 551 0 l 1,12,-1
 500 0 l 2,13,14
 451 0 451 0 426.5 9.5 c 128,-1,15
 402 19 402 19 392.5 45 c 128,-1,16
 383 71 383 71 383 124 c 2,17,-1
 383 414 l 1,18,-1
 185 414 l 1,19,-1
 185 0 l 1,20,-1
 104 0 l 1,21,-1
 104 414 l 1,0,-1
EndSplineSet
EndChar
StartChar: uni1E9E
Encoding: 7838 7838 82
Width: 656
GlyphClass: 1
Flags: W
LayerCount: 2
Fore
SplineSet
319.5 20.5 m 128,-1,1
 276 53 276 53 259 103 c 1,2,-1
 333 130 l 1,3,4
 354 63 354 63 432 63 c 0,5,6
 475 63 475 63 504.5 94 c 128,-1,7
 534 125 534 125 534 178 c 0,8,9
 534 233 534 233 503.5 262.5 c 128,-1,10
 473 292 473 292 429 292 c 0,11,12
 407 292 407 292 384 283 c 1,13,-1
 346 348 l 1,14,-1
 517 587 l 1,15,16
 422 606 422 606 353 606 c 0,17,18
 259 606 259 606 214.5 567 c 128,-1,19
 170 528 170 528 170 435 c 2,20,-1
 170 0 l 1,21,-1
 76 0 l 1,22,-1
 76 447 l 2,23,24
 76 569 76 569 143 624.5 c 128,-1,25
 210 680 210 680 339 680 c 0,26,27
 451 680 451 680 594 645 c 1,28,-1
 594 570 l 1,29,-1
 441 357 l 1,30,31
 500 357 500 357 541.5 332.5 c 128,-1,32
 583 308 583 308 603.5 266.5 c 128,-1,33
 624 225 624 225 624 176 c 0,34,35
 624 118 624 118 598 75.5 c 128,-1,36
 572 33 572 33 529 10.5 c 128,-1,37
 486 -12 486 -12 437 -12 c 0,38,0
 363 -12 363 -12 319.5 20.5 c 128,-1,1
EndSplineSet
EndChar
StartChar: emdash
Encoding: 8212 8212 275
Width: 824
GlyphClass: 1
Flags: W
LayerCount: 2
Fore
SplineSet
53 287 m 1,0,-1
 771 287 l 1,1,-1
 771 208 l 1,2,-1
 53 208 l 1,3,-1
 53 287 l 1,0,-1
EndSplineSet
EndChar
StartChar: quoteleft
Encoding: 8216 8216 287
Width: 236
GlyphClass: 1
Flags: W
LayerCount: 2
Fore
SplineSet
72.5 436.5 m 128,-1,1
 53 456 53 456 53 482 c 0,2,3
 53 494 53 494 59 510 c 2,4,-1
 121 668 l 1,5,-1
 176 668 l 1,6,-1
 129 546 l 1,7,8
 152 542 152 542 167.5 524 c 128,-1,9
 183 506 183 506 183 482 c 0,10,11
 183 456 183 456 164 436.5 c 128,-1,12
 145 417 145 417 119 417 c 0,13,0
 92 417 92 417 72.5 436.5 c 128,-1,1
EndSplineSet
EndChar
StartChar: quoteright
Encoding: 8217 8217 288
Width: 236
GlyphClass: 1
Flags: W
LayerCount: 2
Fore
SplineSet
68.5 573 m 128,-1,1
 53 591 53 591 53 615 c 0,2,3
 53 641 53 641 72 660.5 c 128,-1,4
 91 680 91 680 117 680 c 0,5,6
 144 680 144 680 163.5 660.5 c 128,-1,7
 183 641 183 641 183 615 c 0,8,9
 183 603 183 603 177 587 c 2,10,-1
 115 429 l 1,11,-1
 60 429 l 1,12,-1
 107 551 l 1,13,0
 84 555 84 555 68.5 573 c 128,-1,1
EndSplineSet
EndChar
StartChar: quotesinglbase
Encoding: 8218 8218 283
Width: 236
GlyphClass: 1
Flags: W
LayerCount: 2
Fore
SplineSet
68.5 11 m 128,-1,1
 53 29 53 29 53 53 c 0,2,3
 53 79 53 79 72 98.5 c 128,-1,4
 91 118 91 118 117 118 c 0,5,6
 144 118 144 118 163.5 98.5 c 128,-1,7
 183 79 183 79 183 53 c 0,8,9
 183 41 183 41 177 25 c 2,10,-1
 115 -133 l 1,11,-1
 60 -133 l 1,12,-1
 107 -11 l 1,13,0
 84 -7 84 -7 68.5 11 c 128,-1,1
EndSplineSet
EndChar
StartChar: quotedblleft
Encoding: 8220 8220 285
Width: 399
GlyphClass: 1
Flags: W
LayerCount: 2
Fore
SplineSet
235.5 436.5 m 128,-1,1
 216 456 216 456 216 482 c 0,2,3
 216 494 216 494 222 510 c 2,4,-1
 284 668 l 1,5,-1
 339 668 l 1,6,-1
 292 546 l 1,7,8
 315 542 315 542 330.5 524 c 128,-1,9
 346 506 346 506 346 482 c 0,10,11
 346 456 346 456 327 436.5 c 128,-1,12
 308 417 308 417 282 417 c 0,13,0
 255 417 255 417 235.5 436.5 c 128,-1,1
72.5 436.5 m 128,-1,15
 53 456 53 456 53 482 c 0,16,17
 53 494 53 494 59 510 c 2,18,-1
 121 668 l 1,19,-1
 176 668 l 1,20,-1
 129 546 l 1,21,22
 152 542 152 542 167.5 524 c 128,-1,23
 183 506 183 506 183 482 c 0,24,25
 183 456 183 456 164 436.5 c 128,-1,26
 145 417 145 417 119 417 c 0,27,14
 92 417 92 417 72.5 436.5 c 128,-1,15
EndSplineSet
EndChar
StartChar: quotedblright
Encoding: 8221 8221 286
Width: 399
GlyphClass: 1
Flags: W
LayerCount: 2
Fore
SplineSet
231.5 573 m 128,-1,1
 216 591 216 591 216 615 c 0,2,3
 216 641 216 641 235 660.5 c 128,-1,4
 254 680 254 680 280 680 c 0,5,6
 307 680 307 680 326.5 660.5 c 128,-1,7
 346 641 346 641 346 615 c 0,8,9
 346 603 346 603 340 587 c 2,10,-1
 278 429 l 1,11,-1
 223 429 l 1,12,-1
 270 551 l 1,13,0
 247 555 247 555 231.5 573 c 128,-1,1
68.5 573 m 128,-1,15
 53 591 53 591 53 615 c 0,16,17
 53 641 53 641 72 660.5 c 128,-1,18
 91 680 91 680 117 680 c 0,19,20
 144 680 144 680 163.5 660.5 c 128,-1,21
 183 641 183 641 183 615 c 0,22,23
 183 603 183 603 177 587 c 2,24,-1
 115 429 l 1,25,-1
 60 429 l 1,26,-1
 107 551 l 1,27,14
 84 555 84 555 68.5 573 c 128,-1,15
EndSplineSet
EndChar
StartChar: quotedblbase
Encoding: 8222 8222 284
Width: 399
GlyphClass: 1
Flags: W
LayerCount: 2
Fore
SplineSet
231.5 11 m 128,-1,1
 216 29 216 29 216 53 c 0,2,3
 216 79 216 79 235 98.5 c 128,-1,4
 254 118 254 118 280 118 c 0,5,6
 307 118 307 118 326.5 98.5 c 128,-1,7
 346 79 346 79 346 53 c 0,8,9
 346 41 346 41 340 25 c 2,10,-1
 278 -133 l 1,11,-1
 223 -133 l 1,12,-1
 270 -11 l 1,13,0
 247 -7 247 -7 231.5 11 c 128,-1,1
68.5 11 m 128,-1,15
 53 29 53 29 53 53 c 0,16,17
 53 79 53 79 72 98.5 c 128,-1,18
 91 118 91 118 117 118 c 0,19,20
 144 118 144 118 163.5 98.5 c 128,-1,21
 183 79 183 79 183 53 c 0,22,23
 183 41 183 41 177 25 c 2,24,-1
 115 -133 l 1,25,-1
 60 -133 l 1,26,-1
 107 -11 l 1,27,14
 84 -7 84 -7 68.5 11 c 128,-1,15
EndSplineSet
EndChar
StartChar: daggerdbl
Encoding: 8225 8225 309
Width: 541
GlyphClass: 1
Flags: W
LayerCount: 2
Fore
SplineSet
230 172 m 1,0,-1
 40 172 l 1,1,-1
 40 251 l 1,2,-1
 230 251 l 1,3,-1
 230 416 l 1,4,-1
 40 416 l 1,5,-1
 40 496 l 1,6,-1
 230 496 l 1,7,-1
 230 668 l 1,8,-1
 311 668 l 1,9,-1
 311 496 l 1,10,-1
 501 496 l 1,11,-1
 501 416 l 1,12,-1
 311 416 l 1,13,-1
 311 251 l 1,14,-1
 501 251 l 1,15,-1
 501 172 l 1,16,-1
 311 172 l 1,17,-1
 311 0 l 1,18,-1
 230 0 l 1,19,-1
 230 172 l 1,0,-1
EndSplineSet
EndChar
StartChar: perthousand
Encoding: 8240 8240 342
Width: 1325
GlyphClass: 1
Flags: W
LayerCount: 2
Fore
SplineSet
648 668 m 1,0,-1
 736 668 l 1,1,-1
 268 0 l 1,2,-1
 180 0 l 1,3,-1
 648 668 l 1,0,-1
126.5 340.5 m 128,-1,5
 85 365 85 365 60.5 406.5 c 128,-1,6
 36 448 36 448 36 498 c 256,7,8
 36 548 36 548 60.5 589.5 c 128,-1,9
 85 631 85 631 126.5 655.5 c 128,-1,10
 168 680 168 680 218 680 c 256,11,12
 268 680 268 680 309.5 655.5 c 128,-1,13
 351 631 351 631 375.5 589.5 c 128,-1,14
 400 548 400 548 400 498 c 256,15,16
 400 448 400 448 375.5 406.5 c 128,-1,17
 351 365 351 365 309.5 340.5 c 128,-1,18
 268 316 268 316 218 316 c 256,19,4
 168 316 168 316 126.5 340.5 c 128,-1,5
294.5 421.5 m 128,-1,21
 326 453 326 453 326 498 c 256,22,23
 326 543 326 543 294.5 574.5 c 128,-1,24
 263 606 263 606 218 606 c 256,25,26
 173 606 173 606 141.5 574.5 c 128,-1,27
 110 543 110 543 110 498 c 256,28,29
 110 453 110 453 141.5 421.5 c 128,-1,30
 173 390 173 390 218 390 c 256,31,20
 263 390 263 390 294.5 421.5 c 128,-1,21
609.5 12.5 m 128,-1,33
 568 37 568 37 543.5 78.5 c 128,-1,34
 519 120 519 120 519 170 c 256,35,36
 519 220 519 220 543.5 261.5 c 128,-1,37
 568 303 568 303 609.5 327.5 c 128,-1,38
 651 352 651 352 701 352 c 256,39,40
 751 352 751 352 792.5 327.5 c 128,-1,41
 834 303 834 303 858.5 261.5 c 128,-1,42
 883 220 883 220 883 170 c 256,43,44
 883 120 883 120 858.5 78.5 c 128,-1,45
 834 37 834 37 792.5 12.5 c 128,-1,46
 751 -12 751 -12 701 -12 c 256,47,32
 651 -12 651 -12 609.5 12.5 c 128,-1,33
777.5 93.5 m 128,-1,49
 809 125 809 125 809 170 c 256,50,51
 809 215 809 215 777.5 246.5 c 128,-1,52
 746 278 746 278 701 278 c 256,53,54
 656 278 656 278 624.5 246.5 c 128,-1,55
 593 215 593 215 593 170 c 256,56,57
 593 125 593 125 624.5 93.5 c 128,-1,58
 656 62 656 62 701 62 c 256,59,48
 746 62 746 62 777.5 93.5 c 128,-1,49
1015.5 12.5 m 128,-1,61
 974 37 974 37 949.5 78.5 c 128,-1,62
 925 120 925 120 925 170 c 256,63,64
 925 220 925 220 949.5 261.5 c 128,-1,65
 974 303 974 303 1015.5 327.5 c 128,-1,66
 1057 352 1057 352 1107 352 c 256,67,68
 1157 352 1157 352 1198.5 327.5 c 128,-1,69
 1240 303 1240 303 1264.5 261.5 c 128,-1,70
 1289 220 1289 220 1289 170 c 256,71,72
 1289 120 1289 120 1264.5 78.5 c 128,-1,73
 1240 37 1240 37 1198.5 12.5 c 128,-1,74
 1157 -12 1157 -12 1107 -12 c 256,75,60
 1057 -12 1057 -12 1015.5 12.5 c 128,-1,61
1183.5 93.5 m 128,-1,77
 1215 125 1215 125 1215 170 c 256,78,79
 1215 215 1215 215 1183.5 246.5 c 128,-1,80
 1152 278 1152 278 1107 278 c 256,81,82
 1062 278 1062 278 1030.5 246.5 c 128,-1,83
 999 215 999 215 999 170 c 256,84,85
 999 125 999 125 1030.5 93.5 c 128,-1,86
 1062 62 1062 62 1107 62 c 256,87,76
 1152 62 1152 62 1183.5 93.5 c 128,-1,77
EndSplineSet
EndChar
StartChar: guilsinglleft
Encoding: 8249 8249 291
Width: 353
GlyphClass: 1
Flags: W
LayerCount: 2
Fore
SplineSet
53 250 m 1,0,-1
 201 460 l 1,1,-1
 300 460 l 1,2,-1
 151 250 l 1,3,-1
 300 40 l 1,4,-1
 201 40 l 1,5,-1
 53 250 l 1,0,-1
EndSplineSet
EndChar
StartChar: guilsinglright
Encoding: 8250 8250 292
Width: 353
GlyphClass: 1
Flags: W
LayerCount: 2
Fore
SplineSet
202 250 m 1,0,-1
 53 460 l 1,1,-1
 152 460 l 1,2,-1
 300 250 l 1,3,-1
 152 40 l 1,4,-1
 53 40 l 1,5,-1
 202 250 l 1,0,-1
EndSplineSet
EndChar
StartChar: Euro
Encoding: 8364 8364 314
Width: 664
GlyphClass: 1
Flags: W
LayerCount: 2
Fore
SplineSet
197 55.5 m 128,-1,1
 128 123 128 123 108 240 c 1,2,-1
 15 240 l 1,3,-1
 43 291 l 1,4,-1
 102 291 l 1,5,6
 100 327 100 327 100 344 c 0,7,8
 100 366 100 366 101 377 c 1,9,-1
 15 377 l 1,10,-1
 43 428 l 1,11,-1
 108 428 l 1,12,13
 130 546 130 546 205.5 613 c 128,-1,14
 281 680 281 680 387 680 c 0,15,16
 465 680 465 680 527.5 640 c 128,-1,17
 590 600 590 600 623 528 c 1,18,-1
 545 500 l 1,19,20
 523 547 523 547 482 574 c 128,-1,21
 441 601 441 601 382 601 c 0,22,23
 309 601 309 601 262 554 c 128,-1,24
 215 507 215 507 198 428 c 1,25,-1
 446 428 l 1,26,-1
 418 377 l 1,27,-1
 190 377 l 1,28,29
 189 363 189 363 189 334 c 0,30,31
 189 306 189 306 190 291 c 1,32,-1
 371 291 l 1,33,-1
 343 240 l 1,34,-1
 198 240 l 1,35,36
 215 161 215 161 262.5 114 c 128,-1,37
 310 67 310 67 385 67 c 0,38,39
 443 67 443 67 484.5 93.5 c 128,-1,40
 526 120 526 120 549 167 c 1,41,-1
 626 139 l 1,42,43
 593 66 593 66 528.5 27 c 128,-1,44
 464 -12 464 -12 380 -12 c 0,45,0
 266 -12 266 -12 197 55.5 c 128,-1,1
EndSplineSet
EndChar
StartChar: uni20B9
Encoding: 8377 8377 315
Width: 554
GlyphClass: 1
Flags: W
LayerCount: 2
Fore
SplineSet
73 290 m 1,0,-1
 73 342 l 1,1,-1
 147 342 l 2,2,3
 222 342 222 342 264.5 366 c 128,-1,4
 307 390 307 390 315 442 c 1,5,-1
 73 442 l 1,6,-1
 73 493 l 1,7,-1
 315 493 l 1,8,9
 306 543 306 543 263 568 c 128,-1,10
 220 593 220 593 147 593 c 2,11,-1
 73 593 l 1,12,-1
 73 668 l 1,13,-1
 500 668 l 1,14,-1
 500 617 l 1,15,-1
 333 617 l 1,16,17
 398 574 398 574 408 493 c 1,18,-1
 500 493 l 1,19,-1
 500 442 l 1,20,-1
 408 442 l 1,21,22
 400 368 400 368 348 326.5 c 128,-1,23
 296 285 296 285 207 274 c 1,24,-1
 490 0 l 1,25,-1
 373 0 l 1,26,-1
 73 290 l 1,0,-1
EndSplineSet
EndChar
StartChar: uni2113
Encoding: 8467 8467 308
Width: 450
GlyphClass: 1
Flags: W
LayerCount: 2
Fore
SplineSet
152 27.5 m 128,-1,1
 119 67 119 67 119 156 c 2,2,-1
 119 188 l 1,3,-1
 53 138 l 1,4,-1
 53 227 l 1,5,-1
 119 278 l 1,6,-1
 119 507 l 2,7,8
 119 592 119 592 153.5 636 c 128,-1,9
 188 680 188 680 264 680 c 0,10,11
 326 680 326 680 360 641 c 128,-1,12
 394 602 394 602 394 538 c 0,13,14
 394 454 394 454 348.5 389 c 128,-1,15
 303 324 303 324 204 251 c 1,16,-1
 204 151 l 2,17,18
 204 100 204 100 222 80.5 c 128,-1,19
 240 61 240 61 271 61 c 0,20,21
 316 61 316 61 360 100 c 1,22,-1
 397 42 l 1,23,24
 371 19 371 19 335.5 3.5 c 128,-1,25
 300 -12 300 -12 261 -12 c 0,26,0
 185 -12 185 -12 152 27.5 c 128,-1,1
312 535 m 0,28,29
 312 610 312 610 259 610 c 0,30,31
 229 610 229 610 216.5 590 c 128,-1,32
 204 570 204 570 204 518 c 2,33,-1
 204 344 l 1,34,27
 312 420 312 420 312 535 c 0,28,29
EndSplineSet
EndChar
StartChar: trademark
Encoding: 8482 8482 303
Width: 874
GlyphClass: 1
Flags: W
LayerCount: 2
Fore
SplineSet
394 668 m 1,0,-1
 502 668 l 1,1,-1
 595 388 l 1,2,-1
 688 668 l 1,3,-1
 796 668 l 1,4,-1
 796 303 l 1,5,-1
 729 303 l 1,6,-1
 729 586 l 1,7,-1
 631 303 l 1,8,-1
 559 303 l 1,9,-1
 461 586 l 1,10,-1
 461 303 l 1,11,-1
 394 303 l 1,12,-1
 394 668 l 1,0,-1
162 608 m 1,13,-1
 44 608 l 1,14,-1
 44 668 l 1,15,-1
 347 668 l 1,16,-1
 347 608 l 1,17,-1
 229 608 l 1,18,-1
 229 303 l 1,19,-1
 162 303 l 1,20,-1
 162 608 l 1,13,-1
EndSplineSet
EndChar
StartChar: estimated
Encoding: 8494 8494 310
Width: 622
GlyphClass: 1
Flags: W
LayerCount: 2
Fore
SplineSet
188 19 m 128,-1,1
 129 50 129 50 91 111 c 128,-1,2
 53 172 53 172 53 256 c 0,3,4
 53 316 53 316 86 373.5 c 128,-1,5
 119 431 119 431 178 467.5 c 128,-1,6
 237 504 237 504 311 504 c 0,7,8
 381 504 381 504 440 469.5 c 128,-1,9
 499 435 499 435 534 376 c 128,-1,10
 569 317 569 317 569 248 c 1,11,-1
 159 248 l 1,12,-1
 159 78 l 1,13,14
 190 50 190 50 229 35 c 128,-1,15
 268 20 268 20 311 20 c 0,16,17
 361 20 361 20 405.5 40.5 c 128,-1,18
 450 61 450 61 481 97 c 1,19,-1
 514 87 l 1,20,21
 478 41 478 41 425 14.5 c 128,-1,22
 372 -12 372 -12 311 -12 c 0,23,0
 247 -12 247 -12 188 19 c 128,-1,1
463 279 m 1,24,-1
 463 413 l 1,25,26
 433 441 433 441 393.5 456.5 c 128,-1,27
 354 472 354 472 311 472 c 0,28,29
 267 472 267 472 228 456.5 c 128,-1,30
 189 441 189 441 159 413 c 1,31,-1
 159 279 l 1,32,-1
 463 279 l 1,24,-1
EndSplineSet
EndChar
StartChar: partialdiff
Encoding: 8706 8706 340
Width: 583
GlyphClass: 1
Flags: W
LayerCount: 2
Fore
SplineSet
176.5 15 m 128,-1,1
 122 42 122 42 88 98 c 128,-1,2
 54 154 54 154 54 236 c 256,3,4
 54 318 54 318 87.5 374 c 128,-1,5
 121 430 121 430 175 457 c 128,-1,6
 229 484 229 484 289 484 c 0,7,8
 388 484 388 484 434 419 c 1,9,10
 399 599 399 599 181 599 c 0,11,12
 155 599 155 599 143 598 c 1,13,-1
 143 680 l 1,14,15
 287 680 287 680 372 635.5 c 128,-1,16
 457 591 457 591 493 505.5 c 128,-1,17
 529 420 529 420 529 289 c 0,18,19
 529 129 529 129 461 58.5 c 128,-1,20
 393 -12 393 -12 292 -12 c 0,21,0
 231 -12 231 -12 176.5 15 c 128,-1,1
364 80 m 128,-1,23
 398 99 398 99 419 138.5 c 128,-1,24
 440 178 440 178 440 236 c 0,25,26
 440 293 440 293 419 332.5 c 128,-1,27
 398 372 398 372 364 391 c 128,-1,28
 330 410 330 410 292 410 c 256,29,30
 254 410 254 410 220 391 c 128,-1,31
 186 372 186 372 164.5 332.5 c 128,-1,32
 143 293 143 293 143 236 c 0,33,34
 143 178 143 178 164.5 138.5 c 128,-1,35
 186 99 186 99 220 80 c 128,-1,36
 254 61 254 61 292 61 c 256,37,22
 330 61 330 61 364 80 c 128,-1,23
EndSplineSet
EndChar
StartChar: product
Encoding: 8719 8719 337
Width: 585
GlyphClass: 1
Flags: W
LayerCount: 2
Fore
SplineSet
53 668 m 1,0,-1
 532 668 l 1,1,-1
 532 -162 l 1,2,-1
 450 -162 l 1,3,-1
 450 587 l 1,4,-1
 134 587 l 1,5,-1
 134 -162 l 1,6,-1
 53 -162 l 1,7,-1
 53 668 l 1,0,-1
EndSplineSet
EndChar
StartChar: summation
Encoding: 8721 8721 338
Width: 587
GlyphClass: 1
Flags: W
LayerCount: 2
Fore
SplineSet
53 -81 m 1,0,-1
 299 254 l 1,1,-1
 53 587 l 1,2,-1
 53 668 l 1,3,-1
 534 668 l 1,4,-1
 534 587 l 1,5,-1
 154 587 l 1,6,-1
 399 254 l 1,7,-1
 154 -81 l 1,8,-1
 534 -81 l 1,9,-1
 534 -162 l 1,10,-1
 53 -162 l 1,11,-1
 53 -81 l 1,0,-1
EndSplineSet
EndChar
StartChar: radical
Encoding: 8730 8730 339
Width: 582
GlyphClass: 1
Flags: W
LayerCount: 2
Fore
SplineSet
159 145 m 1,0,-1
 53 145 l 1,1,-1
 53 225 l 1,2,-1
 215 225 l 1,3,-1
 318 -38 l 1,4,-1
 441 668 l 1,5,-1
 529 668 l 1,6,-1
 378 -162 l 1,7,-1
 279 -162 l 1,8,-1
 159 145 l 1,0,-1
EndSplineSet
EndChar
StartChar: infinity
Encoding: 8734 8734 335
Width: 774
GlyphClass: 1
Flags: W
LayerCount: 2
Fore
SplineSet
97.5 146.5 m 128,-1,1
 53 189 53 189 53 256 c 256,2,3
 53 323 53 323 97.5 365.5 c 128,-1,4
 142 408 142 408 213 408 c 0,5,6
 264 408 264 408 305.5 383 c 128,-1,7
 347 358 347 358 387 314 c 1,8,9
 427 358 427 358 468.5 383 c 128,-1,10
 510 408 510 408 561 408 c 0,11,12
 632 408 632 408 676.5 365.5 c 128,-1,13
 721 323 721 323 721 256 c 256,14,15
 721 189 721 189 676.5 146.5 c 128,-1,16
 632 104 632 104 561 104 c 0,17,18
 510 104 510 104 468.5 129 c 128,-1,19
 427 154 427 154 387 198 c 1,20,21
 347 154 347 154 305.5 129 c 128,-1,22
 264 104 264 104 213 104 c 0,23,0
 142 104 142 104 97.5 146.5 c 128,-1,1
277 197 m 128,-1,25
 305 214 305 214 339 256 c 1,26,27
 305 298 305 298 277 315 c 128,-1,28
 249 332 249 332 217 332 c 0,29,30
 181 332 181 332 157.5 310 c 128,-1,31
 134 288 134 288 134 256 c 256,32,33
 134 224 134 224 157.5 202 c 128,-1,34
 181 180 181 180 217 180 c 0,35,24
 249 180 249 180 277 197 c 128,-1,25
616.5 202 m 128,-1,37
 640 224 640 224 640 256 c 256,38,39
 640 288 640 288 616.5 310 c 128,-1,40
 593 332 593 332 557 332 c 0,41,42
 525 332 525 332 497 315 c 128,-1,43
 469 298 469 298 435 256 c 1,44,45
 469 214 469 214 497 197 c 128,-1,46
 525 180 525 180 557 180 c 0,47,36
 593 180 593 180 616.5 202 c 128,-1,37
EndSplineSet
EndChar
StartChar: integral
Encoding: 8747 8747 336
Width: 458
GlyphClass: 1
Flags: W
LayerCount: 2
Fore
SplineSet
74.5 -154.5 m 128,-1,1
 51 -136 51 -136 51 -109 c 0,2,3
 51 -88 51 -88 65 -73.5 c 128,-1,4
 79 -59 79 -59 102 -59 c 256,5,6
 125 -59 125 -59 139 -73.5 c 128,-1,7
 153 -88 153 -88 153 -111 c 0,8,9
 153 -120 153 -120 150 -129 c 1,10,11
 184 -119 184 -119 185 -33 c 2,12,-1
 189 477 l 2,13,14
 190 592 190 592 225.5 636.5 c 128,-1,15
 261 681 261 681 320 681 c 0,16,17
 360 681 360 681 383.5 663 c 128,-1,18
 407 645 407 645 407 618 c 0,19,20
 407 597 407 597 393 582.5 c 128,-1,21
 379 568 379 568 356 568 c 0,22,23
 332 568 332 568 318.5 582 c 128,-1,24
 305 596 305 596 305 620 c 0,25,26
 305 629 305 629 308 638 c 1,27,28
 274 628 274 628 273 542 c 2,29,-1
 268 32 l 2,30,31
 267 -83 267 -83 232 -128 c 128,-1,32
 197 -173 197 -173 138 -173 c 0,33,0
 98 -173 98 -173 74.5 -154.5 c 128,-1,1
EndSplineSet
EndChar
StartChar: approxequal
Encoding: 8776 8776 331
Width: 554
GlyphClass: 1
Flags: W
LayerCount: 2
Fore
SplineSet
166 229 m 0,1,2
 192 229 192 229 217.5 221 c 128,-1,3
 243 213 243 213 286 195 c 0,4,5
 318 181 318 181 341 173 c 128,-1,6
 364 165 364 165 384 165 c 0,7,8
 441 165 441 165 445 234 c 1,9,-1
 513 215 l 1,10,11
 498 90 498 90 388 90 c 0,12,13
 362 90 362 90 336.5 98 c 128,-1,14
 311 106 311 106 268 124 c 0,15,16
 236 138 236 138 213 146 c 128,-1,17
 190 154 190 154 170 154 c 0,18,19
 113 154 113 154 109 85 c 1,20,-1
 41 104 l 1,21,0
 56 229 56 229 166 229 c 0,1,2
166 422 m 0,23,24
 192 422 192 422 217.5 414 c 128,-1,25
 243 406 243 406 286 388 c 0,26,27
 318 374 318 374 341 366 c 128,-1,28
 364 358 364 358 384 358 c 0,29,30
 441 358 441 358 445 427 c 1,31,-1
 513 408 l 1,32,33
 498 283 498 283 388 283 c 0,34,35
 362 283 362 283 336.5 291 c 128,-1,36
 311 299 311 299 268 317 c 0,37,38
 236 331 236 331 213 339 c 128,-1,39
 190 347 190 347 170 347 c 0,40,41
 113 347 113 347 109 278 c 1,42,-1
 41 297 l 1,43,22
 56 422 56 422 166 422 c 0,23,24
EndSplineSet
EndChar
StartChar: notequal
Encoding: 8800 8800 325
Width: 628
GlyphClass: 1
Flags: W
LayerCount: 2
Fore
SplineSet
175 121 m 1,0,-1
 66 121 l 1,1,-1
 66 200 l 1,2,-1
 231 200 l 1,3,-1
 305 308 l 1,4,-1
 66 308 l 1,5,-1
 66 387 l 1,6,-1
 361 387 l 1,7,-1
 438 496 l 1,8,-1
 537 496 l 1,9,-1
 461 387 l 1,10,-1
 562 387 l 1,11,-1
 562 308 l 1,12,-1
 405 308 l 1,13,-1
 330 200 l 1,14,-1
 562 200 l 1,15,-1
 562 121 l 1,16,-1
 275 121 l 1,17,-1
 190 0 l 1,18,-1
 90 0 l 1,19,-1
 175 121 l 1,0,-1
EndSplineSet
EndChar
StartChar: lessequal
Encoding: 8804 8804 329
Width: 579
GlyphClass: 1
Flags: W
LayerCount: 2
Fore
SplineSet
53 267 m 1,0,-1
 53 337 l 1,1,-1
 526 505 l 1,2,-1
 526 414 l 1,3,-1
 158 302 l 1,4,-1
 526 190 l 1,5,-1
 526 100 l 1,6,-1
 53 267 l 1,0,-1
53 80 m 1,7,-1
 526 80 l 1,8,-1
 526 0 l 1,9,-1
 53 0 l 1,10,-1
 53 80 l 1,7,-1
EndSplineSet
EndChar
StartChar: greaterequal
Encoding: 8805 8805 328
Width: 579
GlyphClass: 1
Flags: W
LayerCount: 2
Fore
SplineSet
53 190 m 1,0,-1
 421 302 l 1,1,-1
 53 414 l 1,2,-1
 53 505 l 1,3,-1
 526 337 l 1,4,-1
 526 267 l 1,5,-1
 53 100 l 1,6,-1
 53 190 l 1,0,-1
53 80 m 1,7,-1
 526 80 l 1,8,-1
 526 0 l 1,9,-1
 53 0 l 1,10,-1
 53 80 l 1,7,-1
EndSplineSet
EndChar
StartChar: lozenge
Encoding: 9674 9674 343
Width: 561
GlyphClass: 1
Flags: W
LayerCount: 2
Fore
SplineSet
53 315 m 1,0,-1
 281 703 l 1,1,-1
 508 315 l 1,2,-1
 281 -73 l 1,3,-1
 53 315 l 1,0,-1
421 315 m 1,4,-1
 281 554 l 1,5,-1
 140 315 l 1,6,-1
 281 76 l 1,7,-1
 421 315 l 1,4,-1
EndSplineSet
EndChar
StartChar: acutecomb.case
Encoding: 65553 -1 352
Width: 0
GlyphClass: 4
Flags: W
AnchorPoint: "Anchor-5" 76 864 basemark 0
AnchorPoint: "Anchor-5" 76 668 mark 0
AnchorPoint: "Anchor-1" 76 668 mark 0
LayerCount: 2
Fore
SplineSet
155.5 857.5 m 128,-1,1
 166 863 166 863 176 863 c 0,2,3
 192 863 192 863 202.5 853.5 c 128,-1,4
 213 844 213 844 213 828 c 0,5,6
 213 815 213 815 204.5 804 c 128,-1,7
 196 793 196 793 173 779 c 2,8,-1
 116 744 l 1,9,-1
 40 744 l 1,10,-1
 131 838 l 2,11,0
 145 852 145 852 155.5 857.5 c 128,-1,1
EndSplineSet
EndChar
StartChar: gravecomb.case
Encoding: 65552 -1 350
Width: 0
GlyphClass: 4
Flags: W
AnchorPoint: "Anchor-5" 177 864 basemark 0
AnchorPoint: "Anchor-5" 177 668 mark 0
AnchorPoint: "Anchor-1" 177 668 mark 0
LayerCount: 2
Fore
SplineSet
48.5 804 m 128,-1,1
 40 815 40 815 40 828 c 0,2,3
 40 844 40 844 50.5 853.5 c 128,-1,4
 61 863 61 863 77 863 c 0,5,6
 87 863 87 863 97.5 857.5 c 128,-1,7
 108 852 108 852 122 838 c 2,8,-1
 213 744 l 1,9,-1
 137 744 l 1,10,-1
 80 779 l 2,11,0
 57 793 57 793 48.5 804 c 128,-1,1
EndSplineSet
EndChar
StartChar: one.tf
Encoding: 65540 -1 240
Width: 632
GlyphClass: 1
Flags: W
LayerCount: 2
Fore
SplineSet
109 77 m 1,0,-1
 287 77 l 1,1,-1
 287 504 l 1,2,-1
 109 504 l 1,3,-1
 109 571 l 1,4,5
 191 571 191 571 242.5 591 c 128,-1,6
 294 611 294 611 314 668 c 1,7,-1
 371 668 l 1,8,-1
 371 77 l 1,9,-1
 530 77 l 1,10,-1
 530 0 l 1,11,-1
 109 0 l 1,12,-1
 109 77 l 1,0,-1
EndSplineSet
Substitution2: "'pnum' Proportional Numbers in Latin lookup 9 subtable" one
AlternateSubs2: "'aalt' Access All Alternates in Latin lookup 0 subtable" one
EndChar
StartChar: uni0307.case
Encoding: 65550 -1 347
Width: 0
GlyphClass: 4
Flags: W
AnchorPoint: "Anchor-5" 94 848 basemark 0
AnchorPoint: "Anchor-5" 94 668 mark 0
AnchorPoint: "Anchor-1" 94 668 mark 0
LayerCount: 2
Fore
SplineSet
56 756 m 128,-1,1
 40 772 40 772 40 794 c 0,2,3
 40 817 40 817 56 832.5 c 128,-1,4
 72 848 72 848 94 848 c 0,5,6
 117 848 117 848 132.5 832.5 c 128,-1,7
 148 817 148 817 148 794 c 0,8,9
 148 772 148 772 132.5 756 c 128,-1,10
 117 740 117 740 94 740 c 0,11,0
 72 740 72 740 56 756 c 128,-1,1
EndSplineSet
EndChar
StartChar: uni0307.large
Encoding: 65551 -1 348
Width: 0
GlyphClass: 4
Flags: W
AnchorPoint: "Anchor-5" 102 714 basemark 0
AnchorPoint: "Anchor-5" 102 496 mark 0
AnchorPoint: "Anchor-1" 102 496 mark 0
LayerCount: 2
Fore
SplineSet
58.5 608.5 m 128,-1,1
 40 627 40 627 40 652 c 0,2,3
 40 678 40 678 58.5 696 c 128,-1,4
 77 714 77 714 102 714 c 0,5,6
 128 714 128 714 146 696 c 128,-1,7
 164 678 164 678 164 652 c 0,8,9
 164 627 164 627 146 608.5 c 128,-1,10
 128 590 128 590 102 590 c 0,11,0
 77 590 77 590 58.5 608.5 c 128,-1,1
EndSplineSet
EndChar
StartChar: uni030A.case
Encoding: 65559 -1 363
Width: 0
GlyphClass: 4
Flags: W
AnchorPoint: "Anchor-5" 149 838 basemark 0
AnchorPoint: "Anchor-5" 149 668 mark 0
AnchorPoint: "Anchor-1" 149 668 mark 0
LayerCount: 2
Fore
SplineSet
71.5 652 m 128,-1,1
 40 684 40 684 40 729 c 256,2,3
 40 774 40 774 71.5 806 c 128,-1,4
 103 838 103 838 149 838 c 256,5,6
 195 838 195 838 226.5 806 c 128,-1,7
 258 774 258 774 258 729 c 256,8,9
 258 684 258 684 226.5 652 c 128,-1,10
 195 620 195 620 149 620 c 256,11,0
 103 620 103 620 71.5 652 c 128,-1,1
186 692.5 m 128,-1,13
 201 707 201 707 201 729 c 256,14,15
 201 751 201 751 186 765.5 c 128,-1,16
 171 780 171 780 149 780 c 256,17,18
 127 780 127 780 112 765.5 c 128,-1,19
 97 751 97 751 97 729 c 256,20,21
 97 707 97 707 112 692.5 c 128,-1,22
 127 678 127 678 149 678 c 256,23,12
 171 678 171 678 186 692.5 c 128,-1,13
EndSplineSet
EndChar
StartChar: uni030C.alt
Encoding: 65555 -1 355
Width: 0
GlyphClass: 4
Flags: W
AnchorPoint: "Anchor-3" 20 496 mark 0
LayerCount: 2
Fore
SplineSet
77.5 708.5 m 128,-1,1
 87 718 87 718 103 718 c 256,2,3
 119 718 119 718 129.5 708.5 c 128,-1,4
 140 699 140 699 140 683 c 0,5,6
 140 670 140 670 129 642 c 2,7,-1
 89 535 l 1,8,-1
 40 535 l 1,9,-1
 66 689 l 2,10,0
 68 699 68 699 77.5 708.5 c 128,-1,1
EndSplineSet
EndChar
StartChar: uni0328.alt
Encoding: 65562 -1 372
Width: 0
GlyphClass: 4
Flags: W
AnchorPoint: "Anchor-2" 197 10 mark 0
LayerCount: 2
Fore
SplineSet
65.5 -149 m 128,-1,1
 40 -125 40 -125 40 -91 c 0,2,3
 40 -49 40 -49 63 -19 c 128,-1,4
 86 11 86 11 117 28 c 1,5,-1
 181 28 l 1,6,7
 151 11 151 11 130.5 -14.5 c 128,-1,8
 110 -40 110 -40 110 -71 c 0,9,10
 110 -93 110 -93 123.5 -104 c 128,-1,11
 137 -115 137 -115 159 -115 c 0,12,13
 180 -115 180 -115 197 -107 c 1,14,-1
 197 -161 l 1,15,16
 163 -173 163 -173 134 -173 c 0,17,0
 91 -173 91 -173 65.5 -149 c 128,-1,1
EndSplineSet
EndChar
StartChar: uni0328.case
Encoding: 65563 -1 373
Width: 0
GlyphClass: 4
Flags: W
AnchorPoint: "Anchor-2" 197 10 mark 0
LayerCount: 2
Fore
SplineSet
68 -151 m 128,-1,1
 40 -129 40 -129 40 -91 c 0,2,3
 40 -22 40 -22 115 12 c 1,4,-1
 197 0 l 1,5,6
 152 -16 152 -16 131 -33 c 128,-1,7
 110 -50 110 -50 110 -74 c 0,8,9
 110 -94 110 -94 123.5 -104.5 c 128,-1,10
 137 -115 137 -115 159 -115 c 0,11,12
 180 -115 180 -115 197 -107 c 1,13,-1
 197 -161 l 1,14,15
 169 -173 169 -173 138 -173 c 0,16,0
 96 -173 96 -173 68 -151 c 128,-1,1
EndSplineSet
EndChar
